<?xml version="1.0" standalone="no"?>
<!DOCTYPE svg PUBLIC "-//W3C//DTD SVG 1.1//EN" "http://www.w3.org/Graphics/SVG/1.1/DTD/svg11.dtd" >
<svg xmlns="http://www.w3.org/2000/svg" xmlns:xlink="http://www.w3.org/1999/xlink" version="1.1">
<metadata>
Created by FontForge 20170924 at Mon Mar 16 11:21:22 2020
 By www-data
Typeface (c) MERCED by Hareesh. &#60;2014&#62;. All Rights Reserved
</metadata>
<defs>
<font id="mr_HangingLettersG" horiz-adv-x="1014" >
  <font-face 
    font-family="mr_HangingLettersG"
    font-weight="400"
    font-stretch="normal"
    units-per-em="2048"
    panose-1="2 0 5 0 0 0 0 0 0 0"
    ascent="1638"
    descent="-410"
    x-height="2207"
    cap-height="2208"
    bbox="-342 -420 3652 2250"
    underline-thickness="150"
    underline-position="-292"
    unicode-range="U+001D-F002"
  />
<missing-glyph horiz-adv-x="1024" 
d="M100 0v1434h824v-1434h-824zM150 50h724v1334h-724v-1334zM325 1148q31 28 58 43q53 30 112 30q92 0 148 -47.5t56 -127.5q0 -49 -23 -98.5t-87 -129.5q-63 -80 -99 -132t-36 -99q0 -38 24 -133h-32q-35 97 -35 148q0 76 81.5 218t81.5 217q0 57 -33 90t-91 33
q-38 0 -69 -17q-26 -15 -56 -40v45zM389 334l57 58q11 10 20 10q10 0 22 -11l56 -60q9 -11 9 -20q0 -11 -10 -22l-56 -62q-14 -14 -21 -14q-11 0 -20 10l-61 71q-7 9 -7 18q0 10 11 22zM516 2222h12q6 0 16 -16v-656q16 -17 16 -32v-12q0 -14 -16 -32v-108q0 -6 -16 -16h-12
q-6 0 -16 16v100q-31 0 -36 48q8 40 28 40q0 83 -64 152q-17 -16 -32 -16h-12q-30 0 -44 44q8 52 48 52h4q33 0 56 -56q35 -23 48 -64h4v540q0 6 16 16z" />
    <glyph glyph-name=".notdef" horiz-adv-x="1024" 
d="M100 0v1434h824v-1434h-824zM150 50h724v1334h-724v-1334zM325 1148q31 28 58 43q53 30 112 30q92 0 148 -47.5t56 -127.5q0 -49 -23 -98.5t-87 -129.5q-63 -80 -99 -132t-36 -99q0 -38 24 -133h-32q-35 97 -35 148q0 76 81.5 218t81.5 217q0 57 -33 90t-91 33
q-38 0 -69 -17q-26 -15 -56 -40v45zM389 334l57 58q11 10 20 10q10 0 22 -11l56 -60q9 -11 9 -20q0 -11 -10 -22l-56 -62q-14 -14 -21 -14q-11 0 -20 10l-61 71q-7 9 -7 18q0 10 11 22zM516 2222h12q6 0 16 -16v-656q16 -17 16 -32v-12q0 -14 -16 -32v-108q0 -6 -16 -16h-12
q-6 0 -16 16v100q-31 0 -36 48q8 40 28 40q0 83 -64 152q-17 -16 -32 -16h-12q-30 0 -44 44q8 52 48 52h4q33 0 56 -56q35 -23 48 -64h4v540q0 6 16 16z" />
    <glyph glyph-name=".null" horiz-adv-x="0" 
 />
    <glyph glyph-name=".null" horiz-adv-x="0" 
 />
    <glyph glyph-name="nonmarkingreturn" horiz-adv-x="508" 
 />
    <glyph glyph-name="space" unicode=" " horiz-adv-x="508" 
 />
    <glyph glyph-name="space" unicode="&#xa0;" horiz-adv-x="508" 
 />
    <glyph glyph-name="exclam" unicode="!" horiz-adv-x="672" 
d="M297 2215h8q5 0 11 -11v-949q11 -11 11 -21v-8q0 -10 -11 -22v-5h3q114 0 114 -19q8 -13 8 -49v-228q0 -71 -49 -425q-16 -152 -24 -152q0 -15 -41 -21h-8v-111h76q54 0 54 -60v-152q0 -62 -51 -62h-168q-60 0 -60 54v174q5 46 46 46h52q13 9 13 10q0 36 -24 36
q-36 0 -36 29v6q0 22 30 30h6q29 -5 29 -30v-6l-2 -13l5 -3v52q-51 0 -51 73q-14 90 -63 485q3 152 3 257v35q0 44 73 44h27q-16 15 -16 32q6 27 19 27q0 56 -43 103q-12 -11 -22 -11h-8q-20 0 -30 30q6 35 33 35h2q23 0 38 -38q24 -15 33 -43h2v870q0 4 11 11zM257 1104
q0 -39 48 -46q41 8 41 48q-10 38 -30 38v-13q0 -4 -11 -11h-8q-4 0 -11 11v13h-2q-27 -15 -27 -40zM270 416q0 -24 19 -38q0 24 11 24h8q4 0 11 -11v-19h3q24 13 24 46q-9 38 -32 38h-11q-25 0 -33 -40zM319 134v-27q0 -4 -8 -8h-11q-11 0 -11 30q-10 0 -19 -28
q8 -32 49 -32q43 5 43 38q-12 27 -35 27h-8z" />
    <glyph glyph-name="quotedbl" unicode="&#x22;" horiz-adv-x="672" 
d="M127 2215h8q4 0 11 -11v-499q11 -11 11 -21v-8q0 -10 -11 -22v-5h3q113 0 113 -19q8 -13 8 -49v-98q0 -71 -32.5 -169t-40.5 -98q0 -15 -40 -21h-8h-30q-52 0 -114 248l3 127v35q0 44 73 44h27q-16 15 -16 32q5 27 19 27q0 56 -44 103q-11 -11 -21 -11h-8q-21 0 -30 30
q5 35 32 35h3q23 0 38 -38q23 -15 32 -43h3v420q0 4 11 11zM86 1554q0 -39 49 -46q41 8 41 48q-11 38 -30 38v-13q0 -4 -11 -11h-8q-4 0 -11 11v13h-3q-27 -15 -27 -40zM477 2215h8q4 0 11 -11v-499q11 -11 11 -21v-8q0 -10 -11 -22v-5h3q113 0 113 -19q8 -13 8 -49v-98
q0 -71 -32.5 -169t-40.5 -98q0 -15 -40 -21h-8h-30q-52 0 -114 248l3 127v35q0 44 73 44h27q-16 15 -16 32q5 27 19 27q0 56 -44 103q-11 -11 -21 -11h-8q-21 0 -30 30q5 35 32 35h3q23 0 38 -38q23 -15 32 -43h3v420q0 4 11 11zM436 1554q0 -39 49 -46q41 8 41 48
q-11 38 -30 38v-13q0 -4 -11 -11h-8q-4 0 -11 11v13h-3q-27 -15 -27 -40z" />
    <glyph glyph-name="numbersign" unicode="#" horiz-adv-x="1336" 
d="M702 2212h9q4 0 12 -12v-936q12 -13 12 -25v-9q0 -8 -6 -18q40 0 48 -33q48 -228 58 -290q14 -32 30 -37q30 0 91 18q34 0 48 -42q24 -63 24 -75v-19q0 -30 -103 -57q-36 -20 -36 -58q28 -190 54 -190h25q60 18 72 18q45 0 70 -121v-15q0 -29 -103 -60q-36 -23 -36 -46
v-6q57 -321 57 -326q0 -50 -145 -76q-43 0 -51 112q-41 207 -55 236q-14 12 -36 12q-136 -27 -136 -79l48 -272q6 -34 6 -63q0 -43 -145 -73q-37 0 -54 151l-43 191q-13 21 -33 21q-10 0 -100 -24q-48 0 -72 133q0 31 133 72q24 17 24 52q-24 190 -55 190h-21l-75 -21h-18
q-44 0 -70 130q0 35 112 64q45 23 45 48v12q0 9 -57 315q0 60 145 84q47 0 60 -157q34 -153 34 -169q16 -34 36 -34h3q49 0 136 46q9 15 9 30v6q-12 89 -57 321q0 49 87 66q-21 19 -21 39q6 31 21 31q0 62 -48 115q-13 -13 -24 -13h-9q-23 0 -34 34q7 39 37 39h3
q25 0 42 -42q26 -17 36 -49h3v849q0 5 13 12zM656 1094q0 -43 55 -51q45 9 45 54q-12 43 -33 43v-16q0 -4 -12 -12h-9q-5 0 -13 12v16h-3q-30 -17 -30 -46zM523 505q21 -200 58 -200q6 0 12 -3q66 15 105 33q37 14 37 49v6q-26 187 -49 187l-15 3h-18q-130 -30 -130 -75z
" />
    <glyph glyph-name="dollar" unicode="$" 
d="M460 2210h7q4 0 10 -10v-933q9 -10 9 -19v-7q0 -9 -9 -20v-2q119 -11 221 -79q79 -78 101 -152q7 -19 7 -27v-9q0 -34 -74 -34l-101 -14q-38 0 -56 50q-42 75 -108 75q-19 -10 -19 -27v-2q23 -234 33 -234q0 -13 116 -28q128 -24 212 -92q70 -54 98 -176q8 -34 10 -77
q0 -131 -113 -240q-86 -78 -217 -109q-21 -15 -21 -41q4 -55 4 -69q0 -28 -45 -34q-46 0 -46 39q-8 86 -36 86q-121 10 -181 34q-121 50 -183 171q-40 85 -40 118t93 38l80 10q41 0 65 -82q63 -94 139 -94q22 0 24 27q-27 288 -43 288q0 11 -125 29q-164 43 -217 121
q-55 79 -55 190v5q0 178 197 286q43 19 111 41q15 16 15 41q-3 40 -3 60q0 15 34 26h7q51 0 51 -45q0 -34 19 -58l-3 12v2q5 24 17 24q0 50 -38 92q-10 -10 -20 -10h-7q-18 0 -26 27q5 31 29 31h2q20 0 34 -34q21 -13 29 -38h2v863q0 4 10 10zM424 1132q0 -34 43 -41
q36 8 36 44q-9 33 -26 33v-12q0 -3 -10 -9h-7q-4 0 -10 9v12h-2q-24 -13 -24 -36zM221 880q7 -46 41 -77q53 -29 80 -29h7q24 4 24 24q-14 212 -31 212q-18 4 -19 4q-51 0 -94 -77q-5 -24 -8 -57zM508 485q25 -243 36 -243q12 -7 19 -7h10q118 44 118 146v10q0 44 -44 89
q-61 36 -101 36h-19q-19 -9 -19 -31z" />
    <glyph glyph-name="percent" unicode="%" horiz-adv-x="1610" 
d="M720 2219h10q5 0 13 -13v-1130q13 -14 13 -26v-10q0 -12 -13 -26v-26q259 0 492 -215q199 -219 199 -473v-26q0 -367 -352 -599q-182 -95 -336 -95h-52q-317 0 -557 287q-137 192 -137 414v6q0 347 306 574q191 127 401 127v19q-25 0 -29 40q6 32 23 32q0 67 -52 124
q-14 -13 -27 -13h-9q-25 0 -36 36q6 42 39 42h3q27 0 46 -45q28 -19 39 -53h3v1036q0 5 13 13zM743 946q0 -33 -13 -33h-10q-12 0 -13 26q-9 0 -19 -36q7 -49 42 -49q34 0 42 46q0 32 -29 46z" />
    <glyph glyph-name="ampersand" unicode="&#x26;" horiz-adv-x="1443" 
d="M750 2217h8q4 0 10 -10v-906q11 -10 11 -20v-8q0 -7 -5 -16h2q37 8 62 8q168 0 290 -124q69 -73 69 -186q0 -158 -155 -256q-67 -32 -131 -52q-13 -14 -13 -28q0 -22 62 -171q11 -10 20 -10q27 0 68 70q19 18 38 18q158 -38 158 -72v-3q-12 -62 -137 -189
q-39 -28 -39 -46v-18q0 -9 96 -236q15 -38 15 -56q-9 -16 -25 -16q-233 68 -233 88q-13 9 -41 90q-14 26 -39 26q-121 -41 -217 -41q-82 8 -148 31q-178 72 -238 202q-28 74 -28 118v42q0 114 98 230q85 80 264 121l10 16v18q-31 109 -31 152q0 173 163 256q18 6 21 6
q-18 16 -18 33q5 26 18 26q0 53 -42 98q-11 -10 -20 -10h-8q-19 0 -28 28q5 34 31 34h2q22 0 36 -36q23 -15 31 -42h3v831q0 4 10 10zM711 1157q0 -38 47 -44q39 8 39 46q-10 36 -29 36v-12q0 -5 -10 -11h-8q-4 0 -10 11v12h-3q-26 -14 -26 -38zM771 958q25 -122 44 -122
q0 -8 23 -8q60 6 116 60q34 47 34 77v26q0 73 -85 101l-23 3q-75 0 -101 -81q-5 -11 -8 -56zM443 433v-18q0 -56 51 -109q56 -52 117 -52h23q78 0 140 44q5 9 5 16v5q0 26 -101 269q-25 15 -34 15q-100 0 -178 -90q-23 -44 -23 -80z" />
    <glyph glyph-name="quotesingle" unicode="'" horiz-adv-x="672" 
d="M127 2215h8q4 0 11 -11v-499q11 -11 11 -21v-8q0 -10 -11 -22v-5h3q113 0 113 -19q8 -13 8 -49v-98q0 -71 -32.5 -169t-40.5 -98q0 -15 -40 -21h-8h-30q-52 0 -114 248l3 127v35q0 44 73 44h27q-16 15 -16 32q5 27 19 27q0 56 -44 103q-11 -11 -21 -11h-8q-21 0 -30 30
q5 35 32 35h3q23 0 38 -38q23 -15 32 -43h3v420q0 4 11 11zM86 1554q0 -39 49 -46q41 8 41 48q-11 38 -30 38v-13q0 -4 -11 -11h-8q-4 0 -11 11v13h-3q-27 -15 -27 -40z" />
    <glyph glyph-name="parenleft" unicode="(" horiz-adv-x="1330" 
d="M653 2213h11q5 0 14 -14v-697q14 -15 14 -28v-10q0 -13 -14 -29v-24q236 0 415 -204q84 -125 84 -239v-939q0 -199 -211 -351q-144 -88 -281 -88h-42q-251 0 -422 211q-81 116 -81 239v924q0 219 239 377q143 70 260 70v17q-27 0 -31 43q7 35 24 35q0 72 -56 133
q-15 -14 -28 -14h-11q-26 0 -38 39q7 46 42 46h3q30 0 49 -50q31 -19 43 -56h3v595q0 6 14 14zM678 1362q0 -35 -14 -35h-11q-13 0 -14 28q-21 -16 -21 -46q0 -38 49 -46q42 0 42 56q0 26 -31 43z" />
    <glyph glyph-name="parenright" unicode=")" horiz-adv-x="2022" 
d="M974 2217h11q5 0 13 -13v-861q14 -14 14 -27v-10q0 -13 -14 -28v-31q140 83 151 83h3q31 -55 109 -161q12 0 188 20q41 -182 48 -198q181 -51 181 -61l-30 -192l150 -126l-99 -171l92 -174q-153 -113 -154 -117l21 -195q-11 -6 -188 -47l-48 -188h-3l-192 30
q-103 -142 -119 -150l-158 103q-16 -3 -167 -93q-27 27 -113 164q-174 -20 -191 -20l-48 195q-181 55 -181 61l27 195q-144 119 -147 126l99 168q-73 133 -92 178q147 105 154 116q-21 171 -21 195l188 48q45 188 55 188l184 -35q116 154 120 154l144 -92v20q-27 0 -31 41
q7 35 24 35q0 70 -55 130q-14 -14 -27 -14h-11q-25 0 -37 37q7 45 41 45h3q29 0 48 -48q30 -19 41 -55h4v762q0 5 13 13zM998 1128q0 -34 -13 -34h-11q-13 0 -13 27q-10 0 -21 -38q8 -51 45 -51q36 0 44 48q0 33 -31 48z" />
    <glyph glyph-name="asterisk" unicode="*" horiz-adv-x="647" 
d="M264 2205h7q4 0 10 -9v-551q9 -11 9 -20v-7q0 -8 -9 -19v-19h7q48 0 48 -46v-38q0 -96 16 -96l15 -2h5l122 40h9q31 0 48 -84v-4q0 -30 -119 -63q-36 -11 -36 -36q0 -10 62 -93q19 -25 19 -36q0 -30 -67 -67q-10 -5 -17 -5q-16 0 -67 74q-34 53 -55 53h-5
q-33 -27 -86 -113q-17 -12 -31 -12q-58 25 -75 58q-2 4 -2 10q0 19 77 119q4 8 4 15q0 31 -93 50q-60 24 -60 46q16 88 50 88q14 0 127 -40h10q24 0 24 43v79l2 14q-2 5 -2 10q8 33 34 33q4 3 9 3v14q-18 0 -21 29q4 24 16 24q0 49 -38 91q-10 -9 -19 -9h-7q-18 0 -27 26
q5 31 29 31h2q20 0 34 -34q21 -13 29 -38h2v482q0 4 10 9zM281 1549q0 -24 -10 -24h-7q-9 0 -10 19q-6 0 -14 -26q5 -36 31 -36q25 0 31 33q0 24 -21 34z" />
    <glyph glyph-name="plus" unicode="+" horiz-adv-x="1072" 
d="M548 2205h7q4 0 11 -10v-884q10 -10 10 -20v-7q0 -9 -10 -20v-10h2q81 0 81 -43q2 -13 2 -33v-217q0 -40 40 -40h222q65 0 65 -40q0 -36 3 -98q-11 -38 -38 -38q-34 -3 -58 -3h-173q-61 0 -61 -37v-222q0 -65 -30 -65q0 -4 -28 -8q-116 0 -116 25q-5 10 -5 28v209
q0 70 -35 70h-199q-90 0 -90 23q-5 0 -8 60q0 91 23 91q23 5 37 5h209q63 0 63 43v244q0 43 51 43h15v8q-19 0 -23 30q5 25 18 25q0 52 -40 96q-11 -10 -21 -10h-7q-19 0 -28 27q5 33 30 33h3q21 0 35 -35q22 -14 30 -41h3v811q0 4 10 10zM566 1211q0 -25 -11 -25h-7
q-10 0 -10 20q-7 0 -15 -28q5 -38 32 -38t33 35q0 25 -22 36z" />
    <glyph glyph-name="comma" unicode="," horiz-adv-x="557" 
d="M191 2215h7q3 0 9 -9v-1943q7 -21 7 -23v-3q0 -12 -7 -21v-14h50q35 0 45 -24q3 -4 3 -10v-135q0 -34 2 -78q0 -67 -57 -152q-58 -66 -154 -93h-3q-26 0 -31 36v31q0 34 60 66q38 41 47 81q0 38 -64 38q-45 0 -45 54v131q0 55 55 55h66v7q-19 0 -24 26v5q0 13 17 23
q0 50 -38 91q0 -4 -12 -10h-12q-26 4 -26 26v5q0 20 26 26h5q21 0 29 -31q33 -26 33 -45h2v1881q0 4 10 9zM155 126q7 -38 43 -38q27 0 35 38q0 21 -21 35h-5q0 -19 -9 -19h-7q-6 0 -12 19q-24 -13 -24 -35z" />
    <glyph glyph-name="hyphen" unicode="-" horiz-adv-x="670" 
d="M332 2208h8l9 -7q2 -844 2 -855q0 -107 3 -436q6 0 9 -19v-3q0 -12 -7 -21v-7h166q48 0 48 -41q2 -8 2 -26v-61q0 -60 -36 -60q-11 -2 -30 -2h-363q-43 0 -43 62v31q0 87 17 87q0 8 30 10h178v2q-15 0 -19 24v5q0 13 17 23q0 49 -38 90h-2q-4 -9 -17 -9h-7q-18 0 -26 26
q5 31 28 31q31 -3 31 -31q14 0 33 -40h3q-3 45 -3 59q0 143 -2 1161zM356 812q-2 -19 -9 -19h-10q-9 4 -9 17q-7 0 -15 -26q6 -36 31 -36t31 33q0 21 -16 31h-3z" />
    <glyph glyph-name="hyphen" unicode="&#xad;" horiz-adv-x="670" 
d="M332 2208h8l9 -7q2 -844 2 -855q0 -107 3 -436q6 0 9 -19v-3q0 -12 -7 -21v-7h166q48 0 48 -41q2 -8 2 -26v-61q0 -60 -36 -60q-11 -2 -30 -2h-363q-43 0 -43 62v31q0 87 17 87q0 8 30 10h178v2q-15 0 -19 24v5q0 13 17 23q0 49 -38 90h-2q-4 -9 -17 -9h-7q-18 0 -26 26
q5 31 28 31q31 -3 31 -31q14 0 33 -40h3q-3 45 -3 59q0 143 -2 1161zM356 812q-2 -19 -9 -19h-10q-9 4 -9 17q-7 0 -15 -26q6 -36 31 -36t31 33q0 21 -16 31h-3z" />
    <glyph glyph-name="period" unicode="." horiz-adv-x="866" 
d="M205 2218h7q4 0 10 -10v-1966q8 -22 8 -25v-2q0 -13 -8 -22v-15h57q44 0 44 -39v-157q0 -45 -22 -45q0 -5 -49 -7h-113q-67 0 -67 37q-2 23 -2 44v118q0 37 29 49h96v7q-19 0 -24 27v5q0 14 17 25q0 51 -39 93q-1 -3 -13 -10h-12q-27 4 -27 27v5q0 21 27 27h5
q22 0 29 -32q35 -27 35 -46h2v1902q0 4 10 10zM168 99q8 -39 44 -39q29 0 37 39q0 23 -22 37h-5q0 -19 -10 -19h-7q-6 0 -12 19q-25 -13 -25 -37z" />
    <glyph glyph-name="slash" unicode="/" horiz-adv-x="569" 
d="M93 -50h-80l541 1484h80z" />
    <glyph glyph-name="zero" unicode="0" 
d="M443 2217h8q4 0 11 -10v-906q10 -11 10 -21v-8q0 -9 -10 -20q207 0 328 -183q73 -142 73 -206q10 0 24 -201v-62q0 -294 -136 -472q-81 -82 -157 -105q-93 -23 -138 -23q-315 0 -412 305q-41 147 -41 282q-3 0 -3 2q3 14 3 24v23q0 9 -3 13q10 186 37 282q36 112 104 193
q41 50 81 70q101 58 198 58q-11 10 -11 26q6 26 19 26q0 54 -42 99q-11 -11 -21 -11h-8q-19 0 -28 29q5 34 31 34h2q22 0 37 -37q23 -14 31 -41h3v830q0 4 10 10zM404 1155q0 -38 47 -44q39 8 39 47q-10 36 -28 36v-13q0 -4 -11 -10h-8q-4 0 -10 10v13h-3q-26 -14 -26 -39z
M245 613l3 -37l-3 -10q8 -148 26 -206q30 -102 97 -141q47 -21 73 -21q65 0 125 55q78 102 78 373v26q0 396 -198 396h-29q-34 0 -86 -42q-70 -91 -70 -177q-13 -18 -16 -216z" />
    <glyph glyph-name="one" unicode="1" horiz-adv-x="670" 
d="M412 2213h8q4 0 10 -10v-914h3q0 16 34 45q7 31 32 31h2q26 0 32 -34q-9 -29 -29 -29h-8q-9 0 -21 11q-39 -44 -39 -92v-5q15 -16 15 -26v-8q0 -18 -21 -26v-8q29 2 34 5q63 0 63 -47l92 -1118q0 -50 -115 -50l-84 -8q-45 6 -45 45q-5 44 -57 703q-15 29 -35 29h-5
l-228 -13h-3q-42 0 -42 71q-5 25 -5 73q0 38 97 47q142 41 184 113q29 36 50 121q18 26 71 26v13q-14 14 -14 24v5q0 11 14 26v990q0 4 10 10zM373 1043q0 -38 47 -45q39 8 39 47q-10 37 -29 37v-13q0 -4 -10 -11h-8q-4 0 -10 11v13h-3q-26 -15 -26 -39z" />
    <glyph glyph-name="two" unicode="2" horiz-adv-x="917" 
d="M430 2204h8q4 0 10 -10v-866h3q0 15 33 44q7 31 31 31h3q25 0 31 -34q-9 -28 -29 -28h-7q-10 0 -21 10q-39 -43 -39 -90v-5q16 -16 16 -26v-8q0 -17 -21 -25v-13h44q255 0 376 -209q36 -71 36 -162v-21q0 -230 -273 -376q-163 -95 -247 -160q-39 -34 -39 -54
q5 -16 54 -23q456 -20 456 -28q21 -17 21 -49q-3 -144 -26 -144l-23 -8q-266 15 -796 44q-31 13 -31 41v10q0 82 82 214q67 81 121 119q124 88 333 211q96 69 121 149q7 42 7 64q0 111 -108 163q-24 7 -62 13h-10q-104 0 -159 -119q-21 -49 -34 -121q-17 -21 -39 -21
q-152 0 -177 21q-11 15 -11 21q7 123 70 237q73 115 206 164q31 11 80 19v20q-13 13 -13 23v5q0 11 13 26v941q0 4 10 10zM391 1086q0 -37 47 -44q38 8 38 46q-9 36 -28 36v-12q0 -4 -10 -11h-8q-4 0 -10 11v12h-3q-26 -14 -26 -38z" />
    <glyph glyph-name="three" unicode="3" horiz-adv-x="897" 
d="M385 2211h7q4 0 11 -10v-865q10 -11 10 -21v-8q0 -9 -10 -20q50 2 67 2q233 0 369 -183q41 -84 41 -150v-5q0 -126 -80 -199q0 -5 -49 -36q-15 -12 -15 -15v-6q0 -17 72 -67q72 -83 72 -162q3 0 6 -31q-3 -16 -6 -16l3 -13v-2q0 -91 -83 -212q-132 -142 -361 -142h-3
q-69 0 -191 39q-245 112 -245 374q0 52 46 52q181 0 181 -42q23 -128 65 -165q63 -59 144 -59h5q132 0 179 119q13 37 13 54v10q0 113 -86 152q-22 18 -137 34q-29 0 -36 46q6 114 26 114q0 7 114 10q93 28 93 44q44 44 44 98q0 112 -127 155q-23 5 -33 5h-16
q-139 0 -186 -175q-11 -18 -33 -18h-8q-168 4 -168 23q-10 14 -10 28q26 129 95 210q101 104 204 121q-18 16 -18 33q5 26 18 26q0 54 -41 98q-11 -10 -21 -10h-8q-19 0 -28 28q5 34 31 34h3q21 0 36 -36q22 -15 31 -41h2v790q0 4 11 10zM346 1191q0 -37 46 -44q39 8 39 47
q-10 36 -28 36v-13q0 -4 -11 -10h-7q-4 0 -11 10v13h-2q-26 -15 -26 -39z" />
    <glyph glyph-name="four" unicode="4" horiz-adv-x="953" 
d="M496 2212h8q5 0 11 -11v-972h3q0 16 35 46q7 32 32 32h3q26 0 32 -35q-9 -29 -30 -29h-8q-9 0 -21 10q-40 -44 -40 -94v-5q16 -16 16 -27v-8q0 -18 -22 -27v-8q70 11 83 11q40 0 49 -115q91 -537 102 -585q15 -22 45 -22q67 14 78 14h5q44 0 51 -78q11 -62 11 -83
q0 -39 -48 -46q-97 -8 -97 -46q0 -16 -2 -16q24 -131 34 -206q0 -47 -142 -57q0 -5 -40 -5h-13q-43 0 -43 64q-31 194 -46 194q-14 8 -27 8t-435 -70h-21q-37 0 -48 121q-11 46 -11 75v10q0 33 72 161l309 601q23 54 62 54q0 5 43 11v16q-14 14 -14 24v5q0 12 14 27v1050
q0 4 10 11zM456 977q0 -39 48 -46q41 9 41 49q-11 37 -30 37v-13q0 -4 -11 -11h-8q-4 0 -10 11v13h-3q-27 -15 -27 -40zM217 309q4 -27 30 -27q207 30 244 46q10 0 19 34q-52 341 -65 341q0 6 -5 6h-5q-25 0 -62 -89q-94 -170 -156 -306v-5z" />
    <glyph glyph-name="five" unicode="5" 
d="M406 2209h8q4 0 10 -10v-922q11 -11 11 -21v-7q0 -9 -8 -19q489 -105 550 -123q16 -13 16 -26v-16q0 -25 -26 -126q-14 -21 -34 -21h-3q-13 0 -419 87h-16q-39 0 -68 -105q-26 -51 -39 -99q0 -14 13 -21h8l97 21h31q230 0 338 -213q32 -70 32 -128v-71q0 -156 -126 -293
q-141 -126 -299 -126q-239 0 -406 176q-76 103 -76 222v21q0 53 37 53q201 -33 201 -58q26 -134 50 -134q0 -33 121 -73l31 -3q52 0 118 34q73 64 89 118q16 45 16 68v42q0 86 -81 158q-60 41 -155 41q-58 -7 -118 -49q-17 -6 -23 -6h-14q-134 25 -167 45l-5 18v8
q13 45 165 409q67 170 83 173q0 8 27 8l-3 5v8q5 26 18 26q0 54 -42 100q-11 -11 -20 -11h-8q-20 0 -29 29q5 34 31 34h3q22 0 37 -37q22 -14 31 -42h3v846q0 4 10 10zM367 1110q0 -38 47 -45q39 8 39 47q-10 37 -29 37v-13q0 -4 -10 -11h-8q-4 0 -10 11v13h-3
q-26 -15 -26 -39z" />
    <glyph glyph-name="six" unicode="6" horiz-adv-x="968" 
d="M373 2207h8q4 0 11 -11v-823h2q0 15 35 44q7 32 31 32h3q26 0 31 -34q-8 -29 -29 -29h-7q-10 0 -22 10q-39 -43 -39 -92v-5q16 -16 16 -26v-8q0 -18 -21 -27v-10q82 26 121 26q297 0 407 -244q24 -66 24 -124v-8q0 -39 -45 -39q-181 32 -181 63q-16 67 -40 100
q-59 63 -110 63h-26q-135 0 -237 -239l-3 -16v-16q0 -4 11 -10h13q92 44 142 44h58q69 -8 121 -31q47 -16 121 -84q102 -107 102 -253v-8q0 -245 -215 -399q-105 -53 -197 -53q-174 0 -313 108q-96 100 -113 173q-32 108 -32 190q0 338 179 594q60 75 118 116q30 18 66 34
v26q-13 14 -13 24v5q0 11 13 26v900q0 5 10 11zM334 1125q0 -38 47 -44q40 8 40 47q-10 37 -29 37v-13q0 -4 -11 -11h-8q-4 0 -10 11v13h-3q-26 -15 -26 -40zM237 423l2 -5q-2 -5 -2 -8q0 -126 115 -189q30 -13 42 -13h45q96 0 163 134q21 66 21 102q0 77 -42 148
q-57 63 -134 63h-26q-110 0 -171 -155q-13 -42 -13 -77z" />
    <glyph glyph-name="seven" unicode="7" horiz-adv-x="847" 
d="M634 2210h8q4 0 10 -10v-811h3q0 15 34 44q7 31 31 31h2q27 0 32 -33q-8 -29 -29 -29h-8q-9 0 -21 10q-39 -43 -39 -91v-5q16 -16 16 -26v-8q0 -18 -21 -26v-11h3q83 19 117 21q34 0 50 -122q10 -34 10 -52v-14q0 -16 -73 -135q-133 -297 -133 -644q5 -164 18 -238
q0 -62 -73 -62q-31 -8 -143 -29q-42 0 -42 117q0 14 -3 84q0 376 180 769q11 17 11 29q0 17 -37 21l-18 -5l-5 2q-407 -86 -444 -91q-47 6 -47 57q-23 106 -23 120v5q0 45 115 55q251 55 508 105v20q-13 14 -13 24v5q0 11 13 26v887q0 4 11 10zM595 1144q0 -38 47 -45
q39 9 39 47q-10 37 -29 37v-13q0 -4 -10 -11h-8q-4 0 -11 11v13h-2q-26 -15 -26 -39z" />
    <glyph glyph-name="eight" unicode="8" horiz-adv-x="888" 
d="M423 2216h7q4 0 10 -10v-837q10 -11 10 -20v-8q0 -9 -10 -20v-7q234 0 341 -177q40 -70 40 -151q0 -68 -65 -157q-62 -52 -67 -60q0 -22 62 -50q82 -55 105 -154q10 -30 12 -82q0 -207 -192 -308q-104 -55 -241 -55q-250 0 -378 164q-57 93 -57 199q2 69 37 147
q37 68 130 117q0 1 10 12v5q0 15 -55 52q-75 89 -75 170l3 12v7q0 158 156 249q72 42 175 57q11 0 32 3v2q-19 0 -23 30q5 25 18 25q0 51 -40 95q-10 -10 -20 -10h-7q-19 0 -28 27q5 32 30 32h3q20 0 35 -35q21 -14 29 -39h3v765q0 4 10 10zM386 1229q0 -36 44 -42
q38 8 38 45q-10 35 -28 35v-13q0 -4 -10 -10h-7q-4 0 -10 10v13h-3q-24 -14 -24 -38zM413 1135q-5 2 -8 2q-43 -6 -87 -35q-57 -48 -57 -121v-8q0 -98 115 -137q38 -7 59 -7h13q91 0 144 79q17 40 17 75q0 62 -44 109q-53 45 -105 45q0 3 -10 3q-35 -3 -37 -5zM234 488
q0 -108 104 -172q47 -22 110 -22q76 0 141 65q45 56 45 119v13q0 109 -117 166q-27 10 -79 15q-138 0 -192 -114q-12 -43 -12 -70z" />
    <glyph glyph-name="nine" unicode="9" horiz-adv-x="953" 
d="M501 2214h8q4 0 11 -11v-797h3q0 15 34 45q7 32 32 32h2q27 0 32 -35q-8 -29 -29 -29h-8q-9 0 -21 11q-40 -44 -40 -93v-5q16 -17 16 -27v-8q0 -18 -21 -26q0 -5 66 -19q151 -59 242 -223q103 -219 103 -461v-53q-11 -124 -40 -205q-62 -180 -201 -254q-23 -23 -160 -53
q-13 -3 -26 -3h-69q-71 0 -172 48q-114 70 -157 201v8q0 31 58 37l117 16h8q38 0 72 -61q60 -63 132 -63q90 0 154 100q48 102 48 223q0 35 -21 35h-8q-118 -112 -183 -112q-13 -8 -96 -16q-177 0 -305 149q-79 124 -79 265q-3 0 -3 6q0 168 114 302q133 135 342 135
q18 -2 35 -2v2q-14 14 -14 24v5q0 12 14 27v874q0 4 10 11zM462 1156q0 -38 47 -45q40 9 40 48q-10 37 -29 37v-13q0 -4 -11 -11h-8q-4 0 -10 11v13h-3q-26 -15 -26 -40zM247 854q0 -83 53 -170q57 -71 148 -71h14q62 5 119 58q56 61 56 170q0 116 -122 207q-37 16 -67 16
h-45q-38 -6 -77 -30q-79 -67 -79 -180z" />
    <glyph glyph-name="colon" unicode=":" horiz-adv-x="557" 
d="M145 167l82 84q15 14 29 14q13 0 31 -16l80 -86q12 -16 12 -29q0 -15 -14 -31l-80 -88q-20 -20 -29 -20q-16 0 -29 14l-88 101q-10 13 -10 26q0 15 16 31zM145 860l82 84q15 14 29 14q13 0 31 -16l80 -86q12 -16 12 -29q0 -15 -14 -31l-80 -88q-20 -20 -29 -20
q-16 0 -29 14l-88 101q-10 13 -10 26q0 15 16 31z" />
    <glyph glyph-name="semicolon" unicode=";" horiz-adv-x="557" 
d="M145 859l82 84q15 14 29 14q13 0 31 -16l80 -86q12 -16 12 -29q0 -15 -14 -31l-80 -88q-20 -20 -29 -20q-16 0 -29 14l-88 101q-10 13 -10 26q0 15 16 31zM238 258q44 0 88.5 -65.5t44.5 -151.5q0 -109 -71 -226.5t-139 -117.5v43q73 43 87 190q0 119 -129 161v42z" />
    <glyph glyph-name="semicolon" unicode="&#x37e;" horiz-adv-x="557" 
d="M145 859l82 84q15 14 29 14q13 0 31 -16l80 -86q12 -16 12 -29q0 -15 -14 -31l-80 -88q-20 -20 -29 -20q-16 0 -29 14l-88 101q-10 13 -10 26q0 15 16 31zM238 258q44 0 88.5 -65.5t44.5 -151.5q0 -109 -71 -226.5t-139 -117.5v43q73 43 87 190q0 119 -129 161v42z" />
    <glyph glyph-name="less" unicode="&#x3c;" 
d="M927 1074l-625 -359l625 -355v-167l-840 481v83l840 484v-167z" />
    <glyph glyph-name="equal" unicode="=" horiz-adv-x="2100" 
d="M1053 2211h11q5 0 14 -14v-960q14 -16 14 -29v-11q0 -13 -14 -29v-28q284 0 542 -237q218 -241 218 -520v-29q0 -404 -387 -660q-200 -104 -370 -104h-57q-349 0 -613 316q-151 211 -151 455v7q0 382 337 632q210 140 441 140v21q-27 0 -32 43q7 36 25 36q0 74 -57 136
q-15 -14 -29 -14h-11q-27 0 -39 40q7 46 43 46h4q30 0 50 -50q31 -20 43 -57h3v856q0 5 15 14zM1078 1093q0 -36 -14 -36h-11q-14 0 -15 29q-9 0 -21 -40q8 -53 47 -53q37 0 46 50q0 35 -32 50zM1110 828q0 -16 -7 -33l7 -3q9 21 15 21h17q8 -1 8 -7v-93q0 -7 -18 -7v-8h64
v8q-18 0 -18 7v93q1 7 8 7h17q9 0 11 -18h7v8l4 25l-18 -4h-79zM536 706v-8h43v8q-14 0 -14 7q9 29 14 29h25q15 -5 15 -33v-3h-11v-8h57v8q-21 0 -43 86q-5 0 -10 32h-4q-18 0 -47 -93q-9 -25 -25 -25zM712 824v-7q14 0 14 -7v-97q0 -7 -18 -7v-8h61v8q-14 0 -14 7v39
q1 7 7 7h15q10 0 10 -14h8v40h-8q0 -15 -10 -15h-15q-7 0 -7 7v29q1 7 7 7h22q2 0 18 -18h3v29h-93zM816 763v-4q8 -61 61 -61q72 0 72 61v4q0 57 -72 61q-61 -12 -61 -61zM963 824v-7q18 -1 18 -11v-79q0 -21 -18 -21v-8h50q-21 11 -21 36v51q1 7 7 7q48 -70 75 -94
q7 0 7 8v89q0 22 18 22v7h-46v-7q18 0 18 -40v-32h-4q-2 0 -64 79h-40zM1279 817q14 -6 14 -11v-93q0 -7 -14 -7v-8h61q46 5 46 36q0 17 -25 36q18 5 18 25q0 29 -50 29h-43q-7 -1 -7 -7zM1390 824v-7q24 0 47 -72v-32q0 -7 -15 -7v-8h61v8q-18 0 -18 7v32q25 72 51 72v7
h-43v-7q10 0 10 -7q-17 -43 -25 -43q-18 32 -18 43v7h7v7h-57zM870 813h14q32 0 32 -43v-28q0 -33 -28 -33h-7q-33 5 -33 40v25q0 28 22 39zM1325 813h15q5 0 11 -10v-22q-4 -11 -22 -11h-4q-7 0 -7 7v29q1 7 7 7zM594 785h3q7 -24 7 -33h-18l-7 4q9 29 15 29zM1329 763
q29 0 29 -32q-8 -22 -15 -22h-14q-11 4 -11 22v25q0 7 11 7zM576 408v-11h61q7 0 7 7q-22 5 -22 11q7 47 18 47h43q9 0 22 -51q-22 -4 -22 -10l7 -4h83v4q-29 15 -29 21l-57 169h-4q-25 0 -61 -126q-20 -57 -43 -57h-3zM1390 537v-4q0 -31 68 -68q15 -15 15 -28
q0 -29 -29 -29h-4q-27 0 -54 47l-7 -4q0 -57 50 -57h18q65 7 65 57q0 45 -68 72q-18 14 -18 32v4q0 4 18 18h21q9 0 33 -36h7v7q0 43 -25 43h-29q-61 -7 -61 -54zM339 580q25 -6 25 -14v-147q0 -5 -25 -18l7 -4h79q7 0 7 7q-25 7 -25 15v64q1 7 7 7h65q7 -1 7 -7v-64
q0 -4 -22 -18l8 -4h75q7 0 7 7q-25 9 -25 15v147q0 11 22 11v10h-87v-10q22 0 22 -11v-54q0 -7 -7 -7h-65q-7 0 -7 7v54q0 4 22 18l-8 3h-75q-7 -1 -7 -7zM795 584v-4q21 -14 21 -18v-140q0 -5 -25 -21v-4h82q8 0 8 7q-26 9 -26 15v53q2 8 8 8h10q38 -72 51 -72q0 -8 32 -11
h21q8 0 8 7q-33 0 -69 86q33 14 33 51q0 46 -79 46h-58zM1006 587v-3q22 -14 22 -18v-147q0 -9 -29 -15v-7h158l11 47l-8 3q-26 -36 -32 -36h-36q-18 0 -21 11v61q1 7 7 7h18q25 0 25 -25h11v65h-11q0 -19 -14 -25h-29q-7 0 -7 7v54q1 7 7 7h32q32 -6 32 -32h4q7 0 7 7
q-3 24 -3 39h-144zM1196 587v-3q22 -14 22 -18v-147q0 -9 -29 -15v-7h158l11 47l-7 3q-27 -36 -33 -36h-36q-18 0 -21 11v61q1 7 7 7h18q25 0 25 -25h11v65h-11q0 -19 -14 -25h-29q-7 0 -7 7v54q1 7 7 7h32q33 -6 33 -32h3q7 0 7 7q-3 24 -3 39h-144zM1548 580q25 -6 25 -14
v-147q0 -5 -25 -18l7 -4h79q7 0 7 7q-25 7 -25 15v64q1 7 7 7h65q7 -1 7 -7v-64q0 -4 -22 -18l8 -4h75q7 0 7 7q-25 9 -25 15v147q0 11 22 11v10h-87v-10q22 0 22 -11v-54q0 -7 -7 -7h-65q-7 0 -7 7v54q0 4 22 18l-8 3h-75q-7 -1 -7 -7zM863 573h18q25 -16 25 -40
q-3 -39 -33 -39h-10q-8 0 -8 7v65q2 7 8 7zM658 533h7l18 -53l-7 -4h-32v4q0 11 14 53zM888 218h3q24 7 33 7h3q61 -10 61 -54q-3 -6 -3 -14q6 3 32 7q95 -36 108 -36q0 5 25 25q7 0 7 -11q-36 -60 -36 -93h21q7 9 40 93l7 4h4q6 0 10 -18q-23 -42 -32 -79q29 -9 29 -18v-3
q0 -8 -7 -8q-12 4 -29 4l-4 -21v-47q0 -43 33 -43h7q57 73 57 151q0 140 -161 204q-36 7 -65 7q-79 0 -143 -57zM873 164v-7q0 -18 61 -90l4 -18q0 -54 -79 -68q-11 0 -29 7v-7q70 -136 194 -136h25q71 0 122 46q-30 0 -36 68q0 19 7 72h-10q-21 0 -25 -36q-39 -71 -76 -71
h-7q-19 0 -25 14v11q0 60 100 97q15 45 15 57q-12 0 -101 43h-3q-40 0 -40 -29q12 -28 54 -28q9 0 36 7l4 -7q-15 -15 -36 -15q-68 0 -68 51l-18 -4h-22q-7 0 -7 7v4q20 -4 29 -4q25 11 25 36q0 33 -29 47h-25q-33 0 -40 -47zM378 160q-7 0 -7 8v3q0 10 7 22h-7
q-5 0 -11 -11q0 -21 22 -36h4q28 0 28 43h7q8 -1 8 -7v-7l-8 -11v-4q15 6 15 11v4q0 19 -18 28h-15q-7 0 -17 -39zM848 175q-32 -65 -32 -122q0 -58 39 -58h15q36 0 43 47q0 22 -58 90q-3 11 -3 43h-4zM1612 85q0 4 -3 4v-29q18 0 46 -25l-3 -7h7q14 27 14 32l-7 -4
q-39 19 -43 29q0 6 15 14q39 -16 39 -32q4 0 22 32h-4l-7 -3q-33 14 -40 25v7q1 7 7 7h11q33 -14 33 -28q8 0 21 32h-4l-7 -4q-37 22 -46 22h-8q-11 0 -17 -40q-16 0 -22 -32h-4zM393 114q6 -33 32 -33h4v4q-18 0 -18 25v4q0 5 14 14h7q15 -27 15 -32h7q5 0 10 11v10
q0 21 -25 33h-10q-36 -7 -36 -36zM443 135h4q5 0 10 -10v-4q0 -7 -7 -7q-7 1 -14 18zM429 56q0 -32 28 -32h7v4q-17 0 -17 25q6 16 14 18q8 0 21 -33h8q10 4 10 22q0 16 -21 29h-18q-32 -5 -32 -33zM479 78h3q6 0 11 -11q0 -5 -11 -11q-8 0 -10 18zM547 71q-3 -15 -79 -65
q-7 4 -11 4q16 -28 25 -33q0 21 40 40q42 36 50 36q0 5 -21 18h-4zM1562 6v-14q17 -25 36 -25q36 9 36 39v14q-19 26 -32 26q-40 -8 -40 -40zM1017 -44q0 -18 21 -18q28 0 58 86h-7q-47 0 -72 -68zM1584 28q19 0 39 -25v-11q0 -7 -11 -7q-39 8 -39 35q0 8 11 8zM525 3l-3 -8
v-3l14 -4q7 4 11 4l7 -11q0 -6 -14 -14h-4q-19 14 -32 14h-4q-5 0 -10 -14l35 -47h11l-3 7v4q36 32 36 43q-14 29 -44 29zM1519 -48v-3q0 -20 22 -33h25q5 0 21 22v21h-3q0 -22 -29 -25q-16 6 -25 22v11q0 10 25 10v11q-7 0 -7 4q-29 -15 -29 -40zM518 -33h11v-8
q0 -5 -11 -10h-3q-7 0 -7 7q0 5 10 11zM637 -41q0 -15 -65 -78h-3q0 -5 21 -22h4q0 18 28 43h4q6 0 14 -14q-24 -36 -39 -36q8 -14 28 -25q0 19 29 50v11q0 4 -29 25q4 0 36 39v4q-11 3 -28 3zM1426 -51q0 -9 -11 -22v-3q18 0 72 -72v-4l-4 -7h4q29 23 29 25v4l-8 -4h-3
l-76 83h-3zM543 -80q0 -4 -3 -11q3 -14 14 -14q7 4 11 4v14q0 7 -7 7h-15zM1394 -98v-7q1 -7 7 -7h7q7 0 7 7v7q0 7 -7 7h-7q-7 -1 -7 -7zM1516 -105v-14q3 0 10 -4q11 3 15 14q-4 7 -4 11h-14q-7 -1 -7 -7zM1426 -116l-14 -25q35 -13 35 -47h4q29 21 29 26h-4q-7 -4 -11 -4
q-10 21 -39 50zM662 -145l7 -3l25 3q4 -6 4 -10q-6 -15 -11 -15q-13 8 -29 8h-7q-5 0 -11 -15q0 -15 33 -21q0 -18 21 -18h7v3q-11 0 -11 11q26 33 26 47q-10 18 -29 18h-18q-7 -1 -7 -8zM1358 -188v-3h7q7 0 11 29h7q5 0 11 -11v-7q-18 -19 -18 -33v-3q0 -8 18 -11
q20 18 43 29q3 7 3 10l-7 -3h-4q-26 43 -43 43q-28 -14 -28 -40zM730 -170q-6 -50 -32 -50v-3q35 -18 39 -18q-7 8 -7 14q15 32 25 36q7 0 7 -11h11q7 0 7 7v4l-25 14q4 0 4 4q-9 0 -29 3zM673 -170q5 0 10 -10l-14 -11q-7 0 -7 7v4q0 5 11 10zM1261 -220q-7 4 -11 4
q0 -17 -72 -22q-14 -15 -14 -29q6 -17 18 -17v-11q0 -7 -7 -7l14 -18q-7 -1 -7 -7v-11q4 -11 21 -11q51 6 51 39q-3 18 -11 18h-4q-18 0 -43 -7l-3 7q36 16 36 36q-4 7 -4 11q12 7 18 7q18 -33 18 -43q-4 -7 -4 -11q27 15 36 15v3q-20 0 -29 47l11 7h4q9 0 25 -47
q-4 0 -4 -3h4q20 11 29 11v3q-16 0 -29 47l11 7h3q11 0 25 -43q-3 -7 -3 -11q25 15 36 15v7l-8 -4q-29 54 -39 54q-38 -25 -57 -25q0 -5 -11 -11zM1394 -188h10l4 -18l-7 -3h-4q-7 0 -7 11q4 7 4 10zM960 -206q3 -10 7 -10q-6 -97 -22 -97v-4q40 0 40 -3v3l-8 11q3 47 15 47
q14 -4 14 -15q0 -32 -11 -46q24 0 36 -4v4l-7 10v4l4 43l-15 11h-10l-18 -4v22l3 36q-11 0 -28 -8zM762 -238q5 -32 33 -32h3l18 3v8q-7 -4 -11 -4q-15 5 -21 18v14q1 8 7 8q25 -15 36 -15l3 7v11q0 5 -18 18h-17q-28 0 -33 -36zM809 -206l7 -10v-7h-14q-7 0 -7 7v7
q1 0 14 3zM827 -263q0 -27 36 -32l21 7v7l-7 -3h-4q-19 0 -25 14v14q1 7 7 7q11 -7 36 -7l4 7q-8 26 -32 26q-29 0 -36 -40zM1042 -292q5 -53 54 -53q9 0 36 7v3l-25 -3h-4q-47 6 -47 43v3q6 58 54 58h4q36 -7 36 -36v-4q-6 -32 -29 -32l-4 7q15 37 15 47h-7
q-54 -22 -54 -58q7 -3 10 -3q4 0 22 14h4v-11h14q23 0 36 26v17q0 33 -47 40q-68 -11 -68 -65zM863 -231h7q7 -1 7 -7v-3q0 -8 -7 -8q-15 6 -15 11q2 7 8 7zM899 -259q0 -4 21 -29v-7q0 -7 -7 -7h-4q-14 7 -14 21h-4v-18q0 -11 33 -11q18 5 18 26q0 4 -22 28v4q1 7 7 7
q15 -7 15 -18h3v14q0 8 -7 8h-18q-19 0 -21 -18zM1193 -241h3q9 0 15 -33l-11 -7q-6 0 -14 14v18q1 8 7 8zM1110 -263l7 -4q-13 -32 -25 -35h-3v3q0 22 21 36zM1225 -310h4q5 0 10 -10v-4q0 -6 -14 -14h-14q-6 0 -15 14v4q3 10 29 10z" />
    <glyph glyph-name="greater" unicode="&#x3e;" 
d="M87 1241l840 -484v-83l-840 -481v167l625 355l-625 359v167z" />
    <glyph glyph-name="question" unicode="?" horiz-adv-x="1215" 
d="M630 2227h8q5 0 11 -11v-1044q11 -11 11 -21v-9q0 -10 -11 -22v-2q94 -10 189 -69q140 -109 140 -293q0 -136 -148 -290q-60 -78 -60 -162l8 -52q0 -39 -85 -54v-113h3q88 22 101 22q38 0 50 -63q38 -148 38 -164q0 -44 -101 -57q-84 -25 -137 -33q-38 0 -61 134
q-21 72 -21 96q0 38 76 52q0 7 14 16q0 36 -25 36q-35 0 -35 30v5q0 8 5 17h-3q-2 0 -16 -3q-32 0 -44 41q-11 55 -11 79v39q0 130 123 268q52 75 52 129q0 97 -76 156q-34 16 -63 16q-138 0 -184 -123q-5 -26 -8 -101q3 -10 3 -25q0 -41 -112 -57q-80 -25 -110 -25
q-41 0 -41 101q0 231 183 365q155 84 302 84h11q-11 12 -11 28q5 27 19 27q0 57 -44 104q-12 -11 -22 -11h-8q-21 0 -30 30q5 36 33 36h2q23 0 39 -38q23 -16 33 -44h2v964q0 5 11 11zM589 1019q0 -39 49 -46q42 8 42 49q-11 38 -31 38v-14q0 -4 -11 -10h-8q-4 0 -11 10v14
h-2q-28 -15 -28 -41zM630 302q12 -41 33 -41v16q0 4 11 11h8q5 0 11 -11v-14h3q25 15 25 39q-7 44 -41 44h-11q-29 0 -39 -44zM647 187q13 -16 13 -28v-5l-2 -14l5 -3v52zM693 20v-30q0 -4 -8 -9h-11q-11 0 -11 33q-14 -7 -19 -27q7 -36 49 -36q44 7 44 36q-9 33 -36 33h-8z
" />
    <glyph glyph-name="at" unicode="@" horiz-adv-x="1567" 
d="M785 2220h9q4 0 11 -11v-923q11 -12 11 -22v-9q0 -10 -11 -22v-31q1 -5 5 -5q265 0 441 -195q100 -137 100 -201q17 -13 25 -145v-3q0 -140 -58 -248q-79 -155 -204 -209q-36 -14 -64 -14h-8q-18 0 -84 31h-8q-19 0 -51 -59q-87 -86 -172 -86h-23q-157 0 -259 153
q-50 85 -58 204q0 172 58 267q116 179 287 179q49 0 123 -31h5q21 0 34 59q0 23 97 41h17q27 0 34 -172l36 -365q18 -34 36 -34h11q50 0 95 92q28 64 28 123q0 285 -237 423q-88 48 -198 48h-28q-196 0 -379 -148q-153 -157 -153 -329v-106q20 -139 72 -231q48 -90 142 -173
q147 -100 293 -100q203 0 374 114q114 92 156 167q43 53 119 53q15 0 20 -19q-14 -101 -162 -268q-173 -150 -362 -181q-24 -6 -106 -14q-293 0 -482 164q-117 107 -153 196q-84 145 -84 331q0 265 206 482q151 139 329 184q93 23 159 23v28q-21 0 -25 33q6 28 19 28
q0 57 -44 106q-12 -11 -22 -11h-9q-21 0 -30 30q5 37 33 37h3q23 0 39 -40q24 -15 33 -44h3v842q0 4 11 11zM743 1130q0 -40 51 -47q41 8 41 50q-10 39 -30 39v-14q0 -5 -11 -11h-9q-4 0 -11 11v14h-3q-28 -16 -28 -42zM568 453q0 -73 47 -145q49 -53 98 -53h30
q87 0 151 131q17 50 17 106v22q0 144 -126 187q-28 3 -44 3q-53 0 -115 -70q-58 -77 -58 -181z" />
    <glyph glyph-name="A" unicode="A" horiz-adv-x="1184" 
d="M582 2196h7q4 0 11 -10v-916q10 -11 10 -21v-8q0 -7 -5 -15h80q48 0 71 -97q137 -356 371 -994q20 -38 36 -106q0 -25 -41 -29q-26 0 -130 3q-39 -3 -52 -3q-50 0 -73 104q-52 155 -67 158q-12 13 -99 13h-296q-59 0 -73 -47q-66 -203 -85 -218q-28 -10 -52 -10h-68
q-12 0 -26 3q-9 -3 -23 -3h-18q-60 0 -60 26v10q0 20 231 616q78 216 205 545q22 29 52 29h65q-5 9 -5 20q5 26 18 26q0 55 -42 99q-4 -10 -18 -10h-15q-21 11 -21 28v5q0 22 29 29h5q24 0 31 -34q14 0 34 -44h2v841q0 4 11 10zM537 1098q8 -41 47 -41q30 0 39 41
q0 24 -23 39q0 -18 -11 -18h-7q-7 0 -13 21q-32 -15 -32 -42zM576 883q-24 -15 -41 -86q-101 -269 -101 -291q0 -31 49 -31q15 -2 70 -2h91q78 0 78 20v11q-13 68 -88 272q-31 107 -58 107z" />
    <glyph glyph-name="B" unicode="B" horiz-adv-x="1143" 
d="M333 2191h8q4 0 10 -11v-975q11 -11 11 -21v-8q0 -9 -8 -18v-3h3q451 -76 554 -106q58 -21 135 -73q67 -67 76 -127q11 -50 11 -61q0 -214 -166 -290q-16 -12 -16 -24q0 -19 55 -61q82 -89 82 -203v-11q0 -188 -145 -296q-111 -63 -217 -63h-39q-53 0 -72 8q-5 -3 -8 -3
q-535 98 -583 109q-24 12 -24 37v2q0 14 209 1157q15 24 39 24q17 0 53 -8l-3 13v3q6 26 19 26q0 56 -42 100q-5 -10 -19 -10h-16q-21 11 -21 29v5q0 22 29 29h6q24 0 31 -34q15 0 35 -45h2v898q0 4 11 11zM288 1031q8 -42 47 -42q31 0 40 42q0 24 -24 40q0 -19 -10 -19h-8
q-7 0 -13 21q-32 -14 -32 -42zM401 674q0 -32 24 -42q243 -50 291 -50q74 0 121 66q21 49 21 90q0 117 -185 148l-190 31q-55 0 -55 -87q-27 -118 -27 -156zM306 146q0 -44 169 -60q102 -24 156 -24h34q114 0 148 113q6 25 6 40v21q0 109 -114 151q-32 13 -298 60l-6 -2
l-10 2q-38 0 -48 -71q-37 -209 -37 -230z" />
    <glyph glyph-name="C" unicode="C" horiz-adv-x="1275" 
d="M590 2203h8q4 0 11 -11v-937q10 -11 10 -21v-9q0 -9 -10 -21v-19q67 3 70 5q250 0 422 -219q49 -84 49 -103v-8q0 -41 -222 -68h-3q-31 0 -62 57q-90 100 -230 100q-143 0 -249 -127q-68 -90 -68 -249v-16q0 -6 3 -11l-3 -6q15 -135 54 -222q33 -80 109 -154
q78 -76 224 -76q85 0 182 63q100 97 100 219q0 73 51 73q163 38 187 38q30 -9 30 -52v-46q0 -215 -162 -376q-189 -157 -423 -157q-297 0 -482 238q-76 103 -124 274q-22 111 -22 176v32q0 281 203 463q123 105 271 136q46 10 65 10v19q-21 0 -25 33q6 27 19 27
q0 57 -43 103q-4 -11 -19 -11h-16q-22 12 -22 30v5q0 22 30 30h5q25 0 33 -35q15 0 35 -46h3v858q0 4 11 11zM549 1077q8 -44 49 -44q31 0 40 44q0 24 -24 40h-5q0 -19 -11 -19h-8q-6 0 -14 19q-27 -15 -27 -40z" />
    <glyph glyph-name="D" unicode="D" horiz-adv-x="1205" 
d="M292 2207h8q4 0 11 -11v-939q11 -12 11 -22v-8q0 -9 -11 -21v-13q394 -59 464 -75l80 -27q85 -28 195 -136q57 -71 88 -141q43 -137 43 -200v-22q0 -413 -254 -616q-135 -96 -320 -96q-89 5 -243 32q-330 49 -371 64q-13 15 -13 27v10q0 14 45 305q128 830 136 867
q17 24 43 24l75 -11h2v3q-20 0 -24 32q6 26 19 26q0 57 -43 102q-4 -11 -18 -11h-16q-22 12 -22 29v6q0 22 30 29h5q25 0 32 -35q15 0 35 -45h2v862q0 4 11 11zM252 1089q8 -43 48 -43q31 0 40 43q0 24 -24 40h-5v-16q0 -5 -11 -11h-8q-4 0 -11 11v16h-2q-27 -15 -27 -40z
M290 192h-3q0 -38 69 -45q190 -30 230 -30q195 0 282 227q35 102 35 251q0 133 -99 235q-89 64 -125 64q-30 19 -237 43h-8q-40 0 -46 -75q-98 -622 -98 -656v-14z" />
    <glyph glyph-name="E" unicode="E" horiz-adv-x="1065" 
d="M279 2202h7q4 0 11 -10v-906q10 -11 10 -20v-8q0 -9 -10 -20v-23h2q697 -104 740 -119q13 -14 13 -31q-12 -177 -53 -177h-5q-11 0 -543 81h-17q-34 0 -41 -46q-23 -142 -23 -162v-5q0 -39 64 -46q420 -60 476 -76q18 -11 18 -35q-9 -160 -53 -160h-8l-492 76
q-56 0 -56 -76q-25 -138 -25 -175v-5q8 -43 91 -43q24 -5 502 -79q28 -14 28 -32v-8q-14 -170 -40 -170q-9 -5 -16 -5q-791 117 -841 132q-18 17 -18 35l172 1113q15 26 38 26q16 0 59 -8v13q-20 0 -23 30q5 25 18 25q0 54 -41 97q-4 -10 -18 -10h-15q-20 11 -20 28v5
q0 20 28 27h5q23 0 30 -32q14 0 33 -44h3v833q0 4 10 10zM241 1119q8 -41 45 -41q30 0 38 41q0 22 -22 38h-5q0 -18 -11 -18h-7q-6 0 -13 18q-25 -15 -25 -38z" />
    <glyph glyph-name="F" unicode="F" horiz-adv-x="874" 
d="M404 2224h8q4 0 10 -11v-931q11 -12 11 -21v-8q0 -10 -11 -21v-16q319 73 341 73q39 0 58 -139q8 -13 8 -36q-4 -45 -35 -45l-275 -65q-249 -48 -249 -69q-5 -17 -5 -23v-5q34 -182 55 -221q11 -10 26 -10h8q42 5 412 89q5 3 28 5q41 0 53 -92q13 -53 13 -65v-13
q0 -40 -129 -55q-249 -58 -338 -82q-18 -14 -18 -34v-5q0 -9 94 -430v-3q0 -45 -118 -57q-55 -16 -107 -24q-40 0 -50 87q-244 1060 -244 1080v3q0 39 121 55q33 10 322 73v18q-20 0 -23 32q5 26 18 26q0 56 -42 100q-4 -11 -18 -11h-16q-21 12 -21 29v5q0 22 29 29h5
q24 0 31 -34q15 0 35 -44h2v855q0 4 11 11zM364 1108q8 -41 48 -41q30 0 39 41q0 24 -24 40h-5q0 -19 -10 -19h-8q-6 0 -13 19q-27 -15 -27 -40z" />
    <glyph glyph-name="G" unicode="G" horiz-adv-x="1271" 
d="M618 2205h8q4 0 10 -10v-879q11 -11 11 -21v-8q0 -10 -11 -21v-26h3q126 0 274 -102q102 -90 133 -169l8 -26q0 -39 -123 -55q-43 -13 -91 -21q-30 0 -65 60q-83 86 -188 86q-168 0 -271 -146q-50 -80 -50 -219q8 -164 76 -290q69 -114 156 -154q66 -23 133 -23
q71 5 125 26q113 43 149 128q26 62 26 104v13q0 52 -34 52q-15 0 -190 -39h-31q-23 15 -37 84q-10 60 -10 70q0 43 93 55q344 81 373 81q38 0 55 -128q107 -453 107 -483v-2q0 -42 -133 -55q-30 0 -62 73q-12 13 -24 13h-5q-8 0 -63 -76q-74 -75 -138 -99q-60 -32 -198 -44
h-52q-224 0 -397 180q-90 102 -122 193q-24 53 -42 125q-16 70 -21 151v42q0 342 300 519q74 42 198 68q68 8 110 10v19q-20 0 -24 31q5 26 19 26q0 55 -42 99q-4 -10 -18 -10h-16q-21 11 -21 28v6q0 21 29 28h5q24 0 31 -34q15 0 34 -44h3v804q0 4 10 10zM579 1143
q8 -41 47 -41q30 0 39 41q0 24 -23 39h-6q0 -18 -10 -18h-8q-6 0 -13 18q-26 -14 -26 -39z" />
    <glyph glyph-name="H" unicode="H" horiz-adv-x="1155" 
d="M204 2219h8q4 0 11 -11v-1003q10 -11 10 -21v-9q0 -9 -10 -21v-24q121 0 121 -38q3 0 3 -8q-11 -283 -22 -396q0 -54 54 -54q345 -21 422 -21q44 0 44 91q13 369 24 369q13 19 46 19h53l19 -3v14q-20 0 -24 32q5 27 19 27q0 56 -43 102q-12 -10 -22 -10h-8q-20 0 -29 29
q5 35 32 35h3q22 0 37 -38q24 -15 33 -43h2v971q0 5 11 11h8q4 0 11 -11v-1049q11 -11 11 -21v-8q0 -10 -11 -22v-21h29q92 0 92 -38q-59 -1214 -67 -1214q-21 -18 -43 -19q-221 4 -221 32q-6 12 -6 35v3l22 455q0 38 -83 38q-334 18 -388 18q-46 0 -46 -86
q-16 -433 -29 -433q0 -19 -46 -19h-3q-207 5 -207 22q-11 14 -11 29v11q55 1193 65 1193q18 21 35 21q49 -3 83 -3v17q-21 0 -24 32q5 27 19 27q0 57 -43 102q-5 -11 -19 -11h-16q-22 12 -22 30v5q0 22 30 30h5q25 0 32 -35q15 0 35 -46h3v925q0 5 11 11zM163 1027
q9 -43 49 -43q31 0 40 43q0 25 -24 41h-5q0 -19 -11 -19h-8q-6 0 -14 19q-27 -15 -27 -41zM958 984q0 -39 48 -45q40 8 40 48q-7 35 -29 35q0 -19 -16 -19q-16 6 -16 22q-27 -15 -27 -41z" />
    <glyph glyph-name="I" unicode="I" horiz-adv-x="470" 
d="M260 2213h8q4 0 11 -10v-928q10 -11 10 -21v-8q0 -9 -8 -18h68q42 0 42 -70v-1103q0 -38 -34 -52q-12 0 -16 -3q-44 3 -68 3h-96q-54 0 -54 52v1069q0 21 -3 49q5 55 44 55h70q-7 10 -7 23q5 26 18 26q0 56 -42 99q-4 -10 -18 -10h-16q-20 11 -20 28v6q0 21 28 28h5
q24 0 32 -34q14 0 33 -44h3v853q0 4 10 10zM221 1103q8 -42 47 -42q30 0 39 42q0 23 -23 39h-5q0 -18 -11 -18h-8q-5 0 -13 18q-26 -15 -26 -39z" />
    <glyph glyph-name="J" unicode="J" horiz-adv-x="760" 
d="M345 2215h7q4 0 10 -10v-978q10 -11 10 -20v-15q47 15 63 15q34 0 73 -156q211 -638 219 -681q10 -71 10 -103q0 -149 -131 -246q-48 -40 -166 -83q-97 -18 -118 -18h-35q-160 0 -262 138q-75 135 -75 191q0 32 138 68q10 7 56 13q28 0 47 -81q52 -108 131 -108h10
q85 0 136 73q10 32 10 58q0 50 -106 362q-153 469 -153 480q0 37 103 60l2 5q-12 6 -12 25q5 25 17 25q0 54 -40 96q-4 -10 -17 -10h-15q-21 11 -21 27v5q0 21 28 28h5q23 0 30 -33q14 0 33 -42h2v905q0 3 11 10zM307 1061q8 -40 45 -40q29 0 38 40q0 23 -23 38h-5
q0 -18 -10 -18h-7q-6 0 -13 18q-25 -14 -25 -38z" />
    <glyph glyph-name="K" unicode="K" horiz-adv-x="1259" 
d="M424 2214h8q4 0 10 -10v-889q11 -11 11 -21v-8q0 -9 -11 -21v-10q118 -27 118 -60q0 -3 2 -8q-122 -398 -122 -407v-8q6 -15 23 -15q15 0 300 164q43 22 156 86q93 57 123 57q32 -4 258 -78q13 -10 13 -21v-5q-4 -18 -81 -52l-453 -242q-19 -21 -19 -34v-3
q0 -14 251 -793l2 -18q0 -15 -28 -18q-272 77 -272 91q-27 50 -80 253q-37 114 -105 342q-11 21 -31 21q-24 0 -164 -87q-14 0 -84 -237q-35 -128 -60 -128h-7q-33 0 -206 63q-16 12 -16 24v10q31 113 349 1116q13 15 37 15q4 0 47 -10l-3 18q5 26 18 26q0 56 -41 99
q-5 -10 -19 -10h-15q-21 11 -21 29v5q0 21 29 29h5q24 0 31 -34q15 0 34 -45h3v814q0 4 10 10zM385 1143q8 -42 47 -42q30 0 39 42q0 23 -23 39h-6q0 -18 -10 -18h-8q-6 0 -13 18q-26 -15 -26 -39z" />
    <glyph glyph-name="L" unicode="L" horiz-adv-x="913" 
d="M340 2209h8q5 0 11 -11v-892q11 -11 11 -21v-8q0 -10 -11 -22v-3q126 -16 126 -42l3 -14q-164 -880 -164 -892q-8 -38 -8 -67q0 -34 137 -49q29 -8 413 -77q40 -16 40 -38q-27 -168 -37 -180q-24 -13 -33 -13q-745 137 -812 153q-24 12 -24 43q196 1065 220 1174
q9 15 37 21l51 -8v3l-2 16q5 27 18 27q0 57 -43 102q-4 -11 -18 -11h-16q-22 11 -22 29v6q0 22 30 29h5q25 0 32 -35q15 0 35 -45h3v814q0 4 10 11zM300 1129q9 -43 48 -43q31 0 41 43q0 24 -24 40h-6q0 -18 -11 -18h-8q-5 0 -13 18q-27 -15 -27 -40z" />
    <glyph glyph-name="M" unicode="M" horiz-adv-x="1408" 
d="M150 2206h8q4 0 10 -11v-782q11 -11 11 -21v-8q0 -9 -11 -21q2 0 16 -3q250 -4 250 -23q15 -14 65 -203l174 -591q7 -8 18 -16q24 0 50 90q237 630 260 686q26 18 34 18l182 -8l-3 13v3q5 26 19 26q0 56 -42 100q-5 -11 -19 -11h-16q-21 12 -21 29v6q0 21 29 29h5
q25 0 32 -35q14 0 32 -39h2v8q0 58 -2 756l10 8h8l10 -8q3 -392 3 -412q0 -99 3 -436q10 -4 10 -19v-7l-2 -14q97 -1 97 -15q13 -11 13 -27q-50 -1145 -58 -1180q-17 -18 -37 -18q-207 0 -207 32l-3 10l32 702q-3 60 -11 60h-8q-27 -19 -84 -181q-210 -524 -234 -576
q-20 -21 -50 -21q-163 0 -163 24q-23 35 -81 255q-13 31 -139 462q-24 66 -35 66h-2q-24 0 -32 -323l-23 -436q-17 -24 -42 -24q-203 4 -203 26q-5 23 -5 29q50 1136 58 1167q10 17 37 24q2 0 2 -3l13 3h3l13 -3q-10 11 -10 26q5 27 18 27q0 55 -42 99q-4 -10 -18 -10h-16
q-21 11 -21 29v5q0 22 29 29h5q24 0 31 -34q15 0 35 -45h2v706q0 5 11 11zM110 1239q8 -42 48 -42q30 0 39 42q0 24 -24 40h-5q0 -18 -10 -18h-8q-6 0 -13 18q-27 -15 -27 -40zM1209 1179q8 -42 47 -42q30 0 40 42q0 24 -24 39h-3q0 -10 -13 -18q-15 0 -21 18
q-26 -14 -26 -39z" />
    <glyph glyph-name="N" unicode="N" horiz-adv-x="1169" 
d="M152 2211h8q4 0 11 -10v-988q10 -11 10 -21v-8q0 -9 -10 -20v-3q81 5 93 5q43 0 112 -114q23 -28 435 -602q23 -23 31 -23q16 5 16 21v16q0 24 -45 689v8q0 47 73 47q23 2 29 2v3q-24 15 -24 31v5q0 15 19 26q0 55 -42 99q0 -3 -13 -10h-13q-29 4 -29 29v5q0 21 29 28h5
q24 0 31 -33q14 0 32 -39h2v5l1 826q28 17 28 -7v-908q9 0 13 -21v-2q0 -15 -11 -26v-8q56 3 84 3q39 0 39 -86q73 -1077 73 -1106q0 -35 -146 -39q-44 0 -86 -6q-46 0 -114 115l-443 612q-11 10 -26 10q-9 -10 -13 -26q44 -653 44 -698v-5q0 -31 -18 -41q-30 -8 -192 -16
q-45 0 -45 122q-70 1044 -70 1065q0 41 104 41q-16 15 -16 32q6 26 19 26q0 55 -42 99q-4 -11 -18 -11h-16q-21 11 -21 29v5q0 21 29 29h5q24 0 31 -34q15 0 34 -45h3v913q0 4 10 10zM886 1101q0 -32 44 -42q45 7 45 42q-5 37 -29 37q-5 -16 -10 -16h-11q-4 0 -13 18
q-26 -14 -26 -39zM113 1041q8 -41 47 -41q30 0 39 41q0 24 -23 39h-5q0 -18 -11 -18h-8q-5 0 -13 18q-26 -14 -26 -39z" />
    <glyph glyph-name="O" unicode="O" horiz-adv-x="1249" 
d="M579 2206h8q4 0 11 -11v-897q10 -11 10 -21v-8q0 -10 -10 -22v-8h47q227 0 407 -170q94 -104 125 -191q55 -147 55 -265q3 0 3 -16q0 -378 -271 -569q-163 -98 -340 -98q-320 0 -504 244q-82 113 -115 316q0 4 -2 38q0 2 2 16q-5 19 -5 39q0 15 5 30q0 2 -2 16
q0 82 50 241q29 70 93 160q112 120 207 156q38 24 162 48q45 5 53 5v3q-20 0 -24 32q6 26 19 26q0 57 -42 101q-5 -10 -19 -10h-16q-21 11 -21 29v5q0 22 29 29h5q25 0 32 -34q15 0 35 -45h2v820q0 4 11 11zM539 1128q0 -39 48 -45q40 8 40 47q-10 38 -29 38v-14
q0 -4 -11 -10h-8q-4 0 -11 10v14h-2q-27 -15 -27 -40zM274 586q2 -125 47 -236q35 -74 91 -123q97 -66 188 -66h45q78 0 178 66q74 71 107 160q21 62 31 191q-6 96 -29 194q-29 78 -71 133q-93 106 -247 106q-171 0 -269 -146q-48 -83 -63 -189q-3 -52 -8 -90z" />
    <glyph glyph-name="P" unicode="P" horiz-adv-x="1023" 
d="M201 2208h8q4 0 10 -10v-966q11 -11 11 -21v-8q0 -9 -11 -20v-11q451 -46 474 -54q59 -14 143 -54q168 -114 168 -314q0 -249 -194 -360q-87 -44 -223 -44l-290 31q-49 0 -49 -93l-36 -308q-18 -26 -50 -26q-202 22 -202 34q-10 14 -10 23q3 58 124 1145q11 31 44 31
q23 0 65 -5q-15 14 -15 31q5 25 18 25q0 55 -42 99q-4 -10 -18 -10h-15q-21 11 -21 28v5q0 22 28 29h6q23 0 31 -34q14 0 33 -44h3v891q0 4 10 10zM162 1066q0 -37 47 -44q39 8 39 47q-10 36 -29 36v-13q0 -4 -10 -10h-8q-4 0 -10 10v13h-3q-26 -15 -26 -39zM287 621
q0 -47 129 -47q61 -10 166 -10q131 0 160 145q3 15 3 41v5q0 114 -122 156q-150 36 -269 36h-3q-32 0 -36 -57q-28 -222 -28 -269z" />
    <glyph glyph-name="Q" unicode="Q" horiz-adv-x="1139" 
d="M559 2206h8q4 0 9 -10v-938q10 -11 10 -20v-7q0 -9 -10 -20v-7q137 -9 276 -78q171 -105 233 -285q32 -98 32 -180v-17q0 -325 -229 -533q-5 -8 -5 -15v-7q0 -20 73 -115q10 -22 10 -26q0 -29 -107 -86l-15 -2q-19 3 -80 90q-41 66 -71 66q-35 -10 -114 -17
q-227 0 -407 131q-192 164 -192 451q0 102 54 260q29 66 65 122q169 241 451 241v2q-19 0 -22 30q5 24 17 24q0 52 -39 92q-4 -9 -17 -9h-15q-19 10 -19 27v4q0 20 27 27h4q23 0 30 -31q13 0 31 -42h3v868q0 4 9 10zM523 1102q0 -35 44 -42q36 8 36 44q-9 34 -27 34v-12
q0 -4 -9 -10h-8q-3 0 -9 10v12h-3q-24 -13 -24 -36zM231 576v-59q0 -117 83 -216q72 -66 165 -83l46 -7q25 6 25 14v12q0 10 -42 73q-5 8 -5 15q0 24 81 76q4 8 31 14h10q21 0 78 -88q16 -19 29 -19h10q47 35 76 102q51 125 51 246q0 228 -176 307q-66 27 -129 27h-14
q-159 0 -258 -185q-56 -126 -56 -200q-5 0 -5 -29z" />
    <glyph glyph-name="R" unicode="R" horiz-adv-x="1074" 
d="M522 2209h8q4 0 10 -10v-914q10 -11 10 -20v-8q0 -9 -10 -21v-20q77 7 113 7q267 0 343 -260l8 -54q0 -150 -57 -219l-75 -78l-2 -15q0 -3 77 -59q60 -60 88 -199q23 -191 49 -242q5 -21 5 -26v-3q0 -33 -88 -33q-85 -8 -126 -8q-43 0 -57 83q-29 157 -54 252
q-52 98 -88 98q-39 16 -85 16q-283 -15 -283 -34q-11 -18 -11 -33q31 -319 31 -403q0 -36 -110 -36q0 -2 -109 -10q-46 0 -46 70q-93 1088 -93 1103q0 44 116 44q17 3 425 36v18q-19 0 -23 31q5 26 18 26q0 55 -41 98q-4 -10 -18 -10h-15q-21 11 -21 28v5q0 21 28 28h5
q24 0 31 -33q15 0 34 -44h2v839q0 4 11 10zM483 1120q0 -37 47 -44q38 9 38 47q-10 36 -28 36v-13q0 -4 -10 -10h-8q-4 0 -11 10v13h-2q-26 -15 -26 -39zM254 948q20 -287 31 -287q14 -15 59 -15q327 24 327 51q70 32 70 140q0 127 -108 167q-31 5 -47 5q-325 -16 -325 -36
q-7 -13 -7 -25z" />
    <glyph glyph-name="S" unicode="S" horiz-adv-x="1065" 
d="M467 2228h8q4 0 11 -11v-788q11 -12 11 -22v-8q0 -10 -11 -22v-19h11q351 0 472 -244q30 -78 30 -114v-3q0 -49 -54 -49h-163q-55 4 -55 44q-33 90 -81 111q-55 38 -160 38h-22q-132 0 -174 -108q-5 -25 -5 -36v-16q0 -87 206 -133q24 -11 242 -62q110 -30 184 -93
q128 -100 128 -263q0 -237 -228 -350q-125 -60 -307 -60q-153 0 -298 62q-71 30 -158 120q-70 95 -84 217v16q0 34 54 38h169q46 0 54 -68q35 -95 111 -133q86 -38 171 -38q113 0 204 66q41 58 41 95q0 130 -272 184q-208 50 -326 109q-165 101 -165 293q0 159 149 280
q77 62 201 84q0 3 92 13q0 -2 3 -2v16q-21 0 -25 32q6 28 19 28q0 57 -43 103q-4 -11 -19 -11h-16q-22 12 -22 30v5q0 23 30 30h5q25 0 33 -35q15 0 35 -46h3v709q0 4 11 11zM426 1255q0 -39 49 -46q41 9 41 49q-11 38 -30 38v-14q0 -4 -11 -11h-8q-4 0 -11 11v14h-3
q-27 -15 -27 -41z" />
    <glyph glyph-name="T" unicode="T" horiz-adv-x="1025" 
d="M495 2212h8q4 0 10 -11v-938q10 -11 10 -21v-8q0 -9 -10 -21v-15h448q52 0 52 -47q3 -19 3 -53v-75q0 -50 -52 -50h-203q-105 0 -105 -18q-10 0 -10 -88v-827q0 -65 -24 -65q0 -5 -31 -5h-156q-58 0 -58 47v860q0 21 -2 49l2 6q-9 39 -49 39q-29 2 -76 2h-104
q-36 0 -94 -2q-44 5 -44 44v128q0 55 42 55h432v10q-20 0 -23 31q5 26 18 26q0 56 -42 99q-4 -10 -18 -10h-15q-21 11 -21 29v5q0 21 28 28h6q24 0 31 -33q14 0 34 -45h2v863q0 4 11 11zM456 1096q0 -38 47 -44q39 8 39 46q-10 37 -29 37v-13q0 -4 -10 -10h-8q-4 0 -11 10
v13h-2q-26 -15 -26 -39z" />
    <glyph glyph-name="U" unicode="U" horiz-adv-x="1120" 
d="M191 2213h7q4 0 11 -10v-933q10 -11 10 -21v-8q0 -9 -10 -20q129 -7 129 -39q2 -14 2 -15l-72 -743v-23q0 -159 119 -208q72 -29 128 -29h16q143 0 188 75q24 25 44 108q18 143 82 778q12 26 41 26q61 -5 67 -5q-10 14 -10 23v5q0 13 23 31v998q0 4 11 10h7q4 0 11 -10
v-908q24 19 33 44q11 10 26 10q28 -4 28 -28v-5q0 -17 -20 -28h-13q-10 0 -23 10q-31 -40 -31 -64v-37q10 -13 10 -23v-13l-10 -15v-5q113 0 113 -52q-70 -707 -90 -824q-62 -165 -126 -212q-118 -113 -335 -113q-414 16 -516 258q-41 104 -41 188v13q0 53 80 806
q16 23 39 23q35 -2 43 -2q-5 9 -5 20q5 26 18 26q0 55 -41 98q-4 -10 -18 -10h-16q-20 11 -20 28v5q0 22 28 29h5q24 0 31 -34q15 0 34 -44h2v859q0 4 11 10zM152 1105q0 -38 46 -44q39 8 39 46q-10 36 -28 36v-13q0 -4 -11 -10h-7q-4 0 -11 10v13h-2q-26 -14 -26 -38z
M938 1030q8 -41 46 -41q30 0 39 41q0 23 -23 39h-5q0 -21 -11 -21h-7q-7 0 -13 21q-26 -15 -26 -39z" />
    <glyph glyph-name="V" unicode="V" horiz-adv-x="1106" 
d="M945 2220h8q4 0 11 -11v-767q8 -10 8 -18v-8q0 -9 -8 -19v-13q13 0 92 8q35 -7 35 -32q-257 -1161 -278 -1222q-20 -32 -129 -32q-124 -16 -151 -16q-39 0 -66 87q-253 573 -467 1070v15q0 31 85 35q8 0 50 2v8q-24 15 -24 32v5q0 15 18 27q0 54 -42 100h-2
q-5 -10 -19 -10h-8q-20 0 -29 29q5 34 32 34q34 -3 34 -34q16 0 37 -45h3v762q0 4 10 10h8q4 0 11 -10v-839q10 -14 10 -24v-2q0 -16 -10 -27v-10h2q20 0 61 5q43 0 69 -85q8 -12 301 -694q15 -16 24 -16q24 0 52 180q35 142 135 620q14 58 58 58q52 6 69 6v5q-27 14 -27 37
q6 26 19 26q0 56 -42 101q-5 -11 -19 -11h-16q-21 11 -21 29v5q0 22 29 29h6q24 0 31 -34q37 -29 37 -50h3v693q0 5 10 11zM903 1276q9 -45 45 -45q39 0 45 47q-10 37 -29 37v-13q0 -4 -11 -10h-8q-10 0 -10 26q-32 -15 -32 -42zM106 1196q8 -42 47 -42q31 0 40 42
q0 24 -24 40h-5q0 -21 -11 -21h-8q-6 0 -13 21q-26 -15 -26 -40z" />
    <glyph glyph-name="W" unicode="W" horiz-adv-x="1653" 
d="M1481 2216h8q5 0 11 -11v-929q11 -14 11 -24v-3q0 -16 -11 -27v-8h85q54 0 54 -30v-11q-8 -47 -133 -509q-76 -277 -120 -451q-13 -34 -54 -196q-22 -79 -41 -79q0 -8 -68 -8h-57q-136 0 -136 19q-27 68 -76 288q-30 110 -66 259q-38 160 -65 242q-2 0 -16 5
q-24 0 -71 -236q-14 -43 -109 -436q-26 -136 -57 -136q-14 -5 -49 -5h-149q-79 0 -79 65q-44 150 -261 985q-52 175 -52 198v3q0 33 68 33h54q-13 13 -13 30q5 27 19 27q0 56 -44 103q-11 -11 -21 -11h-9q-20 0 -30 30q6 36 33 36h3q23 0 38 -39q24 -15 33 -43h2v852
q0 5 11 11h8q5 0 11 -11v-931q11 -11 11 -22v-8q0 -10 -11 -22v-2h57q38 0 55 -30q57 -245 76 -313q0 -12 52 -228q41 -191 62 -234l11 -8q23 0 57 163q14 40 71 277q16 46 81 316q17 57 57 57h164q70 0 70 -63l185 -729q7 -30 25 -30h2q20 0 63 212q16 56 84 349
q55 247 68 247q21 14 71 14h16q-24 15 -24 32v6q0 15 19 27q0 55 -44 103h-2q-5 -11 -19 -11h-8q-21 0 -30 30q5 36 32 36q36 -4 36 -36q16 0 38 -46h2v850q0 4 11 11zM1440 1099q9 -43 49 -43q32 0 41 43q0 25 -24 41h-6q0 -22 -11 -22h-8q-6 0 -13 22q-28 -15 -28 -41z
M83 1094q0 -39 49 -46q41 8 41 49q-7 35 -30 35q0 -19 -11 -19h-8q-7 0 -13 22q-28 -15 -28 -41z" />
    <glyph glyph-name="X" unicode="X" horiz-adv-x="1345" 
d="M681 2220h7q4 0 10 -10v-1068q10 -11 10 -19v-8q0 -9 -10 -20v-2q83 45 102 49h11q14 -10 14 -17l-59 -602q0 -33 138 -92l461 -258q0 -4 6 -12q0 -24 -131 -83q-77 -47 -104 -51q-31 2 -164 85q-216 123 -223 123h-10q-23 0 -28 -135q-18 -163 -27 -295q0 -31 -133 -91
q-73 -44 -93 -44q-22 7 -22 29l66 639q0 42 -78 75q-3 4 -457 247q-14 12 -17 23q0 23 98 65q106 62 122 62h19q27 -11 299 -172q26 -17 41 -17h11q22 0 31 218q14 197 30 197l70 45v10q-18 0 -21 29q4 24 17 24q0 50 -40 93q-10 -10 -19 -10h-7q-19 0 -27 27q4 32 29 32h2
q21 0 34 -34q21 -14 30 -40h2v998q0 5 10 10zM644 985q0 -35 44 -42q38 9 38 45q-10 34 -28 34v-12q0 -4 -10 -10h-7q-4 0 -10 10v12h-2q-25 -14 -25 -37z" />
    <glyph glyph-name="Y" unicode="Y" horiz-adv-x="1062" 
d="M141 2221h8q4 0 10 -10v-940q11 -12 11 -21v-8q0 -10 -11 -21v-21q131 -20 131 -84l123 -457l16 -11h15q10 1 238 220q132 131 149 131l21 5q202 -53 235 -73l6 -8v-8q0 -23 -186 -186q-183 -175 -423 -397q-28 -50 -97 -313q-35 -134 -52 -134q-9 -5 -16 -5h-3
q-32 0 -209 60q-13 16 -13 26q0 12 115 421v21q-7 55 -115 442q-65 237 -94 363q0 21 29 24q28 -6 102 -27v6q-20 0 -24 31q5 26 18 26q0 54 -41 99q-11 -10 -21 -10h-8q-20 0 -29 29q5 34 32 34h2q22 0 37 -37q22 -15 31 -42h3v865q0 4 10 10zM102 1103q0 -37 47 -44
q39 8 39 47q-10 36 -29 36v-13q0 -4 -10 -10h-8q-4 0 -10 10v13h-3q-26 -14 -26 -39z" />
    <glyph glyph-name="Z" unicode="Z" horiz-adv-x="1103" 
d="M705 2201h8q4 0 10 -11v-923q11 -11 11 -22v-8q0 -9 -11 -21v-14q204 14 229 14q37 0 43 -49q3 -59 8 -91q0 -3 -3 -8q3 -15 3 -24v-3q0 -54 -40 -97l-549 -753l-3 -16v-13q0 -10 43 -14l579 38q48 0 48 -81q5 -46 5 -113q0 -43 -102 -43q-889 -59 -925 -59
q-40 13 -40 62v3q0 22 -6 126q0 40 78 132q47 67 251 344q247 336 258 358q8 13 8 18q0 25 -38 25l-511 -33h-11q-45 0 -45 121q-3 61 -3 76q0 40 113 40q476 32 581 38v10q-21 0 -24 33q5 27 18 27q0 55 -43 102q-11 -11 -21 -11h-8q-20 0 -30 30q6 35 33 35h2q23 0 38 -38
q23 -15 32 -43h3v845q0 4 11 11zM664 1095q0 -39 49 -46q40 9 40 48q-10 38 -30 38v-13q0 -4 -10 -11h-8q-5 0 -11 11v13h-3q-27 -15 -27 -40z" />
    <glyph glyph-name="bracketleft" unicode="[" horiz-adv-x="758" 
 />
    <glyph glyph-name="backslash" unicode="\" horiz-adv-x="569" 
 />
    <glyph glyph-name="bracketright" unicode="]" horiz-adv-x="758" 
 />
    <glyph glyph-name="asciicircum" unicode="^" 
 />
    <glyph glyph-name="underscore" unicode="_" horiz-adv-x="1024" 
d="M0 -100h1024v-60h-1024v60z" />
    <glyph glyph-name="grave" unicode="`" horiz-adv-x="1024" 
d="M673 1079h-69l-330 202q-31 20 -46.5 40t-15.5 42q0 31 20.5 51t53.5 20q20 0 40.5 -12t55.5 -47z" />
    <glyph glyph-name="a" unicode="a" horiz-adv-x="922" 
d="M618 2216h7q4 0 11 -10v-1207q10 -11 10 -21v-8q0 -9 -10 -20v-3q78 -22 127 -106q28 -89 117 -553q41 -121 41 -130q0 -30 -132 -46q-25 -11 -62 -11q-20 0 -60 39h-18q-147 -140 -351 -140h-15q-86 0 -166 70q-75 95 -75 189q0 200 275 278q101 34 179 68q54 38 54 72
q0 82 -70 112q-23 5 -34 5h-23q-81 0 -145 -49q-32 -25 -47 -107q0 -22 -200 -52q-26 0 -31 37q0 186 200 277q159 68 314 68q17 0 72 -5l-2 5v8q5 26 18 26q0 53 -42 98q-10 -10 -20 -10h-8q-20 0 -29 28q6 34 32 34h2q22 0 36 -36q23 -15 32 -42h2v1132q0 4 11 10z
M579 833q0 -38 46 -44q39 8 39 46q-10 37 -28 37v-13q0 -4 -11 -11h-7q-5 0 -11 11v13h-2q-26 -15 -26 -39zM283 306v-15q12 -109 93 -109q0 -3 24 -3h26q77 0 153 70q33 57 33 104q0 84 -26 127q-10 5 -18 5q-168 -59 -233 -96q-52 -48 -52 -83z" />
    <glyph glyph-name="b" unicode="b" horiz-adv-x="1004" 
d="M455 2216h7q4 0 10 -11v-949q11 -11 11 -20v-8q0 -9 -8 -18v-3q112 -26 112 -63v-3q0 -9 -76 -230q-31 -87 -31 -115v-2q5 -13 20 -13q91 26 141 26h20q69 0 166 -49q107 -67 151 -202q13 -50 18 -107q0 -209 -133 -398q-132 -151 -273 -151q-169 0 -296 128
q-39 60 -54 64q-9 0 -41 -46l-13 -3h-10q-173 46 -173 69l-3 13q0 16 355 1070q18 38 41 38q7 -3 25 -3q4 28 18 28q0 53 -41 98q-10 -11 -20 -11h-8q-19 0 -28 28q5 34 31 34h2q22 0 36 -36q22 -15 31 -41h2v875q0 4 11 11zM416 1093q0 -37 46 -44q38 8 38 46q-9 36 -28 36
v-13q0 -4 -10 -10h-7q-4 0 -11 10v13h-2q-26 -15 -26 -38zM324 337v-26q0 -138 105 -189q0 -10 89 -20q110 0 200 166q28 67 40 163v3q0 105 -69 176q-53 34 -99 41h-28q-132 0 -217 -205q-21 -76 -21 -109z" />
    <glyph glyph-name="c" unicode="c" horiz-adv-x="905" 
d="M497 2217h8q4 0 11 -11v-1031q19 15 36 47q10 8 19 8h5q29 -4 29 -29v-13q-11 -21 -26 -21h-8q-10 0 -24 10q-31 -40 -31 -65v-37q10 -11 10 -21v-7q0 -10 -10 -21v-8q76 0 186 -66q89 -68 112 -144v-10q0 -32 -125 -55q-46 -16 -66 -16q-30 0 -52 39q-55 61 -123 61
q-137 0 -191 -121q-19 -49 -19 -89q0 -228 149 -338q49 -20 76 -20q158 0 202 143q5 95 34 95q132 42 168 42h5q26 -15 26 -42q0 -279 -257 -385q-98 -42 -212 -42q-147 0 -275 110q-80 82 -102 144q-52 96 -52 277v11q0 88 76 215q86 118 249 167q79 24 162 24v2
q-18 0 -24 27v5q6 29 24 29v1125q0 4 10 11zM458 908q0 -38 47 -45q40 8 40 47q-10 37 -29 37v-13q0 -4 -11 -11h-8q-4 0 -10 11v13h-3q-26 -15 -26 -39z" />
    <glyph glyph-name="d" unicode="d" horiz-adv-x="978" 
d="M590 2220h8q4 0 10 -11v-824q19 15 36 46q10 8 18 8h5q29 -4 29 -28v-13q-11 -20 -26 -20h-8q-9 0 -23 10q-31 -40 -31 -64v-36q11 -11 11 -21v-8l-3 -12l46 7q35 0 59 -131q262 -976 262 -995v-13q0 -35 -182 -70q-25 0 -46 47q-12 7 -16 7q-18 -6 -46 -51
q-59 -70 -177 -103q-29 -7 -80 -15q-312 0 -421 380q-15 66 -15 149v2q0 218 182 337q101 47 167 48q99 0 169 -36l16 -2q5 0 15 13q0 27 -84 346v8q0 29 35 41q9 0 72 18q-15 15 -15 25v6q6 28 23 28v916q0 4 10 11zM552 1123q0 -37 46 -43q39 8 39 46q-10 36 -29 36v-13
q0 -4 -10 -10h-8q-4 0 -10 10v13h-3q-25 -14 -25 -39zM239 474q0 -215 143 -318q57 -28 98 -28q135 0 187 138q11 59 11 64q0 121 -72 260q-74 92 -149 92h-16q-131 0 -187 -115q-15 -54 -15 -93z" />
    <glyph glyph-name="e" unicode="e" horiz-adv-x="938" 
d="M483 2217h8q4 0 11 -11v-1062q20 15 38 48q9 8 18 8h6q29 -4 29 -29v-14q-11 -21 -26 -21h-9q-9 0 -24 11q-32 -42 -32 -68v-38q11 -11 11 -21v-8q0 -10 -11 -22v-19q91 0 210 -73q107 -90 149 -180q25 -34 51 -143v-6q0 -39 -151 -67q-407 -108 -453 -124
q-14 -15 -14 -33v-8q30 -84 94 -121q43 -22 71 -22h18q159 0 232 132q24 62 79 62q59 19 105 27q35 0 35 -35q0 -80 -70 -194q-83 -112 -235 -156q-82 -30 -181 -30q-103 10 -159 35q-149 69 -218 213q-62 118 -62 265v8q0 6 -3 10q12 135 84 243q88 128 253 178
q76 22 135 22v11q-18 0 -24 27v5q6 30 24 30v1159q0 4 11 11zM442 869q0 -39 49 -46q40 8 40 48q-10 38 -29 38v-13q0 -5 -11 -11h-8q-4 0 -11 11v13h-3q-27 -15 -27 -40zM235 583q0 -29 24 -43h13q34 0 332 86q14 14 14 24v8q0 41 -84 100q-40 22 -81 22q-130 0 -199 -114
q-19 -49 -19 -83z" />
    <glyph glyph-name="f" unicode="f" horiz-adv-x="634" 
d="M279 2222h8q4 0 10 -10v-1010q20 15 38 48q10 8 19 8h5q29 -4 29 -29v-14q-11 -21 -26 -21h-8q-10 0 -25 11q-32 -42 -32 -67v-38q11 -11 11 -21v-8q0 -10 -11 -22v-10q74 34 158 34l11 -2q3 0 8 2q139 -6 139 -42q0 -2 3 -16q-4 -129 -24 -129q-1 -5 -16 -8q-66 3 -72 3
q-86 -9 -86 -75q-5 0 -6 -27v-8q0 -48 75 -48q89 0 89 -43q3 -23 3 -35q-3 -32 -9 -43l3 -5q-8 -43 -43 -43q-77 3 -99 3q-40 -12 -40 -57q-37 -669 -54 -669q-20 -11 -40 -11q-182 8 -182 21q-16 13 -16 35q43 616 43 659t-51 48h-32q-51 0 -59 43v6q0 115 35 115q0 4 19 5
h5q25 0 62 -3q42 0 42 73q0 68 67 168l38 33v21q-18 0 -24 27v5q6 30 24 30v1106q0 4 11 10zM238 929q0 -39 49 -46q40 9 40 48q-10 38 -30 38v-13q0 -5 -10 -11h-8q-5 0 -11 11v13h-3q-27 -15 -27 -40z" />
    <glyph glyph-name="g" unicode="g" horiz-adv-x="1128" 
d="M447 2220h9q4 0 11 -11v-1059q21 16 39 51q11 9 20 9h6q31 -5 31 -31v-14q-12 -23 -29 -23h-8q-10 0 -25 11q-34 -43 -34 -70v-40q11 -11 11 -22v-9q0 -10 -11 -22v-9q15 6 59 6h31q58 0 172 -48q84 -45 138 -149q11 -8 17 -8q15 0 42 45q12 11 22 11h9q194 -51 194 -79
v-11q0 -31 -228 -701q-52 -185 -107 -265q-115 -152 -301 -152h-9q-178 0 -363 104q-183 129 -183 293q0 47 37 53h8q31 0 186 -59q21 -14 45 -98q39 -68 155 -104q10 0 59 -6q85 0 155 93q50 93 50 155l-11 8h-14q-91 -34 -141 -34q-214 0 -349 181q-59 104 -59 214
q0 151 76 307q84 155 217 216q18 12 62 23v8q-19 0 -26 28v6q7 31 26 31v1160q0 4 11 11zM405 863q0 -40 51 -48q42 9 42 51q-11 39 -31 39v-14q0 -4 -11 -11h-9q-4 0 -11 11v14h-3q-28 -15 -28 -42zM346 432v-5q0 -170 163 -209q35 -5 42 -5q180 0 248 256q6 48 6 65v20
q0 158 -158 208q-38 6 -48 6h-22q-97 0 -181 -136q-50 -106 -50 -200z" />
    <glyph glyph-name="h" unicode="h" horiz-adv-x="1003" 
d="M474 2213h8q4 0 11 -11v-731q20 16 39 50q10 8 19 8h5q31 -4 31 -30v-14q-12 -22 -28 -22h-8q-10 0 -25 11q-33 -42 -33 -69v-38q11 -12 11 -22v-8q0 -10 -11 -22v-20q129 -37 129 -58q3 -4 3 -11v-11q0 -13 -115 -363v-14q0 -22 19 -22q6 0 77 28q38 11 96 16
q134 0 267 -113q75 -73 75 -195q0 -94 -105 -378q-91 -285 -104 -322q-20 -19 -34 -22q-203 56 -203 80q-6 14 -6 22q152 459 171 542q8 20 8 56v8q0 101 -118 140q-36 9 -47 9h-22q-117 0 -171 -141q-27 -55 -165 -485q-17 -33 -36 -33h-19q-193 54 -193 83v8
q39 131 297 912l89 267q16 17 35 17q14 0 33 -6q-16 17 -16 28v5q6 30 25 30v830q0 4 11 11zM457 1309v-3h6v3h-6zM432 1191q0 -40 50 -47q41 8 41 49q-10 39 -30 39v-14q0 -4 -11 -11h-8q-5 0 -11 11v14h-3q-28 -16 -28 -41z" />
    <glyph glyph-name="i" unicode="i" horiz-adv-x="332" 
d="M127 2211h8q4 0 11 -11v-713q21 16 39 50q10 8 19 8h6q30 -4 30 -30v-14q-11 -22 -27 -22h-9q-10 0 -25 11q-33 -43 -33 -70v-38q11 -12 11 -23v-8q0 -10 -11 -22v-22h67q55 0 55 -61v-106q0 -44 -55 -44h-64v-117q8 -10 8 -19v-14h61q50 0 50 -55v-830q0 -61 -50 -61
h-147q-61 0 -61 55v844q0 47 58 47h22v11q0 16 20 31q0 36 -25 36q-36 0 -36 30v6q0 23 30 30h6q30 -4 30 -30v-6l-2 -14l5 -2v58h-53q-55 0 -55 55v100q0 46 36 56h69v16q-18 0 -25 28v6q7 30 25 30v813q0 4 12 11zM85 1204q11 -44 33 -44v19q0 4 11 11h9q4 0 11 -11v-17h2
q25 14 25 45q-10 39 -30 39v-14q0 -5 -11 -11h-8q-5 0 -12 11v14h-2q-28 -16 -28 -42zM88 852q8 -45 50 -45q32 0 41 45q0 25 -25 41h-5q0 -14 -9 -14h-11q-2 0 -14 14q-27 -15 -27 -41z" />
    <glyph glyph-name="j" unicode="j" horiz-adv-x="444" 
d="M190 2250h8q5 0 11 -11v-818q21 15 39 49q10 8 19 8h6q30 -4 30 -30v-14q-11 -22 -28 -22h-8q-10 0 -25 11q-33 -42 -33 -68v-39q11 -12 11 -22v-8q0 -10 -11 -22v-22l64 5q47 0 47 -124q0 -8 2 -19q0 -69 -49 -69q-31 -3 -58 -3l-3 -5v-110q8 -10 8 -20v-11h3l39 3
l19 -3l5 3q58 0 58 -107q58 -882 58 -951q0 -150 -179 -209q-30 -8 -151 -22q-66 0 -66 69q-6 50 -6 85v9q0 49 55 49q50 0 83 58l5 27l-3 14q0 4 3 28q-60 856 -60 900q0 36 66 42h8l-3 5v9q0 16 20 30q0 36 -25 36q-36 0 -36 30v5q0 19 22 28v3h-8l-20 -3q-38 0 -44 61
l-5 110q0 44 93 44h28v19q-19 0 -25 28v5q7 30 25 30v918q0 5 11 11zM149 1140q11 -44 33 -44v19q0 4 11 11h8q4 0 11 -11v-17h3q25 14 25 44q-11 39 -31 39v-14q0 -4 -11 -11h-8q-4 0 -11 11v14h-3q-27 -15 -27 -41zM157 1027v-3q17 0 22 -28v-5l-3 -14l6 -3v56
q-15 -3 -25 -3zM151 790q9 -44 50 -44q32 0 41 44q0 25 -24 41h-6q0 -14 -8 -14h-11q-3 0 -14 14q-28 -15 -28 -41z" />
    <glyph glyph-name="k" unicode="k" horiz-adv-x="894" 
d="M329 2217h8q4 0 10 -10v-857q19 14 35 45q9 8 18 8h5q27 -4 27 -28v-12q-10 -21 -25 -21h-7q-10 0 -23 10q-30 -38 -30 -62v-36q10 -10 10 -20v-7q0 -9 -10 -20v-5q118 -20 118 -53v-10q0 -14 -90 -390q-33 -118 -33 -145q0 -13 12 -20h8q23 0 168 100q82 49 133 83
q25 10 43 10q214 -41 214 -63q0 -27 -101 -78q-206 -120 -226 -138q-10 -11 -10 -20v-18q5 -21 191 -532q0 -6 3 -10q-7 -28 -16 -28h-25q-216 47 -216 65q-12 0 -73 201q-48 147 -67 191q-9 5 -16 5h-5q-66 -18 -95 -62q-50 -210 -60 -239q0 -17 -41 -20q-28 0 -168 40
q-15 15 -15 30q0 13 256 1083q14 33 35 33h11l17 -3l-2 13v5q5 27 22 27v948q0 4 10 10zM292 1094q0 -37 45 -43q38 8 38 45q-10 35 -28 35v-12q0 -4 -10 -10h-8q-4 0 -10 10v12h-2q-25 -14 -25 -37z" />
    <glyph glyph-name="l" unicode="l" horiz-adv-x="310" 
d="M124 2211h8q4 0 11 -11v-724q20 15 38 48q10 9 19 9h5q30 -5 30 -30v-14q-11 -22 -27 -22h-8q-10 0 -24 11q-33 -41 -33 -68v-38q11 -11 11 -21v-8q0 -10 -11 -22v-27h3q111 0 111 -25q5 -20 5 -38l4 -1160q8 -192 -52 -168v-3l-33 3h-92q-79 0 -79 43v1299q0 49 73 49
h30v21q-18 0 -24 28v5q6 30 24 30v822q0 4 11 11zM83 1199q0 -39 49 -46q41 8 41 48q-11 38 -30 38v-13q0 -4 -11 -11h-8q-4 0 -11 11v13h-3q-27 -15 -27 -40z" />
    <glyph glyph-name="m" unicode="m" horiz-adv-x="1365" 
d="M1119 2216h8q4 0 10 -10v-1117h2q0 7 25 28q3 27 28 27h2q25 0 30 -32q-8 -28 -27 -28h-8q-9 0 -20 10q-31 -34 -32 -62v-35q10 -14 10 -23v-12l-10 -15v-8l42 -22q145 -70 145 -330q2 -7 37 -437q0 -53 -60 -53q-82 -7 -127 -7h-7q-40 0 -40 85q-39 509 -58 509
q-14 40 -52 63q-22 15 -90 15q-37 -4 -85 -35q-48 -56 -48 -115v-55q0 -61 35 -465q0 -34 -67 -40q-91 -7 -128 -7q-39 0 -39 77q-36 450 -53 517q-38 78 -115 78h-22q-50 0 -103 -50q-42 -46 -42 -117v-25q0 -34 35 -478q0 -42 -118 -42q-42 -5 -77 -5q-38 0 -38 70
q-5 34 -62 737q0 47 90 47v3q-17 0 -23 25v5q6 27 23 27v1285q0 4 10 10h7q4 0 10 -10v-1195q19 14 35 45q10 8 18 8h5q27 -4 27 -28v-12q-10 -20 -25 -20h-7q-9 0 -23 10q-30 -39 -30 -63v-35q10 -10 10 -20v-7q0 -9 -10 -20v-5q38 2 55 2q45 0 45 -37q11 -32 18 -33h5
q19 0 50 38q95 82 217 82h10q124 0 202 -90q15 -7 18 -7q16 0 75 65q92 75 195 75h2q66 0 90 -8h3v3q-12 0 -15 22v5q0 13 22 30v1202q0 4 10 10zM1082 834q7 -40 45 -40q28 0 37 40q0 23 -22 38h-5q0 -20 -10 -20h-8q-6 0 -12 20q-25 -14 -25 -38zM62 749q0 -36 45 -42
q38 8 38 45q-10 35 -28 35v-13q0 -4 -10 -10h-7q-4 0 -10 10v13h-3q-25 -14 -25 -38z" />
    <glyph glyph-name="n" unicode="n" horiz-adv-x="920" 
d="M522 2212h8q4 0 10 -10v-1067h2q0 15 34 43q7 31 31 31h3q25 0 31 -33q-9 -29 -29 -29h-8q-9 0 -20 11q-39 -43 -39 -91v-5q16 -15 16 -26v-7q0 -11 -16 -26h3q196 0 263 -165q31 -42 52 -388q23 -237 23 -297q0 -39 -121 -39q0 -5 -78 -5h-2q-44 0 -44 134
q-36 496 -68 496q-38 65 -105 65h-31q-80 0 -140 -75q-26 -41 -26 -119v-10q0 -81 34 -483q0 -47 -73 -47q-54 -7 -126 -10q-47 0 -47 106q0 15 -59 728q0 49 90 49q61 6 99 6h2q33 0 41 -62q9 -13 21 -13q11 0 60 51q89 65 139 65q28 10 59 10v5q-12 14 -12 24v5
q0 11 12 26v1142q0 4 11 10zM483 892q0 -38 47 -44q38 8 38 46q-10 37 -28 37v-13q0 -4 -10 -11h-8q-4 0 -11 11v13h-2q-26 -15 -26 -39z" />
    <glyph glyph-name="o" unicode="o" horiz-adv-x="977" 
d="M485 2216h8q4 0 11 -11v-1158h3q0 16 35 47q8 32 33 32h3q27 0 32 -35q-8 -30 -30 -30h-8q-10 0 -22 11q-40 -45 -40 -96v-5q16 -17 16 -27v-8q0 -19 -22 -28v-27q177 0 308 -117q95 -101 125 -207q25 -85 25 -139q3 -50 3 -66q0 -238 -213 -376q-112 -60 -161 -60
q-23 -10 -109 -16q-318 0 -441 286q-41 110 -41 234v17q0 125 84 253q97 115 129 115q128 76 261 76v30q-13 14 -13 25v5q0 12 13 27v1237q0 4 11 11zM444 791q0 -39 49 -46q41 8 41 49q-10 38 -30 38v-14q0 -4 -11 -11h-8q-4 0 -11 11v14h-3q-27 -15 -27 -41zM253 429
q0 -186 107 -292q62 -44 114 -44h33q82 0 155 80q49 64 49 174q0 243 -152 327q-34 11 -85 16q-70 0 -144 -52q-77 -69 -77 -209z" />
    <glyph glyph-name="p" unicode="p" horiz-adv-x="987" 
d="M586 2214h8q4 0 10 -10v-1094h3q0 15 34 45q8 31 32 31h2q27 0 32 -34q-8 -29 -29 -29h-8q-9 0 -21 11q-39 -44 -39 -92v-5q15 -16 15 -27v-8q0 -17 -21 -26v-21q72 0 190 -84q91 -91 126 -184q44 -136 44 -223q-2 -17 -2 -37q0 -6 2 -11q0 -94 -63 -223
q-112 -176 -331 -176q-90 0 -194 63q-5 3 -13 3q-13 -15 -13 -19q0 -2 2 -2l-2 -19v-2l66 -381q0 -49 -107 -49q-60 -11 -90 -11h-2q-39 0 -45 55l-172 1174q0 42 87 47q12 0 105 13q30 0 50 -60l13 -3q16 0 55 45q94 76 168 76q0 8 76 11h22v21q-14 13 -14 23v6q0 11 14 26
v1170q0 4 10 10zM547 863q0 -38 47 -45q39 9 39 48q-10 36 -29 36v-13q0 -4 -10 -10h-8q-4 0 -10 10v13h-3q-26 -14 -26 -39zM284 506q0 -173 102 -274q66 -42 105 -42q154 0 203 116q23 46 23 129q-5 236 -141 310q-41 18 -85 18q-156 0 -197 -155q-10 -39 -10 -102z" />
    <glyph glyph-name="q" unicode="q" horiz-adv-x="1030" 
d="M399 2211h8q4 0 11 -11v-1022h3q0 17 36 47q7 33 33 33h2q28 0 33 -36q-8 -30 -30 -30h-8q-10 0 -22 11q-41 -45 -41 -96v-6q16 -16 16 -27v-8q0 -19 -22 -28v-5h33q143 -17 184 -50q28 0 116 -99q9 -5 16 -5q18 0 33 44q16 13 28 13q195 -22 195 -46q8 -4 8 -28
q-211 -1062 -250 -1254q-16 -25 -44 -25q-203 29 -203 61v16q88 398 88 416v5q0 5 -9 22h-16q-108 -52 -182 -52h-16q-253 0 -363 239q-36 89 -36 182q0 199 102 365q15 34 102 116q110 74 184 74v14q-14 14 -14 25v5q0 12 14 28v1101q0 4 11 11zM358 920q0 -40 49 -47
q41 9 41 50q-10 38 -30 38v-14q0 -4 -11 -11h-8q-5 0 -11 11v14h-3q-27 -15 -27 -41zM259 458q0 -137 110 -204q56 -27 90 -27q157 0 218 148q41 96 41 212q0 164 -135 226q-43 11 -80 13q-178 0 -239 -269q-5 -65 -5 -99z" />
    <glyph glyph-name="r" unicode="r" horiz-adv-x="673" 
d="M176 2221h8q5 0 11 -11v-1056h3q0 16 35 46q8 33 33 33h3q27 0 32 -35q-8 -30 -30 -30h-8q-10 0 -22 11q-40 -45 -40 -95v-6q16 -16 16 -27v-8q0 -18 -22 -27v-6q112 -7 112 -27q5 -17 5 -24v-38q0 -32 16 -41q15 1 52 38q99 79 200 79h22q68 0 68 -57q-10 -174 -30 -174
q-10 -5 -22 -5h-13q-12 0 -60 5q-160 0 -214 -114q-35 -33 -52 -222q-23 -342 -43 -342q-20 -8 -33 -8q-200 7 -200 43l-3 17q71 826 79 851q14 25 51 25q23 -3 35 -3v6q-13 14 -13 24v5q0 12 13 28v1134q0 4 11 11zM136 899q0 -39 48 -46q41 9 41 49q-10 38 -30 38v-14
q0 -4 -11 -11h-8q-4 0 -11 11v14h-2q-27 -15 -27 -41z" />
    <glyph glyph-name="s" unicode="s" horiz-adv-x="877" 
d="M395 2217h9q4 0 11 -11v-1147h2q0 26 89 63q33 -6 33 -30v-8q0 -25 -36 -31q-17 0 -30 28q-58 -35 -58 -105v-6q16 -16 16 -27v-8q0 -10 -11 -23h20q280 0 370 -182q22 -50 22 -75v-5q0 -36 -41 -36h-114q-11 0 -30 -3q-44 0 -86 86q-58 44 -127 44q-132 0 -155 -66
l-3 -20v-5q0 -89 258 -130q139 -28 229 -80q105 -74 105 -199q0 -113 -83 -210q-125 -111 -373 -111q-131 0 -277 72q-87 46 -132 188q-3 19 -3 30v6q0 28 39 33h155q35 0 52 -44q16 -53 75 -86q55 -28 124 -28q54 0 116 34q44 35 44 88v3q0 94 -287 141q-187 48 -235 97
q-69 69 -69 165q13 104 39 147q48 80 185 124q90 22 138 22q-11 12 -11 23v5q5 28 19 28v1238q0 5 11 11zM354 813q0 -40 50 -47q41 9 41 50q-10 38 -30 38v-13q0 -5 -11 -12h-9q-4 0 -11 12v13h-3q-27 -15 -27 -41z" />
    <glyph glyph-name="t" unicode="t" horiz-adv-x="704" 
d="M263 2214h9q5 0 12 -12v-797h3q0 17 38 50q8 35 35 35h3q29 0 35 -38q-9 -32 -32 -32h-9q-10 0 -23 11q-44 -48 -44 -102v-6q17 -18 17 -29v-9q0 -20 -23 -29v-6h9q34 0 70 3q62 0 62 -70q0 -217 35 -217q4 -4 29 -6q63 3 94 3l5 3q53 0 53 -88q3 -21 3 -56
q0 -16 -29 -35q-152 -11 -152 -23q-12 -18 -15 -41q23 -512 41 -512q25 -41 88 -41q58 3 64 3q44 0 44 -94q0 -37 3 -68q0 -55 -117 -55q-3 -3 -24 -3h-26q-6 0 -12 -3l-5 3q-3 0 -24 -3q-15 3 -17 3q-4 0 -9 -3q-113 0 -196 73q-43 58 -53 132q-26 557 -32 571
q-18 32 -53 32q-19 0 -53 -6q-64 0 -64 73q0 36 -3 44q0 65 41 65q0 3 9 3h3q105 0 105 41q0 13 3 17l-12 202q0 50 94 50h9v12q-15 15 -15 26v6q0 12 15 29v882q0 5 11 12zM220 1130q0 -42 52 -50q44 9 44 53q-11 41 -32 41v-15q0 -4 -12 -12h-9q-4 0 -11 12v15h-3
q-29 -17 -29 -44z" />
    <glyph glyph-name="u" unicode="u" horiz-adv-x="954" 
d="M631 2214h7q3 0 9 -9v-1207h3q0 14 30 41q7 28 29 28h2q24 0 29 -31q-8 -26 -26 -26h-8q-8 0 -18 10q-36 -40 -36 -83v-5q14 -14 14 -24v-7q0 -16 -19 -24l38 12h10q28 0 45 -78q204 -642 204 -659v-5q0 -30 -100 -52q-48 -19 -71 -19q-16 1 -47 52q-10 5 -14 5
q-18 -17 -53 -74q-108 -109 -270 -109h-10q-114 0 -192 128q-38 69 -154 463q-33 96 -33 111q0 34 83 50q77 28 100 28q30 0 64 -140q99 -321 132 -384q44 -57 102 -57h10q83 0 140 79q19 35 19 68v19q0 68 -121 432l-17 62q0 34 69 49l40 22q-12 12 -12 21v5q0 10 12 24
v1275q0 3 10 9zM595 775q0 -34 43 -40q35 8 35 43q-9 33 -26 33v-12q0 -4 -9 -9h-7q-4 0 -10 9v12h-2q-24 -13 -24 -36z" />
    <glyph glyph-name="v" unicode="v" horiz-adv-x="796" 
d="M105 2207h7q4 0 10 -10v-1044h3q0 14 32 42q7 30 30 30h3q25 0 30 -32q-8 -28 -28 -28h-7q-9 0 -20 10q-38 -41 -38 -87v-5q15 -15 15 -25v-8q0 -16 -20 -24v-15q0 -4 83 -30q27 -17 27 -45v-384q0 -46 3 -128q0 -8 17 -17q14 0 52 55q32 52 262 384q16 10 40 12
q138 -40 165 -54q6 -9 10 -20q0 -20 -190 -272q-34 -54 -242 -337q-27 -47 -72 -90q-9 -5 -20 -5h-3q-21 0 -207 62q-25 0 -25 140l-2 23l2 5q-20 500 -22 696q0 21 32 27q21 -2 63 -17v12q-13 13 -13 22v5q0 11 13 25v1117q0 4 10 10zM67 918q0 -36 45 -42q38 8 38 45
q-10 35 -28 35v-13q0 -4 -10 -10h-7q-4 0 -10 10v13h-3q-25 -14 -25 -38z" />
    <glyph glyph-name="w" unicode="w" horiz-adv-x="1381" 
d="M669 2215h8q4 0 11 -10v-1224h2q0 16 34 45q8 31 32 31h2q27 0 32 -34q-8 -29 -29 -29h-8q-9 0 -21 11q-39 -44 -39 -92v-5q16 -16 16 -26v-8q0 -11 -16 -26h26q69 0 84 -21q13 -29 71 -266q50 -213 71 -259l8 -6h2q26 0 45 98q102 368 113 414q15 28 29 32q19 8 57 8
h113q50 0 50 -37q-34 -117 -244 -782q-16 -79 -71 -79q-33 0 -81 3q-48 -3 -63 -3q-52 0 -68 29q-90 340 -134 493q-10 20 -19 24h-8q-16 0 -57 -184q-13 -37 -71 -283q-13 -76 -66 -76h-162q-48 0 -61 36q-241 762 -257 819v11q0 29 63 29h100q78 0 78 -19q12 0 37 -110
q16 -47 110 -402q8 -18 19 -23h8q17 0 55 178q50 185 84 339q11 37 76 37h29v2q-13 14 -13 24v5q0 11 13 26v1300q0 4 10 10zM630 735q0 -38 47 -45q39 8 39 47q-10 37 -28 37v-13q0 -4 -11 -11h-8q-4 0 -10 11v13h-3q-26 -15 -26 -39z" />
    <glyph glyph-name="x" unicode="x" horiz-adv-x="965" 
d="M385 2214h7q4 0 10 -10v-1234h2q0 14 32 41q7 30 30 30h2q25 0 29 -32q-7 -27 -27 -27h-7q-9 0 -19 10q-37 -41 -37 -86v-5q14 -15 14 -24v-8q0 -16 -19 -24v-15q74 -16 93 -44l61 -196q15 -15 17 -15h10q21 0 140 106q35 29 64 29h2q21 0 181 -54q13 -8 13 -19v-10
q-29 -32 -192 -155q-126 -96 -137 -110q-10 -13 -10 -27q8 -38 140 -451l3 -12q0 -14 -22 -22q-216 53 -216 81q-9 16 -76 242q-14 20 -27 20q-15 0 -152 -115q-65 -56 -91 -56q-18 0 -191 56q-12 13 -12 19q0 23 108 99q0 2 252 205q10 11 20 30q-7 39 -108 355
q-10 23 -17 61v3q8 17 27 17q14 -3 93 -27v7q-12 13 -12 22v5q0 11 12 25v1305q0 4 10 10zM348 739q0 -35 44 -41q37 8 37 44q-10 34 -27 34v-12q0 -4 -10 -10h-7q-4 0 -10 10v12h-3q-24 -14 -24 -37z" />
    <glyph glyph-name="y" unicode="y" horiz-adv-x="827" 
d="M663 2217h8q4 0 10 -10v-1199h2q0 15 32 42q7 30 30 30h2q25 0 30 -32q-8 -27 -28 -27h-7q-9 0 -20 10q-36 -41 -36 -86v-5q14 -15 14 -25v-7q0 -17 -19 -25v-7h2q72 22 91 22q20 0 25 -27q-52 -779 -74 -1010q-17 -73 -34 -98q-60 -82 -173 -116q-93 -27 -122 -27
q-41 0 -67 147q0 35 72 42q71 19 95 57q13 31 13 69q0 35 -153 228q-268 356 -356 479v15q0 26 103 47q71 24 84 24h12q27 0 64 -66q18 -24 251 -361q14 -20 27 -20h5q17 0 17 106q10 444 17 444q0 17 74 35v20q-13 12 -13 22v5q0 10 13 24v1270q0 4 9 10zM627 777
q0 -35 44 -41q37 7 37 44q-10 34 -27 34v-12q0 -4 -10 -10h-8q-3 0 -9 10v12h-3q-24 -14 -24 -37z" />
    <glyph glyph-name="z" unicode="z" horiz-adv-x="926" 
d="M527 2214h8q4 0 9 -9v-1108h3q0 14 32 41q7 30 29 30h3q24 0 29 -32q-8 -27 -27 -27h-7q-9 0 -20 10q-37 -41 -37 -86v-5q15 -15 15 -25v-7q0 -8 -7 -17q75 22 86 22q38 0 58 -106q10 -18 10 -41q0 -29 -83 -197q-140 -292 -167 -362q0 -2 -2 -10q0 -3 12 -17
q34 0 218 56q149 47 172 47q42 0 61 -126v-9q0 -31 -115 -54q-570 -172 -591 -172q-31 0 -52 98q-9 19 -9 42v12q0 31 58 142q0 2 192 410v17q0 7 -22 12h-8q-12 0 -306 -86h-5q-35 0 -54 91q-8 16 -10 42q0 33 110 56q2 3 408 121v7q-13 13 -13 22v5q0 10 13 24v1180
q0 3 9 9zM491 866q0 -35 44 -42q36 8 36 44q-9 35 -27 35v-13q0 -3 -9 -9h-8q-4 0 -9 9v13h-3q-24 -14 -24 -37z" />
    <glyph glyph-name="braceleft" unicode="{" 
d="M240 698q172 5 223 71t51 133v468q0 74 77 141.5t185 67.5h108v-50h-90q-61 0 -107 -33.5t-47 -91.5v-500q0 -83 -60.5 -158.5t-142.5 -76.5v-2q82 -1 143 -76t61 -158l-1 -500q1 -58 47 -91.5t107 -33.5h90v-50h-108q-108 0 -184.5 67.5t-77.5 141.5v468q0 66 -51 132
t-223 71v60z" />
    <glyph glyph-name="bar" unicode="|" 
d="M427 1577h160v-1995h-160v1995z" />
    <glyph glyph-name="braceright" unicode="}" 
d="M774 638q-172 -5 -223 -71t-51 -132v-468q-1 -74 -77.5 -141.5t-184.5 -67.5h-108v50h90q61 0 107 33.5t47 91.5l-1 500q0 83 61 158t144 76v2q-83 1 -143.5 76.5t-60.5 158.5v500q-1 58 -47 91.5t-107 33.5h-90v50h108q108 0 185 -67.5t77 -141.5v-468q0 -67 51 -133
t223 -71v-60z" />
    <glyph glyph-name="asciitilde" unicode="~" 
d="M923 878v-156q-63 -72 -122 -97.5t-116 -25.5q-60 0 -177.5 48.5t-176.5 48.5q-51 0 -107.5 -28t-129.5 -112v156q64 73 123 99t114 26q64 0 181.5 -49.5t172.5 -49.5q52 0 108.5 28t129.5 112z" />
    <glyph glyph-name="exclamdown" unicode="&#xa1;" horiz-adv-x="672" 
 />
    <glyph glyph-name="cent" unicode="&#xa2;" horiz-adv-x="1139" 
 />
    <glyph glyph-name="sterling" unicode="&#xa3;" 
d="M748 1347q-72 31 -160 31h-2q-100 0 -190 -101q-84 -93 -84 -241q0 -15 1 -30q0 -135 53 -273h360v-60h-334q14 -30 31 -60q35 -63 35 -138q0 -161 -162 -375h402q130 0 189 132l49 -1l-103 -231h-719l1 50q187 238 187 418q0 77 -34 143q-17 32 -31 62h-161v60h135
q-58 143 -58 253q0 226 123.5 347t306.5 121h4q75 0 185.5 -14t110.5 -34v-161h-58q-5 61 -77 102z" />
    <glyph glyph-name="currency" unicode="&#xa4;" 
d="M350 560q41 -40 99 -57q29 -8 58 -8t58 8q58 17 99 57q40 41 57 99q9 29 9 58t-9 58q-17 58 -57 99q-41 40 -100 57q-29 8 -58 8t-58 -9q-58 -17 -98 -56q-39 -40 -56 -98q-10 -30 -10 -60q0 -28 9 -56q16 -59 57 -100zM240 903l-118 118l80 81l118 -118q44 30 99 46
q44 14 89 14q41 0 83 -12q57 -17 102 -48l118 118l80 -81l-117 -117q31 -46 48 -102q12 -42 12 -85q0 -42 -12 -85q-17 -56 -48 -102l117 -117l-80 -81l-118 118q-45 -32 -101 -48q-42 -12 -85 -12q-42 0 -85 12q-57 16 -102 48l-118 -118l-80 81l118 117q-32 46 -48 103
q-12 42 -12 84q0 44 13 87q16 55 47 99z" />
    <glyph glyph-name="yen" unicode="&#xa5;" horiz-adv-x="1262" 
d="M547 225l-2 242q0 19 -1.5 35t-4.5 32l-484 1q-14 0 -21 6.5t-7 19.5t6.5 19t21.5 6h467l-121 172h-344q-17 0 -23.5 5.5t-6.5 18.5q0 14 6 19.5t22 5.5h307q-43 57 -108 155q-131 197 -227 197q-7 0 -13 5.5t-6 11.5q0 19 10.5 27.5t32.5 8.5q27 0 123 -8t164 -8h88
q33 0 41 -6.5t8 -26.5q0 -8 -15 -14t-38 -6q-6 0 -18.5 2t-18.5 2q-24 0 -37.5 -9.5t-13.5 -25.5q0 -18 16.5 -52t46.5 -77l158 -221q13 -19 33 -53q41 -70 71 -70q9 0 16.5 5t14.5 15l277 396q8 12 13 26.5t5 24.5q0 18 -10 27t-37 14q-15 2 -41 4q-47 3 -47 25
q0 15 8 22.5t25 7.5q3 0 15 -1q56 -7 108 -7h139q30 0 65 1t37 1q11 0 18.5 -4.5t8.5 -11.5q0 -28 -38 -34q-18 -3 -27 -5q-63 -15 -147 -117q-7 -9 -12 -15l-169 -206h323q15 0 24 -6t9 -17q0 -15 -6 -20.5t-23 -5.5h-366q-46 -57 -96.5 -112.5t-52.5 -59.5h511
q18 0 25.5 -5.5t7.5 -17.5q0 -14 -7 -21t-22 -7h-530q0 -11 -1 -30.5t-1 -29.5l2 -215q0 -114 5.5 -150t20.5 -44q30 -17 107.5 -19t77.5 -31q0 -12 -10 -20t-25 -8q-2 0 -35.5 4t-64.5 4q-91 0 -208.5 -4t-142.5 -4q-31 0 -40 4t-9 16t8 18.5t37 12.5q9 2 25 5q74 16 92 32
q17 13 24 47t7 102z" />
    <glyph glyph-name="brokenbar" unicode="&#xa6;" 
d="M427 371h160v-789h-160v789zM427 1578h160v-789h-160v789z" />
    <glyph glyph-name="section" unicode="&#xa7;" 
d="M545 321q56 16 97 53q73 65 73 166q0 5 -1 10h-2q-1 14 -4 27q-22 61 -113 127q-59 29 -126 29q-78 0 -125 -44.5t-47 -117.5q0 -123 248 -250zM466 -346q113 6 185 69q72 64 72 165q0 125 -316 276q-123 64 -175.5 137t-52.5 177q0 148 89 237q67 65 170 82l-40 19
q-123 64 -175.5 137t-52.5 177q0 148 89 237q82 79 216 86q8 1 17 1h3q66 0 163 -16.5t97 -41.5v-194h-51q-5 81 -80 132q-70 47 -149 51h-15q-78 0 -125 -44.5t-47 -117.5q0 -132 287 -269q149 -67 204.5 -143.5t55.5 -187.5q0 -171 -101 -282q-47 -39 -99 -64
q108 -56 154 -118q55 -77 55 -187q0 -171 -101 -283q-124 -102 -277 -105v1q-6 -1 -13 -1h-3q-66 0 -163 16.5t-97 41.5v194h51q5 -81 80 -132q68 -45 145 -50z" />
    <glyph glyph-name="dieresis" unicode="&#xa8;" horiz-adv-x="1024" 
d="M223 1289l71 72q13 12 25 12q11 0 27 -14l69 -73q10 -14 10 -25q0 -13 -12 -27l-69 -75q-17 -17 -25 -17q-14 0 -25 12l-76 86q-9 12 -9 23q0 13 14 26zM588 1289l71 72q13 12 25 12q11 0 27 -13l69 -74q10 -14 10 -25q0 -13 -12 -26l-69 -76q-17 -17 -25 -17
q-14 0 -25 12l-76 87q-9 11 -9 22q0 13 14 26z" />
    <glyph glyph-name="copyright" unicode="&#xa9;" horiz-adv-x="1674" 
d="M840 1456q145 0 280 -56.5t239 -160.5q102 -101 158.5 -238t56.5 -283q0 -147 -56.5 -282t-162.5 -240q-105 -105 -239 -159.5t-283 -54.5q-146 0 -278 55.5t-238 160.5q-106 104 -161.5 237.5t-55.5 282.5q0 148 55.5 283t159.5 238q102 104 238.5 160.5t286.5 56.5z
M357 1197q-95 -96 -146 -219.5t-51 -259.5q0 -137 51 -259t148 -219q98 -96 219 -147t256 -51q137 0 259.5 50.5t219.5 145.5q97 98 149 221.5t52 258.5q0 134 -52 259.5t-145 219.5q-96 96 -220 147.5t-258 51.5q-137 0 -262 -51.5t-220 -147.5zM865 223q-142 0 -264 68
t-186 185t-64 243t65.5 244t187.5 184.5t254 66.5q38 0 75 -6.5t76 -20.5q5 -1 9 -1q19 0 26 30h42l72 -198h-44q-52 94 -131 124q-72 26 -147 26h-15q-86 -8 -166.5 -71t-121.5 -177q-33 -90 -33 -184q0 -25 2 -50q11 -121 69.5 -224t149.5 -152q72 -40 166 -42
q124 0 194 56t70 126h53v-100q0 -46 -96.5 -86.5t-242.5 -40.5zM816 2222h12q6 0 16 -16v-656q16 -17 16 -32v-12q0 -14 -16 -32v-108q0 -6 -16 -16h-12q-6 0 -16 16v100q-31 0 -36 48q8 40 28 40q0 83 -64 152q-17 -16 -32 -16h-12q-30 0 -44 44q8 52 48 52h4q33 0 56 -56
q35 -23 48 -64h4v540q0 6 16 16z" />
    <glyph glyph-name="ordfeminine" unicode="&#xaa;" horiz-adv-x="648" 
 />
    <glyph glyph-name="guillemotleft" unicode="&#xab;" horiz-adv-x="944" 
d="M174 479l342 303h14v-37l-205 -266l205 -266v-37h-14zM487 479l342 303h14v-37l-205 -266l205 -266v-37h-14z" />
    <glyph glyph-name="logicalnot" unicode="&#xac;" 
d="M87 767h840v-491l-1 -1h-98v392h-741v100z" />
    <glyph glyph-name="registered" unicode="&#xae;" horiz-adv-x="1674" 
d="M751 1099v-374l3 -8q23 -56 56 -81q29 -22 56 -22h6q31 4 61.5 38.5t46.5 97.5q13 50 13 103q0 13 -1 27q-4 67 -28 124.5t-56.5 76t-63.5 18.5h-93zM984 576l82 -116q100 -141 150 -141h34v-50h-346v50h45q30 0 30 22q0 29 -69 114l-75 102q-42 0 -84 42v-159
q0 -121 36 -121h53v-50h-316v50h43q37 0 37 121v538q0 121 -37 121h-43v70h356q64 -1 125 -42q60 -41 92.5 -114t32.5 -152q0 -78 -32 -150.5t-114 -134.5zM840 1456q145 0 280 -56.5t239 -160.5q102 -101 158.5 -238t56.5 -283q0 -147 -56.5 -282t-162.5 -240
q-105 -105 -239 -159.5t-283 -54.5q-146 0 -278 55.5t-238 160.5q-106 104 -161.5 237.5t-55.5 282.5q0 148 55.5 283t159.5 238q102 104 238.5 160.5t286.5 56.5zM357 1197q-95 -96 -146 -219.5t-51 -259.5q0 -137 51 -259t148 -219q98 -96 219 -147t256 -51
q137 0 259.5 50.5t219.5 145.5q97 98 149 221.5t52 258.5q0 134 -52 259.5t-145 219.5q-96 96 -220 147.5t-258 51.5q-137 0 -262 -51.5t-220 -147.5zM816 2222h12q6 0 16 -16v-656q16 -17 16 -32v-12q0 -14 -16 -32v-108q0 -6 -16 -16h-12q-6 0 -16 16v100q-31 0 -36 48
q8 40 28 40q0 83 -64 152q-17 -16 -32 -16h-12q-30 0 -44 44q8 52 48 52h4q33 0 56 -56q35 -23 48 -64h4v540q0 6 16 16z" />
    <glyph glyph-name="macron" unicode="&#xaf;" horiz-adv-x="670" 
 />
    <glyph glyph-name="degree" unicode="&#xb0;" horiz-adv-x="674" 
d="M339 1372q-86 0 -147.5 -61t-61.5 -148t61 -147t148 -60t147 60t60 147t-60.5 148t-146.5 61zM339 1442q115 0 196 -81.5t81 -196.5q0 -114 -82 -196t-197 -82q-117 0 -197 81t-80 197t81.5 197t197.5 81z" />
    <glyph glyph-name="plusminus" unicode="&#xb1;" 
 />
    <glyph glyph-name="uni00B2" unicode="&#xb2;" 
 />
    <glyph glyph-name="uni00B3" unicode="&#xb3;" 
 />
    <glyph glyph-name="acute" unicode="&#xb4;" horiz-adv-x="1024" 
d="M607 1375q35 35 55.5 47t40.5 12q33 0 53.5 -20t20.5 -51q0 -22 -15.5 -42t-46.5 -40l-330 -203h-69z" />
    <glyph glyph-name="mu" unicode="&#xb5;" horiz-adv-x="1180" 
 />
    <glyph glyph-name="paragraph" unicode="&#xb6;" horiz-adv-x="1024" 
d="M929 1435v-70h-127v-1365h-82v1365h-166v-1365h-84v738q-174 8 -275.5 102.5t-101.5 245.5q0 157 107.5 253t285.5 96h443z" />
    <glyph glyph-name="periodcentered" unicode="&#xb7;" horiz-adv-x="557" 
d="M165 2218h7q4 0 10 -10v-1966q8 -22 8 -25v-2q0 -13 -8 -22v-15h57q44 0 44 -39v-157q0 -45 -22 -45q0 -5 -49 -7h-113q-67 0 -67 37q-2 23 -2 44v118q0 37 29 49h96v7q-19 0 -24 27v5q0 14 17 25q0 51 -39 93q-1 -3 -13 -10h-12q-27 4 -27 27v5q0 21 27 27h5
q22 0 29 -32q35 -27 35 -46h2v1902q0 4 10 10zM128 99q8 -39 44 -39q29 0 37 39q0 23 -22 37h-5q0 -19 -10 -19h-7q-6 0 -12 19q-25 -13 -25 -37z" />
    <glyph glyph-name="periodcentered" unicode="&#x2219;" horiz-adv-x="557" 
d="M165 2218h7q4 0 10 -10v-1966q8 -22 8 -25v-2q0 -13 -8 -22v-15h57q44 0 44 -39v-157q0 -45 -22 -45q0 -5 -49 -7h-113q-67 0 -67 37q-2 23 -2 44v118q0 37 29 49h96v7q-19 0 -24 27v5q0 14 17 25q0 51 -39 93q-1 -3 -13 -10h-12q-27 4 -27 27v5q0 21 27 27h5
q22 0 29 -32q35 -27 35 -46h2v1902q0 4 10 10zM128 99q8 -39 44 -39q29 0 37 39q0 23 -22 37h-5q0 -19 -10 -19h-7q-6 0 -12 19q-25 -13 -25 -37z" />
    <glyph glyph-name="cedilla" unicode="&#xb8;" horiz-adv-x="1024" 
d="M360 -290q85 -52 152 -52q66 0 94.5 21.5t28.5 66.5t-49 64q-40 16 -102 16q-16 0 -34 -2l48 176h63l-37 -104q32 4 62 5q86 0 134 -40.5t48 -113.5q0 -76 -58.5 -120.5t-160.5 -44.5q-109 0 -189 32v96z" />
    <glyph glyph-name="uni00B9" unicode="&#xb9;" 
 />
    <glyph glyph-name="ordmasculine" unicode="&#xba;" horiz-adv-x="718" 
 />
    <glyph glyph-name="guillemotright" unicode="&#xbb;" horiz-adv-x="944" 
d="M115 176h-14v37l205 266l-205 266v37h14l342 -303zM428 176h-14v37l205 266l-205 266v37h14l342 -303z" />
    <glyph glyph-name="onequarter" unicode="&#xbc;" horiz-adv-x="1708" 
 />
    <glyph glyph-name="onehalf" unicode="&#xbd;" horiz-adv-x="1964" 
 />
    <glyph glyph-name="threequarters" unicode="&#xbe;" horiz-adv-x="1708" 
 />
    <glyph glyph-name="questiondown" unicode="&#xbf;" horiz-adv-x="748" 
 />
    <glyph glyph-name="Agrave" unicode="&#xc0;" horiz-adv-x="1540" 
 />
    <glyph glyph-name="Aacute" unicode="&#xc1;" horiz-adv-x="1540" 
 />
    <glyph glyph-name="Acircumflex" unicode="&#xc2;" horiz-adv-x="1540" 
 />
    <glyph glyph-name="Atilde" unicode="&#xc3;" horiz-adv-x="1540" 
 />
    <glyph glyph-name="Adieresis" unicode="&#xc4;" horiz-adv-x="1540" 
 />
    <glyph glyph-name="Aring" unicode="&#xc5;" horiz-adv-x="1540" 
 />
    <glyph glyph-name="AE" unicode="&#xc6;" horiz-adv-x="2118" 
 />
    <glyph glyph-name="Ccedilla" unicode="&#xc7;" horiz-adv-x="1399" 
 />
    <glyph glyph-name="Egrave" unicode="&#xc8;" horiz-adv-x="1151" 
 />
    <glyph glyph-name="Eacute" unicode="&#xc9;" horiz-adv-x="1151" 
 />
    <glyph glyph-name="Ecircumflex" unicode="&#xca;" horiz-adv-x="1151" 
 />
    <glyph glyph-name="Edieresis" unicode="&#xcb;" horiz-adv-x="1151" 
 />
    <glyph glyph-name="Igrave" unicode="&#xcc;" horiz-adv-x="657" 
 />
    <glyph glyph-name="Iacute" unicode="&#xcd;" horiz-adv-x="657" 
 />
    <glyph glyph-name="Icircumflex" unicode="&#xce;" horiz-adv-x="657" 
 />
    <glyph glyph-name="Idieresis" unicode="&#xcf;" horiz-adv-x="657" 
 />
    <glyph glyph-name="Eth" unicode="&#xd0;" horiz-adv-x="1518" 
 />
    <glyph glyph-name="Ntilde" unicode="&#xd1;" horiz-adv-x="1554" 
 />
    <glyph glyph-name="Ograve" unicode="&#xd2;" horiz-adv-x="1614" 
 />
    <glyph glyph-name="Oacute" unicode="&#xd3;" horiz-adv-x="1614" 
 />
    <glyph glyph-name="Ocircumflex" unicode="&#xd4;" horiz-adv-x="1614" 
 />
    <glyph glyph-name="Otilde" unicode="&#xd5;" horiz-adv-x="1614" 
 />
    <glyph glyph-name="Odieresis" unicode="&#xd6;" horiz-adv-x="1614" 
 />
    <glyph glyph-name="multiply" unicode="&#xd7;" 
d="M507 618l-247 -247l-99 99l247 247l-247 248l99 98l247 -247l248 247l98 -99l-247 -247l247 -247l-99 -99z" />
    <glyph glyph-name="Oslash" unicode="&#xd8;" horiz-adv-x="1614" 
 />
    <glyph glyph-name="Ugrave" unicode="&#xd9;" horiz-adv-x="1501" 
 />
    <glyph glyph-name="Uacute" unicode="&#xda;" horiz-adv-x="1501" 
 />
    <glyph glyph-name="Ucircumflex" unicode="&#xdb;" horiz-adv-x="1501" 
 />
    <glyph glyph-name="Udieresis" unicode="&#xdc;" horiz-adv-x="1501" 
 />
    <glyph glyph-name="Yacute" unicode="&#xdd;" horiz-adv-x="1233" 
 />
    <glyph glyph-name="Thorn" unicode="&#xde;" horiz-adv-x="1120" 
 />
    <glyph glyph-name="germandbls" unicode="&#xdf;" horiz-adv-x="1251" 
 />
    <glyph glyph-name="agrave" unicode="&#xe0;" horiz-adv-x="922" 
 />
    <glyph glyph-name="aacute" unicode="&#xe1;" horiz-adv-x="922" 
 />
    <glyph glyph-name="acircumflex" unicode="&#xe2;" horiz-adv-x="922" 
 />
    <glyph glyph-name="adieresis" unicode="&#xe4;" horiz-adv-x="922" 
 />
    <glyph glyph-name="aring" unicode="&#xe5;" horiz-adv-x="922" 
 />
    <glyph glyph-name="ae" unicode="&#xe6;" horiz-adv-x="1454" 
 />
    <glyph glyph-name="ccedilla" unicode="&#xe7;" horiz-adv-x="905" 
 />
    <glyph glyph-name="egrave" unicode="&#xe8;" horiz-adv-x="909" 
 />
    <glyph glyph-name="eacute" unicode="&#xe9;" horiz-adv-x="909" 
 />
    <glyph glyph-name="ecircumflex" unicode="&#xea;" horiz-adv-x="909" 
 />
    <glyph glyph-name="edieresis" unicode="&#xeb;" horiz-adv-x="909" 
 />
    <glyph glyph-name="igrave" unicode="&#xec;" horiz-adv-x="514" 
 />
    <glyph glyph-name="iacute" unicode="&#xed;" horiz-adv-x="514" 
 />
    <glyph glyph-name="icircumflex" unicode="&#xee;" horiz-adv-x="514" 
 />
    <glyph glyph-name="idieresis" unicode="&#xef;" horiz-adv-x="514" 
 />
    <glyph glyph-name="eth" unicode="&#xf0;" horiz-adv-x="1139" 
 />
    <glyph glyph-name="ntilde" unicode="&#xf1;" horiz-adv-x="1108" 
 />
    <glyph glyph-name="ograve" unicode="&#xf2;" horiz-adv-x="1010" 
 />
    <glyph glyph-name="oacute" unicode="&#xf3;" horiz-adv-x="1010" 
 />
    <glyph glyph-name="ocircumflex" unicode="&#xf4;" horiz-adv-x="1010" 
 />
    <glyph glyph-name="otilde" unicode="&#xf5;" horiz-adv-x="1010" 
 />
    <glyph glyph-name="odieresis" unicode="&#xf6;" horiz-adv-x="1010" 
 />
    <glyph glyph-name="divide" unicode="&#xf7;" 
d="M87 647v140h839l1 -1v-139h-840zM398 408l82 84q15 14 29 14q13 0 31 -16l80 -86q12 -16 12 -29q0 -15 -14 -31l-80 -88q-20 -20 -29 -20q-16 0 -29 14l-88 101q-10 13 -10 26q0 15 16 31zM398 1101l82 84q15 14 29 14q13 0 31 -16l80 -86q12 -16 12 -29q0 -15 -14 -31
l-80 -88q-20 -20 -29 -20q-16 0 -29 14l-88 101q-10 13 -10 26q0 15 16 31z" />
    <glyph glyph-name="oslash" unicode="&#xf8;" horiz-adv-x="1010" 
 />
    <glyph glyph-name="ugrave" unicode="&#xf9;" horiz-adv-x="1059" 
 />
    <glyph glyph-name="uacute" unicode="&#xfa;" horiz-adv-x="1059" 
 />
    <glyph glyph-name="ucircumflex" unicode="&#xfb;" horiz-adv-x="1059" 
 />
    <glyph glyph-name="udieresis" unicode="&#xfc;" horiz-adv-x="1059" 
 />
    <glyph glyph-name="yacute" unicode="&#xfd;" horiz-adv-x="868" 
 />
    <glyph glyph-name="thorn" unicode="&#xfe;" horiz-adv-x="1010" 
 />
    <glyph glyph-name="ydieresis" unicode="&#xff;" horiz-adv-x="868" 
 />
    <glyph glyph-name="dotlessi" unicode="&#x131;" horiz-adv-x="514" 
d="M328 223q0 -173 100 -173h46v-50h-442v50h46q100 0 100 173v432q0 77 -111 77h-48v44q222 69 261 182h48v-735z" />
    <glyph glyph-name="circumflex" unicode="&#x2c6;" horiz-adv-x="1024" 
d="M221 1079l232 355h118l232 -355h-58l-233 216l-233 -216h-58z" />
    <glyph glyph-name="caron" unicode="&#x2c7;" horiz-adv-x="1024" 
d="M221 1434h58l233 -214l233 214h58l-232 -356h-118z" />
    <glyph glyph-name="uni02C9" unicode="&#x2c9;" horiz-adv-x="1024" 
d="M254 1195v125h516v-125h-516z" />
    <glyph glyph-name="breve" unicode="&#x2d8;" horiz-adv-x="1024" 
d="M219 1349h51q17 -73 75 -107t167 -34t166 33.5t74 107.5h51q-20 -133 -94 -201.5t-197 -68.5q-122 0 -197 69t-96 201z" />
    <glyph glyph-name="dotaccent" unicode="&#x2d9;" horiz-adv-x="1024" 
d="M422 1289l69 72q6 6 13 9t14 3q6 0 12.5 -3t12.5 -9l71 -76q5 -4 7 -10t2 -14q-1 -9 -3 -15t-8 -12l-71 -76q-12 -11 -16 -13.5t-7 -2.5q-10 0 -16.5 2.5t-10.5 8.5l-75 87q-4 4 -6 9.5t-2 13.5q0 6 3 12.5t11 13.5z" />
    <glyph glyph-name="ring" unicode="&#x2da;" horiz-adv-x="1024" 
d="M411 1257q0 -42 29 -71t71 -29t71 29t29 71q0 40 -29.5 69.5t-70.5 29.5t-70.5 -29.5t-29.5 -69.5zM335 1257q0 75 51 126t125 51q76 0 127.5 -51.5t51.5 -125.5q0 -75 -51.5 -126.5t-127.5 -51.5q-74 0 -125 51.5t-51 126.5z" />
    <glyph glyph-name="ogonek" unicode="&#x2db;" horiz-adv-x="1024" 
d="M640 0q-71 -62 -110.5 -119.5t-39.5 -112.5q0 -47 27 -75t73 -28q40 0 69.5 15.5t49.5 48.5l28 -16q-36 -63 -90.5 -97t-119.5 -34q-70 0 -114 35.5t-44 90.5q0 76 60.5 156.5t161.5 135.5h49z" />
    <glyph glyph-name="tilde" unicode="&#x2dc;" horiz-adv-x="1024" 
d="M808 1382q-20 -103 -68.5 -154t-126.5 -51h-4q-50 0 -113 23q-66 24 -114 24q-39 0 -60.5 -20.5t-33.5 -71.5h-54q19 106 68 158.5t129 52.5q46 -1 113 -24q64 -23 112 -23h4q36 0 58 20t36 66h54z" />
    <glyph glyph-name="hungarumlaut" unicode="&#x2dd;" horiz-adv-x="1024" 
d="M217 1079l144 273q24 44 45.5 63t46.5 19q28 0 48 -20t20 -47q0 -16 -10.5 -35t-30.5 -41l-205 -212h-58zM502 1079l144 273q24 44 45.5 63t46.5 19q28 0 48 -20t20 -47q0 -16 -10.5 -35t-30.5 -41l-205 -212h-58z" />
    <glyph glyph-name="endash" unicode="&#x2013;" horiz-adv-x="1108" 
d="M56 419v120h996v-120h-996z" />
    <glyph glyph-name="emdash" unicode="&#x2014;" horiz-adv-x="2048" 
d="M0 419v120h2048v-120h-2048z" />
    <glyph glyph-name="quoteleft" unicode="&#x2018;" horiz-adv-x="557" 
d="M99 2208v-507h2q7 22 25 34q12 30 30 30h2q21 0 25 -28q-7 -23 -23 -23h-6q-8 0 -17 8q-34 -36 -34 -80q11 0 15 -21q0 -13 -13 -25h51q42 0 42 -42v-122q0 -49 -42 -49q-49 0 -49 -38q3 0 3 -8q23 -68 69 -89q19 -12 19 -61q-6 -27 -23 -27h-6q-20 0 -49 15
q-120 72 -120 204q2 31 2 53v124q0 40 34 40h40v4q-9 9 -9 17v6q0 8 9 17v568q5 8 8 8h7q8 -5 8 -8zM57 1527q5 -30 27 -30q23 0 28 32q-7 23 -13 23q0 -17 -8 -17h-7q-8 0 -8 21q-19 -9 -19 -29z" />
    <glyph glyph-name="quoteright" unicode="&#x2019;" horiz-adv-x="557" 
d="M107 2216h7q3 0 8 -8v-568q9 -9 9 -17v-6q0 -8 -9 -17v-4h40q34 0 34 -40v-124q0 -22 2 -53q0 -132 -120 -204q-29 -15 -49 -15h-6q-17 0 -23 27q0 49 19 61q46 21 69 89q0 8 3 8q0 38 -49 38q-42 0 -42 49v122q0 42 42 42h51q-13 12 -13 25q4 21 15 21q0 44 -34 80
q-9 -8 -17 -8h-6q-16 0 -23 23q4 28 25 28h2q18 0 30 -30q18 -12 25 -34h2v507q0 3 8 8zM122 1556q0 -21 -8 -21h-7q-8 0 -8 17q-6 0 -13 -23q5 -32 28 -32q22 0 27 30q0 20 -19 29z" />
    <glyph glyph-name="quotesinglbase" unicode="&#x201a;" horiz-adv-x="557" 
d="M238 281q44 0 88.5 -65.5t44.5 -151.5q0 -109 -71 -226.5t-139 -117.5v43q73 43 87 190q0 119 -129 161v42z" />
    <glyph glyph-name="quotedblleft" unicode="&#x201c;" horiz-adv-x="557" 
d="M99 2208v-507h2q7 22 25 34q12 30 30 30h2q21 0 25 -28q-7 -23 -23 -23h-6q-8 0 -17 8q-34 -36 -34 -80q11 0 15 -21q0 -13 -13 -25h51q42 0 42 -42v-122q0 -49 -42 -49q-49 0 -49 -38q3 0 3 -8q23 -68 69 -89q19 -12 19 -61q-6 -27 -23 -27h-6q-20 0 -49 15
q-120 72 -120 204q2 31 2 53v124q0 40 34 40h40v4q-9 9 -9 17v6q0 8 9 17v568q5 8 8 8h7q8 -5 8 -8zM57 1527q5 -30 27 -30q23 0 28 32q-7 23 -13 23q0 -17 -8 -17h-7q-8 0 -8 21q-19 -9 -19 -29zM409 2208v-507h2q7 22 25 34q12 30 30 30h2q21 0 25 -28q-7 -23 -23 -23h-6
q-8 0 -17 8q-34 -36 -34 -80q11 0 15 -21q0 -13 -13 -25h51q42 0 42 -42v-122q0 -49 -42 -49q-49 0 -49 -38q3 0 3 -8q23 -68 69 -89q19 -12 19 -61q-6 -27 -23 -27h-6q-20 0 -49 15q-120 72 -120 204q2 31 2 53v124q0 40 34 40h40v4q-9 9 -9 17v6q0 8 9 17v568q5 8 8 8h7
q8 -5 8 -8zM367 1527q5 -30 27 -30q23 0 28 32q-7 23 -13 23q0 -17 -8 -17h-7q-8 0 -8 21q-19 -9 -19 -29z" />
    <glyph glyph-name="quotedblright" unicode="&#x201d;" horiz-adv-x="557" 
d="M107 2216h7q3 0 8 -8v-568q9 -9 9 -17v-6q0 -8 -9 -17v-4h40q34 0 34 -40v-124q0 -22 2 -53q0 -132 -120 -204q-29 -15 -49 -15h-6q-17 0 -23 27q0 49 19 61q46 21 69 89q0 8 3 8q0 38 -49 38q-42 0 -42 49v122q0 42 42 42h51q-13 12 -13 25q4 21 15 21q0 44 -34 80
q-9 -8 -17 -8h-6q-16 0 -23 23q4 28 25 28h2q18 0 30 -30q18 -12 25 -34h2v507q0 3 8 8zM122 1556q0 -21 -8 -21h-7q-8 0 -8 17q-6 0 -13 -23q5 -32 28 -32q22 0 27 30q0 20 -19 29zM397 2216h7q3 0 8 -8v-568q9 -9 9 -17v-6q0 -8 -9 -17v-4h40q34 0 34 -40v-124
q0 -22 2 -53q0 -132 -120 -204q-29 -15 -49 -15h-6q-17 0 -23 27q0 49 19 61q46 21 69 89q0 8 3 8q0 38 -49 38q-42 0 -42 49v122q0 42 42 42h51q-13 12 -13 25q4 21 15 21q0 44 -34 80q-9 -8 -17 -8h-6q-16 0 -23 23q4 28 25 28h2q18 0 30 -30q18 -12 25 -34h2v507q0 3 8 8
zM412 1556q0 -21 -8 -21h-7q-8 0 -8 17q-6 0 -13 -23q5 -32 28 -32q22 0 27 30q0 20 -19 29z" />
    <glyph glyph-name="quotedblbase" unicode="&#x201e;" horiz-adv-x="910" 
d="M238 281q44 0 88.5 -65.5t44.5 -151.5q0 -109 -71 -226.5t-139 -117.5v43q73 43 87 190q0 119 -129 161v42zM591 281q44 0 88.5 -65.5t44.5 -151.5q0 -109 -71 -226.5t-139 -117.5v43q73 43 87 190q0 119 -129 161v42z" />
    <glyph glyph-name="dagger" unicode="&#x2020;" 
d="M486 1022q-8 97 -54 178q-57 101 -57 129q0 49 36 78.5t96 29.5q57 0 94.5 -27.5t37.5 -71.5q0 -32 -55 -137q-46 -85 -55 -179q96 8 177 54q101 57 129 57q49 0 79 -36t30 -96q0 -57 -27.5 -94.5t-72.5 -37.5q-32 0 -136 55q-85 46 -179 57q8 -176 110 -277
q-106 -460 -112 -974h-38q-6 514 -114 974q102 101 111 277q-96 -10 -178 -55q-101 -57 -129 -57q-49 0 -78.5 36t-29.5 96q0 57 27.5 94.5t71.5 37.5q32 0 137 -56q85 -46 179 -55z" />
    <glyph glyph-name="daggerdbl" unicode="&#x2021;" 
d="M528 186q94 11 179 57q104 55 136 55q45 0 72.5 -37.5t27.5 -94.5q0 -60 -30 -96t-79 -36q-28 0 -129 57q-81 46 -177 54q9 -94 55 -179q55 -105 55 -137q0 -44 -37.5 -71.5t-94.5 -27.5q-60 0 -96 29.5t-36 78.5q0 28 57 129q46 81 54 178q-94 -9 -179 -55
q-105 -56 -137 -56q-44 0 -71.5 37.5t-27.5 94.5q0 60 29.5 96t78.5 36q28 0 129 -57q82 -45 178 -55q-9 226 -111 398q102 171 111 397q-96 -10 -178 -55q-101 -57 -129 -57q-49 0 -78.5 36t-29.5 96q0 57 27.5 94.5t71.5 37.5q32 0 137 -56q85 -46 179 -55q-8 97 -54 178
q-57 101 -57 129q0 49 36 78.5t96 29.5q57 0 94.5 -27.5t37.5 -71.5q0 -32 -55 -137q-46 -85 -55 -179q96 8 177 54q101 57 129 57q49 0 79 -36t30 -96q0 -57 -27.5 -94.5t-72.5 -37.5q-32 0 -136 55q-85 46 -179 57q8 -226 110 -397q-102 -172 -110 -398z" />
    <glyph glyph-name="bullet" unicode="&#x2022;" horiz-adv-x="1024" 
d="M216 718q0 123 87 209t210 86q122 0 208.5 -86.5t86.5 -208.5t-87.5 -209.5t-209.5 -87.5q-123 0 -209 87t-86 210z" />
    <glyph glyph-name="ellipsis" unicode="&#x2026;" horiz-adv-x="2048" 
d="M145 167l82 84q15 14 29 14q13 0 31 -16l80 -86q12 -16 12 -29q0 -15 -14 -31l-80 -88q-20 -20 -29 -20q-16 0 -29 14l-88 101q-10 13 -10 26q0 15 16 31zM828 167l82 84q15 14 29 14q13 0 31 -16l80 -86q12 -16 12 -29q0 -15 -14 -31l-80 -88q-20 -20 -29 -20
q-16 0 -29 14l-88 101q-10 13 -10 26q0 15 16 31zM1511 167l82 84q15 14 29 14q13 0 31 -16l80 -86q12 -16 12 -29q0 -15 -14 -31l-80 -88q-20 -20 -29 -20q-16 0 -29 14l-88 101q-10 13 -10 26q0 15 16 31z" />
    <glyph glyph-name="guilsinglleft" unicode="&#x2039;" horiz-adv-x="631" 
d="M174 479l342 303h14v-37l-205 -266l205 -266v-37h-14z" />
    <glyph glyph-name="guilsinglright" unicode="&#x203a;" horiz-adv-x="631" 
d="M115 176h-14v37l205 266l-205 266v37h14l342 -303z" />
    <glyph glyph-name="fraction" unicode="&#x2044;" horiz-adv-x="342" 
d="M-342 -29l940 1461h84l-938 -1461h-86z" />
    <glyph glyph-name="fraction" unicode="&#x2215;" horiz-adv-x="342" 
d="M-342 -29l940 1461h84l-938 -1461h-86z" />
    <glyph glyph-name="franc" unicode="&#x20a3;" 
d="M247 357h-194v60h194v732q0 235 -103 235h-96v50h915l103 -231h-49q-59 182 -190 182l-316 -1q-102 0 -102 -235v-352h361q100 0 100 63v58h50v-342h-50v60q0 62 -100 62h-361v-281h194v-60h-194v-72q0 -235 102 -235h97v-50h-560v50h96q103 0 103 235v72z" />
    <glyph glyph-name="lira" unicode="&#x20a4;" 
d="M748 1347q-72 31 -160 31h-2q-100 0 -190 -101q-84 -93 -84 -241q0 -15 1 -30q0 -106 33 -213h380v-60h-360q12 -30 26 -60h352v-60h-321q35 -63 35 -138q0 -161 -162 -375h402q130 0 189 132l49 -1l-103 -231h-719l1 50q187 238 187 418q0 77 -34 143l-2 2h-172v60h143
q-14 31 -26 60h-135v60h113q-36 107 -36 193q0 226 123.5 347t310.5 121q75 0 185.5 -14t110.5 -34v-161h-58q-5 61 -77 102z" />
    <glyph glyph-name="peseta" unicode="&#x20a7;" horiz-adv-x="2028" 
d="M409 1384v-662q3 -9 7 -17q41 -102 108 -153q57 -44 116 -44q10 0 19 1q68 8 127 75t87 177q22 87 22 179q0 24 -1 47q-7 116 -49.5 218.5t-108.5 144.5q-56 35 -112 35q-10 0 -21 -1h-194zM1496 908h-179v-685q0 -81 34 -119q28 -31 81 -37l-71 192l49 1
q55 -130 114 -174q57 -44 127 -44h7q92 0 151 52q59 53 59 136q0 102 -259 226q-101 52 -144 112t-43 145q0 121 73 194zM1039 910q-7 -101 -48 -194q-50 -114 -141 -177.5t-190 -63.5q-100 0 -191 64q-33 22 -60 51v-305q0 -235 102 -235h97v-50h-560v50h96q103 0 103 235
v864q0 235 -103 235h-96v50h618q92 -2 181 -62q91 -62 143 -177q50 -113 51 -237h10q216 0 216 355h50v-355h259q42 19 110 20h2q54 0 133.5 -13.5t79.5 -33.5v-159h-42q-4 66 -65.5 108t-133.5 42q-64 0 -102.5 -36.5t-38.5 -96.5q0 -108 235 -220q122 -55 167.5 -117.5
t45.5 -153.5q0 -140 -83 -231q-102 -84 -228 -86q-58 0 -105 11q-28 6 -56 6q-18 0 -36 -3q-28 -5 -59 -5q-124 0 -173.5 57t-57.5 176h-1v687h-129z" />
    <glyph glyph-name="Euro" unicode="&#x20ac;" 
d="M140 372q-62 135 -76 281h-108l17 60h87v29q0 16 1 31h-71l17 60h58q14 145 76 281q81 178 226 274t298 96q43 0 87 -8q40 -10 82 -29q8 -6 16 -6q20 0 34 45h41l84 -281l-40 -1q-49 134 -138 178q-43 22 -81 32v3q-50 16 -101 16q-17 0 -34 -2q-120 -12 -226 -113.5
t-157 -273.5q-32 -104 -39 -211h706l-17 -60h-692q0 -30 2 -60h674l-17 -60h-652q17 -158 83 -298q74 -157 193 -236q102 -68 216 -69q186 3 256 91q74 91 74 185h48v-143q0 -70 -111 -127q-105 -54 -267 -56q-181 0 -325.5 98t-223.5 274z" />
    <glyph glyph-name="uni2116" unicode="&#x2116;" horiz-adv-x="2271" 
 />
    <glyph glyph-name="trademark" unicode="&#x2122;" horiz-adv-x="1497" 
 />
    <glyph glyph-name="partialdiff" unicode="&#x2202;" 
d="M232 537q0 -41 5 -79q14 -122 61.5 -230t118.5 -165q64 -53 128 -53q6 0 13 1q70 5 127.5 70.5t80.5 179.5q16 73 16 149q0 42 -5 85q-14 122 -62.5 231.5t-119.5 165.5q-65 50 -128 50h-11q-68 -5 -126 -69.5t-82 -178.5q-16 -84 -16 -157zM937 477q0 -132 -56.5 -251
t-159 -185t-214.5 -66t-214.5 66t-159 185t-56.5 251q0 131 58 251t161 185t211 65q109 0 212 -65q29 -18 54 -41q-84 235 -233.5 377t-326.5 155v55q306 0 515 -285t209 -697z" />
    <glyph glyph-name="Delta" unicode="&#x2206;" horiz-adv-x="1081" 
d="M514 1195l-406 -1072h801zM547 1434l526 -1434h-1067z" />
    <glyph glyph-name="product" unicode="&#x220f;" horiz-adv-x="1515" 
d="M511 1384q-102 0 -102 -235v-1281q0 -235 102 -235h97v-51h-560v51h96q103 0 103 235v1281q0 235 -103 235h-96v50h1419v-50h-97q-102 0 -102 -235v-1281q0 -235 102 -235h97v-50h-560v50h96q103 0 103 235v1281q0 235 -103 235h-492z" />
    <glyph glyph-name="summation" unicode="&#x2211;" horiz-adv-x="1206" 
d="M1059 548l-788 -914h635q130 0 189 182h49l-103 -232h-921v50q62 0 106 53l663 781l-663 859q-44 57 -106 57v50h921l103 -232h-49q-59 182 -189 182h-485z" />
    <glyph glyph-name="minus" unicode="&#x2212;" 
d="M87 647v140h839l1 -1v-139h-840z" />
    <glyph glyph-name="radical" unicode="&#x221a;" 
d="M181 0l-164 359l74 35l85 -185l728 1470h150v-60h-72z" />
    <glyph glyph-name="infinity" unicode="&#x221e;" 
d="M439 755q-15 103 -74 133q-46 22 -84 22q-12 0 -23 -2q-49 -10 -92.5 -44.5t-65.5 -84.5q-20 -46 -20 -90v-8q2 -48 27.5 -89t71.5 -58q29 -11 61 -11q16 0 33 3q47 10 90.5 43.5t75.5 185.5zM466 687q12 -96 94 -153q69 -48 123 -48q11 0 21 2q62 12 117.5 52t84.5 101
q26 54 26 108v11q-2 60 -35.5 108.5t-91.5 68.5q-37 13 -76 13q-22 0 -44 -4q-67 -9 -127 -62t-92 -197zM450 827q9 35 21 69q34 88 95 137t128 49t128 -48t95 -135t34 -182t-34 -182t-95 -135t-128 -48t-128 49t-95 136q-12 35 -21 70q-5 -21 -12 -41q-27 -73 -74 -113
t-99 -40t-100 41t-73.5 113.5t-25.5 149.5q0 76 25.5 149t73.5 114t100 41t99 -40t74 -112q7 -21 12 -42z" />
    <glyph glyph-name="integral" unicode="&#x222b;" horiz-adv-x="665" 
d="M-12 -281q-60 0 -60 29v159h36q1 -43 34.5 -64.5t63.5 -21.5h1q82 0 115 162q32 162 40 316l70 734l8 62q27 238 135 429.5t234 191.5q60 0 60 -29v-159h-36q-1 43 -35 64.5t-63 21.5q-71 0 -116 -155.5t-49 -363.5l-73 -767q-20 -231 -130.5 -420t-234.5 -189z" />
    <glyph glyph-name="approxequal" unicode="&#x2248;" 
d="M923 1053v-156q-63 -72 -122 -97.5t-116 -25.5q-60 0 -177.5 48.5t-176.5 48.5q-51 0 -107.5 -28t-129.5 -112v156q64 73 123 99t114 26q64 0 181.5 -49.5t172.5 -49.5q52 0 108.5 28t129.5 112zM923 705v-156q-63 -72 -122 -97.5t-116 -25.5q-60 0 -177.5 48.5
t-176.5 48.5q-51 0 -107.5 -28t-129.5 -112v156q64 73 123 99t114 26q64 0 181.5 -49.5t172.5 -49.5q52 0 108.5 28t129.5 112z" />
    <glyph glyph-name="lessequal" unicode="&#x2264;" 
d="M927 1074l-625 -359l625 -355v-167l-840 481v83l840 484v-167zM87 1v140h839l1 -1v-139h-840z" />
    <glyph glyph-name="greaterequal" unicode="&#x2265;" 
d="M87 1241l840 -484v-83l-840 -481v167l625 355l-625 359v167zM87 2v140h839l1 -1v-139h-840z" />
    <glyph glyph-name="uniF001" unicode="&#xf001;" horiz-adv-x="1073" 
 />
    <glyph glyph-name="uniF001" unicode="&#xfb01;" horiz-adv-x="1073" 
 />
    <glyph glyph-name="uniF002" unicode="&#xf002;" horiz-adv-x="1081" 
 />
    <glyph glyph-name="uniF002" unicode="&#xfb02;" horiz-adv-x="1081" 
 />
    <glyph glyph-name="uni0401" unicode="&#x401;" horiz-adv-x="1072" 
d="M279 2202h7q4 0 11 -10v-906q10 -11 10 -20v-8q0 -9 -10 -20v-23h2q697 -104 740 -119q13 -14 13 -31q-12 -177 -53 -177h-5q-11 0 -543 81h-17q-34 0 -41 -46q-23 -142 -23 -162v-5q0 -39 64 -46q420 -60 476 -76q18 -11 18 -35q-9 -160 -53 -160h-8l-492 76
q-56 0 -56 -76q-25 -138 -25 -175v-5q8 -43 91 -43q24 -5 502 -79q28 -14 28 -32v-8q-14 -170 -40 -170q-9 -5 -16 -5q-791 117 -841 132q-18 17 -18 35l172 1113q15 26 38 26q16 0 59 -8v13q-20 0 -23 30q5 25 18 25q0 54 -41 97q-4 -10 -18 -10h-15q-20 11 -20 28v5
q0 20 28 27h5q23 0 30 -32q14 0 33 -44h3v833q0 4 10 10zM241 1119q8 -41 45 -41q30 0 38 41q0 22 -22 38h-5q0 -18 -11 -18h-7q-6 0 -13 18q-25 -15 -25 -38zM531 1462q6 -19 12 -19h7q10 0 10 19h5q22 -14 22 -37q-8 -39 -37 -39q-36 0 -44 39q0 24 25 37zM832 1412
q6 -19 12 -19h7q10 0 10 19h5q22 -14 22 -37q-8 -39 -37 -39q-36 0 -44 39q0 24 25 37zM862 1480q8 9 8 22v2q0 3 -8 25v670q-6 10 -10 10h-7q-10 -6 -10 -10v-606h-2q0 19 -35 46q-7 32 -29 32h-5q-27 -6 -27 -27v-5q0 -23 27 -27h12q12 7 13 10q39 -42 39 -93
q-17 -11 -17 -25v-5q5 -27 24 -27v-10l-81 12q-30 -7 -36 -44l-18 -116q-3 -21 -5 -44q-5 -37 61 -47l111 -17q49 -5 50 -1q22 -3 29 42l23 155q6 38 -37 45l-70 11v22zM559 1525q8 9 8 22v2q0 3 -8 25v630q-6 10 -10 10h-7q-10 -6 -10 -10v-566h-2q0 19 -35 46
q-7 32 -29 32h-5q-27 -6 -27 -27v-5q0 -23 27 -27h12q12 7 13 10q39 -42 39 -93q-17 -11 -17 -25v-5q5 -27 24 -27v-5l-78 12q-30 -7 -36 -44l-18 -116q-3 -21 -5 -44q-5 -37 61 -47l111 -17q49 -5 50 -1q22 -3 29 42l23 155q6 38 -37 45l-73 11v17z" />
    <glyph glyph-name="uni0410" unicode="&#x410;" horiz-adv-x="1184" 
d="M582 2196h7q4 0 11 -10v-916q10 -11 10 -21v-8q0 -7 -5 -15h80q48 0 71 -97q137 -356 371 -994q20 -38 36 -106q0 -25 -41 -29q-26 0 -130 3q-39 -3 -52 -3q-50 0 -73 104q-52 155 -67 158q-12 13 -99 13h-296q-59 0 -73 -47q-66 -203 -85 -218q-28 -10 -52 -10h-68
q-12 0 -26 3q-9 -3 -23 -3h-18q-60 0 -60 26v10q0 20 231 616q78 216 205 545q22 29 52 29h65q-5 9 -5 20q5 26 18 26q0 55 -42 99q-4 -10 -18 -10h-15q-21 11 -21 28v5q0 22 29 29h5q24 0 31 -34q14 0 34 -44h2v841q0 4 11 10zM537 1098q8 -41 47 -41q30 0 39 41
q0 24 -23 39q0 -18 -11 -18h-7q-7 0 -13 21q-32 -15 -32 -42zM576 883q-24 -15 -41 -86q-101 -269 -101 -291q0 -31 49 -31q15 -2 70 -2h91q78 0 78 20v11q-13 68 -88 272q-31 107 -58 107z" />
    <glyph glyph-name="uni0411" unicode="&#x411;" horiz-adv-x="1099" 
d="M288 1031q8 -42 47 -42q31 0 40 42q0 24 -24 40q0 -19 -10 -19h-8q-7 0 -13 21q-32 -14 -32 -42zM306 146q0 -44 169 -60q102 -24 156 -24h34q114 0 148 113q6 25 6 40v21q0 109 -114 151q-32 13 -298 60l-6 -2l-10 2q-38 0 -48 -71q-37 -209 -37 -230zM449 904
q-21 -20 -21 -74q-27 -118 -27 -156q0 -32 24 -42q243 -50 319 -72q192 -61 262 -147q82 -89 82 -203v-11q0 -188 -145 -296q-111 -63 -217 -63h-39q-53 0 -72 8q-5 -3 -8 -3q-535 98 -583 109q-24 12 -24 37v2q0 14 209 1157q15 24 39 24q17 0 53 -8l-3 13v3q6 26 19 26
q0 56 -42 100q-5 -10 -19 -10h-16q-21 11 -21 29v5q0 22 29 29h6q24 0 31 -34q15 0 35 -45h2v898q0 4 11 11h8q4 0 10 -11v-975q11 -11 11 -21v-8q0 -9 -8 -18v-3h3q38 -7 75 -13q604 -90 644 -104q13 -14 13 -31q-12 -177 -53 -177h-5q-11 0 -543 81h-17q-13 0 -22 -7z" />
    <glyph glyph-name="uni0412" unicode="&#x412;" horiz-adv-x="1143" 
d="M333 2191h8q4 0 10 -11v-975q11 -11 11 -21v-8q0 -9 -8 -18v-3h3q451 -76 554 -106q58 -21 135 -73q67 -67 76 -127q11 -50 11 -61q0 -214 -166 -290q-16 -12 -16 -24q0 -19 55 -61q82 -89 82 -203v-11q0 -188 -145 -296q-111 -63 -217 -63h-39q-53 0 -72 8q-5 -3 -8 -3
q-535 98 -583 109q-24 12 -24 37v2q0 14 209 1157q15 24 39 24q17 0 53 -8l-3 13v3q6 26 19 26q0 56 -42 100q-5 -10 -19 -10h-16q-21 11 -21 29v5q0 22 29 29h6q24 0 31 -34q15 0 35 -45h2v898q0 4 11 11zM288 1031q8 -42 47 -42q31 0 40 42q0 24 -24 40q0 -19 -10 -19h-8
q-7 0 -13 21q-32 -14 -32 -42zM401 674q0 -32 24 -42q243 -50 291 -50q74 0 121 66q21 49 21 90q0 117 -185 148l-190 31q-55 0 -55 -87q-27 -118 -27 -156zM306 146q0 -44 169 -60q102 -24 156 -24h34q114 0 148 113q6 25 6 40v21q0 109 -114 151q-32 13 -298 60l-6 -2
l-10 2q-38 0 -48 -71q-37 -209 -37 -230z" />
    <glyph glyph-name="uni0413" unicode="&#x413;" horiz-adv-x="879" 
d="M474 2224h8q4 0 10 -11v-931q11 -12 11 -21v-8q0 -10 -11 -21v-16q319 73 341 73q39 0 58 -139q8 -13 8 -36q-4 -45 -35 -45l-275 -65q-249 -48 -249 -69q-5 -17 -5 -23v-5l204 -913v-3q0 -45 -118 -57q-55 -16 -107 -24q-40 0 -50 87q-244 1060 -244 1080v3q0 39 121 55
q33 10 322 73v18q-20 0 -23 32q5 26 18 26q0 56 -42 100q-4 -11 -18 -11h-16q-21 12 -21 29v5q0 22 29 29h5q24 0 31 -34q15 0 35 -44h2v855q0 4 11 11zM434 1108q8 -41 48 -41q30 0 39 41q0 24 -24 40h-5q0 -19 -10 -19h-8q-6 0 -13 19q-27 -15 -27 -40z" />
    <glyph glyph-name="uni0414" unicode="&#x414;" horiz-adv-x="1296" 
d="M600 1098q8 -41 47 -41q30 0 39 41q0 24 -23 39q0 -18 -11 -18h-7q-7 0 -13 21q-32 -15 -32 -42zM396 227h492q-126 373 -191 549q-31 107 -58 107q-24 -15 -41 -86q-130 -374 -202 -570zM290 0v-83q0 -52 -24 -52q0 -4 -31 -4h-156q-58 0 -58 37v136q-1 5 -1 10v128
q0 55 57 55h54q57 152 163 425q78 216 205 545q22 29 52 29h65q-5 9 -5 20q5 26 18 26q0 55 -42 99q-4 -10 -18 -10h-15q-21 11 -21 28v5q0 22 29 29h5q24 0 31 -34q14 0 34 -44h2v841q0 4 11 10h7q4 0 11 -10v-916q10 -11 10 -21v-8q0 -7 -5 -15h80q48 0 71 -97
q127 -330 337 -902h46q70 0 70 -47q4 -19 4 -52v-197q0 -40 -24 -40q0 -3 -31 -3h-156q-58 0 -58 29v84h-23q-22 -1 -31 -1q-6 0 -11 1l-493 -1q-40 2 -103 2h-16q-11 -2 -22 -2h-18z" />
    <glyph glyph-name="uni0415" unicode="&#x415;" horiz-adv-x="1032" 
d="M279 2202h7q4 0 11 -10v-906q10 -11 10 -20v-8q0 -9 -10 -20v-23h2q697 -104 740 -119q13 -14 13 -31q-12 -177 -53 -177h-5q-11 0 -543 81h-17q-34 0 -41 -46q-23 -142 -23 -162v-5q0 -39 64 -46q420 -60 476 -76q18 -11 18 -35q-9 -160 -53 -160h-8l-492 76
q-56 0 -56 -76q-25 -138 -25 -175v-5q8 -43 91 -43q24 -5 502 -79q28 -14 28 -32v-8q-14 -170 -40 -170q-9 -5 -16 -5q-791 117 -841 132q-18 17 -18 35l172 1113q15 26 38 26q16 0 59 -8v13q-20 0 -23 30q5 25 18 25q0 54 -41 97q-4 -10 -18 -10h-15q-20 11 -20 28v5
q0 20 28 27h5q23 0 30 -32q14 0 33 -44h3v833q0 4 10 10zM241 1119q8 -41 45 -41q30 0 38 41q0 22 -22 38h-5q0 -18 -11 -18h-7q-6 0 -13 18q-25 -15 -25 -38z" />
    <glyph glyph-name="uni0416" unicode="&#x416;" horiz-adv-x="1948" 
d="M1635 1062q9 -43 49 -43q32 0 41 43q0 25 -24 41h-6q0 -22 -11 -22h-8q-6 0 -13 22q-28 -15 -28 -41zM207 1064q0 -39 49 -46q41 8 41 49q-7 35 -30 35q0 -19 -11 -19h-8q-7 0 -13 22q-28 -15 -28 -41zM1655 1162q-10 12 -10 27q5 27 19 27q0 56 -44 103q-11 -11 -21 -11
h-9q-20 0 -30 30q6 36 33 36h3q23 0 38 -39q24 -15 33 -43h2v902q0 5 11 11h8q5 0 11 -11v-981q11 -11 11 -22v-8q0 -9 -9 -20q61 1 152 1q16 -5 19 -16l2 -5q1 -18 -61 -74l-356 -371q-11 -26 -7 -38l1 -3q4 -13 485 -676l7 -16q5 -15 -21 -26q-282 -11 -287 2
q-41 39 -154 216q-71 96 -206 292q-17 17 -36 10q-23 -7 -129 -133q-14 -5 -7 -252q7 -132 -17 -140l-7 -2q-31 -10 -215 -4q-19 6 -23 18l-3 9q-2 51 -5 282q-10 81 -15 83q-106 126 -129 133q-19 7 -36 -10q-136 -196 -206 -292q-114 -177 -155 -216q-4 -13 -287 -2
q-25 11 -21 26l8 16q480 663 485 676l1 3q4 12 -8 38l-355 371q-63 56 -61 74l1 5q4 11 19 16q93 0 155 -1q-11 12 -11 28q5 27 19 27q0 56 -44 103q-11 -11 -21 -11h-9q-20 0 -30 30q6 36 33 36h3q23 0 38 -39q24 -15 33 -43h2v902q0 5 11 11h8q5 0 11 -11v-981
q11 -11 11 -22v-8q0 -10 -11 -22v-1q57 -1 72 -4q28 -9 99 -92q87 -96 121 -130q220 -245 235 -250q16 -5 26 8l3 7q-2 190 -4 429q7 19 30 26q4 1 112.5 7.5t118.5 -24.5q1 -3 4 -7q8 -416 11 -425l2 -7q11 -13 27 -8q14 5 234 250q34 34 122 130q70 83 99 92q14 3 71 4z
" />
    <glyph glyph-name="uni0417" unicode="&#x417;" horiz-adv-x="886" 
d="M365 2211h7q4 0 11 -10v-865q10 -11 10 -21v-8q0 -9 -10 -20q50 2 67 2q233 0 369 -183q41 -84 41 -150v-5q0 -126 -80 -199q0 -5 -49 -36q-15 -12 -15 -15v-6q0 -17 72 -67q72 -83 72 -162q3 0 6 -31q-3 -16 -6 -16l3 -13v-2q0 -91 -83 -212q-132 -142 -361 -142h-3
q-69 0 -191 39q-245 112 -245 374q0 52 46 52q181 0 181 -42q23 -128 65 -165q63 -59 144 -59h5q132 0 179 119q13 37 13 54v10q0 113 -86 152q-22 18 -137 34q-29 0 -36 46q6 114 26 114q0 7 114 10q93 28 93 44q44 44 44 98q0 112 -127 155q-23 5 -33 5h-16
q-139 0 -186 -175q-11 -18 -33 -18h-8q-168 4 -168 23q-10 14 -10 28q26 129 95 210q101 104 204 121q-18 16 -18 33q5 26 18 26q0 54 -41 98q-11 -10 -21 -10h-8q-19 0 -28 28q5 34 31 34h3q21 0 36 -36q22 -15 31 -41h2v790q0 4 11 10zM326 1191q0 -37 46 -44q39 8 39 47
q-10 36 -28 36v-13q0 -4 -11 -10h-7q-4 0 -11 10v13h-2q-26 -15 -26 -39z" />
    <glyph glyph-name="uni0418" unicode="&#x418;" horiz-adv-x="1168" 
d="M868 1101q0 -32 44 -42q45 7 45 42q-5 37 -29 37q-5 -16 -10 -16h-11q-4 0 -13 18q-26 -14 -26 -39zM95 1041q8 -41 47 -41q30 0 39 41q0 24 -23 39h-5q0 -18 -11 -18h-8q-5 0 -13 18q-26 -14 -26 -39zM897 1212v1q-24 15 -24 31v5q0 15 19 26q0 55 -42 99q0 -3 -13 -10
h-13q-29 4 -29 29v5q0 21 29 28h5q24 0 31 -33q14 0 32 -39h2v5l1 826q28 17 28 -7v-908q9 0 13 -21v-2q0 -15 -11 -26v-6q110 10 115 -30q3 -21 72 -1065q16 -121 -29 -127q-161 -14 -192 -10q-19 8 -23 39l-1 5q-6 44 -49 697q-6 16 -16 24q-15 -2 -25 -13l-358 -665
q-52 -123 -97 -130q-43 1 -86 -5q-146 -15 -150 19q-4 29 -75 1106q-11 86 28 91q30 7 75 9q-14 14 -14 30q6 26 19 26q0 55 -42 99q-4 -11 -18 -11h-16q-21 11 -21 29v5q0 21 29 29h5q24 0 31 -34q15 0 34 -45h3v913q0 4 10 10h8q4 0 11 -10v-988q10 -11 10 -21v-8
q0 -9 -10 -20v-3h26q73 10 79 -36l1 -8q44 -665 47 -689l2 -16q2 -16 19 -19q8 1 27 27q333 624 352 654q53 123 96 128q10 2 95 10z" />
    <glyph glyph-name="uni0419" unicode="&#x419;" horiz-adv-x="1168" 
d="M868 1101q0 -32 44 -42q45 7 45 42q-5 37 -29 37q-5 -16 -10 -16h-11q-4 0 -13 18q-26 -14 -26 -39zM95 1041q8 -41 47 -41q30 0 39 41q0 24 -23 39h-5q0 -18 -11 -18h-8q-5 0 -13 18q-26 -14 -26 -39zM897 1212v1q-24 15 -24 31v5q0 15 19 26q0 55 -42 99q0 -3 -13 -10
h-13q-29 4 -29 29v5q0 21 29 28h5q24 0 31 -33q14 0 32 -39h2v5l1 826q28 17 28 -7v-908q9 0 13 -21v-2q0 -15 -11 -26v-6q110 10 115 -30q3 -21 72 -1065q16 -121 -29 -127q-161 -14 -192 -10q-19 8 -23 39l-1 5q-6 44 -49 697q-6 16 -16 24q-15 -2 -25 -13l-358 -665
q-52 -123 -97 -130q-43 1 -86 -5q-146 -15 -150 19q-4 29 -75 1106q-11 86 28 91q30 7 75 9q-14 14 -14 30q6 26 19 26q0 55 -42 99q-4 -11 -18 -11h-16q-21 11 -21 29v5q0 21 29 29h5q24 0 31 -34q15 0 34 -45h3v913q0 4 10 10h8q4 0 11 -10v-988q10 -11 10 -21v-8
q0 -9 -10 -20v-3h26q73 10 79 -36l1 -8q44 -665 47 -689l2 -16q2 -16 19 -19q8 1 27 27q333 624 352 654q53 123 96 128q10 2 95 10zM518 2192q-11 -7 -11 -11v-603h-2q-20 45 -34 45q-7 33 -31 33h-6q-28 -7 -28 -28v-5q0 -18 21 -29h15q14 0 18 10q42 -43 42 -99
q-13 0 -18 -26q3 -31 23 -31v-10h-162q-42 0 -42 -55v-128q0 -39 44 -44q58 2 94 2h4h262q52 0 52 50v75q0 34 -3 53q0 47 -52 47h-168v15q10 12 10 21v8q0 10 -10 21v678q-6 11 -10 11h-8zM505 1375h2v-13q7 -10 11 -10h8q10 6 10 10v13q19 0 29 -37q0 -38 -39 -46
q-47 6 -47 44q0 24 26 39z" />
    <glyph glyph-name="uni041A" unicode="&#x41a;" horiz-adv-x="1293" 
d="M464 2214h8q4 0 10 -10v-889q11 -11 11 -21v-8q0 -9 -11 -21v-10q118 -27 118 -60q0 -3 2 -8q-122 -398 -122 -407v-8q6 -15 23 -15q15 0 300 164q43 22 156 86q93 57 123 57q32 -4 258 -78q13 -10 13 -21v-5q-4 -18 -81 -52l-453 -242q-19 -21 -19 -34v-3
q0 -14 251 -793l2 -18q0 -15 -28 -18q-272 77 -272 91q-27 50 -80 253q-37 114 -105 342q-11 21 -31 21q-24 0 -164 -87q-14 0 -84 -237q-35 -128 -60 -128h-7q-33 0 -206 63q-16 12 -16 24v10q31 113 349 1116q13 15 37 15q4 0 47 -10l-3 18q5 26 18 26q0 56 -41 99
q-5 -10 -19 -10h-15q-21 11 -21 29v5q0 21 29 29h5q24 0 31 -34q15 0 34 -45h3v814q0 4 10 10zM425 1143q8 -42 47 -42q30 0 39 42q0 23 -23 39h-6q0 -18 -10 -18h-8q-6 0 -13 18q-26 -15 -26 -39z" />
    <glyph glyph-name="uni041B" unicode="&#x41b;" horiz-adv-x="1107" 
d="M494 1157q7 -18 13 -18h7q11 0 11 18h5q22 -16 22 -38q-8 -41 -38 -41q-37 0 -45 41q0 23 25 38zM497 1220l-44 7q-6 1 -13 2q-9 -1 -33 -15q-7 -9 -20 -96q-19 -117 -66 -426q-46 -326 -68 -371q-12 -23 -35 -47q-37 -24 -97 -22q-50 5 -103 10q-7 -1 -16 -6
q-25 -1 -32 -171l1 -8q1 -19 29 -31l69 -6q124 -15 185 -1q161 28 228 161q14 29 37 97q12 41 105 669l8 -2q163 -16 164 -49q1 -30 -6 -68q1 -12 -138 -896l3 -14q1 -26 231 -55q26 7 35 23q22 109 186 1179q0 32 -25 43q-62 12 -557 89zM497 1220v13q-20 0 -23 30
q5 25 18 25q0 54 -41 97q-4 -10 -18 -10h-15q-20 11 -20 28v5q0 20 28 27h5q23 0 30 -32q14 0 33 -44h3v833q0 4 10 10h7q4 0 11 -10v-906q10 -11 10 -20v-8q0 -9 -10 -20v-22zM453 1227q14 -2 16 -2.5t-16 2.5z" />
    <glyph glyph-name="uni041C" unicode="&#x41c;" horiz-adv-x="1425" 
d="M170 2206h8q4 0 10 -11v-782q11 -11 11 -21v-8q0 -9 -11 -21q2 0 16 -3q250 -4 250 -23q15 -14 65 -203l174 -591q7 -8 18 -16q24 0 50 90q237 630 260 686q26 18 34 18l182 -8l-3 13v3q5 26 19 26q0 56 -42 100q-5 -11 -19 -11h-16q-21 12 -21 29v6q0 21 29 29h5
q25 0 32 -35q14 0 32 -39h2v8q0 58 -2 756l10 8h8l10 -8q3 -392 3 -412q0 -99 3 -436q10 -4 10 -19v-7l-2 -14q97 -1 97 -15q13 -11 13 -27q-50 -1145 -58 -1180q-17 -18 -37 -18q-207 0 -207 32l-3 10l32 702q-3 60 -11 60h-8q-27 -19 -84 -181q-210 -524 -234 -576
q-20 -21 -50 -21q-163 0 -163 24q-23 35 -81 255q-13 31 -139 462q-24 66 -35 66h-2q-24 0 -32 -323l-23 -436q-17 -24 -42 -24q-203 4 -203 26q-5 23 -5 29q50 1136 58 1167q10 17 37 24q2 0 2 -3l13 3h3l13 -3q-10 11 -10 26q5 27 18 27q0 55 -42 99q-4 -10 -18 -10h-16
q-21 11 -21 29v5q0 22 29 29h5q24 0 31 -34q15 0 35 -45h2v706q0 5 11 11zM130 1239q8 -42 48 -42q30 0 39 42q0 24 -24 40h-5q0 -18 -10 -18h-8q-6 0 -13 18q-27 -15 -27 -40zM1229 1179q8 -42 47 -42q30 0 40 42q0 24 -24 39h-3q0 -10 -13 -18q-15 0 -21 18
q-26 -14 -26 -39z" />
    <glyph glyph-name="uni041D" unicode="&#x41d;" horiz-adv-x="1208" 
d="M234 2219h8q4 0 11 -11v-1003q10 -11 10 -21v-9q0 -9 -10 -21v-24q121 0 121 -38q3 0 3 -8q-11 -283 -22 -396q0 -54 54 -54q345 -21 422 -21q44 0 44 91q13 369 24 369q13 19 46 19h53l19 -3v14q-20 0 -24 32q5 27 19 27q0 56 -43 102q-12 -10 -22 -10h-8q-20 0 -29 29
q5 35 32 35h3q22 0 37 -38q24 -15 33 -43h2v971q0 5 11 11h8q4 0 11 -11v-1049q11 -11 11 -21v-8q0 -10 -11 -22v-21h29q92 0 92 -38q-59 -1214 -67 -1214q-21 -18 -43 -19q-221 4 -221 32q-6 12 -6 35v3l22 455q0 38 -83 38q-334 18 -388 18q-46 0 -46 -86
q-16 -433 -29 -433q0 -19 -46 -19h-3q-207 5 -207 22q-11 14 -11 29v11q55 1193 65 1193q18 21 35 21q49 -3 83 -3v17q-21 0 -24 32q5 27 19 27q0 57 -43 102q-5 -11 -19 -11h-16q-22 12 -22 30v5q0 22 30 30h5q25 0 32 -35q15 0 35 -46h3v925q0 5 11 11zM193 1027
q9 -43 49 -43q31 0 40 43q0 25 -24 41h-5q0 -19 -11 -19h-8q-6 0 -14 19q-27 -15 -27 -41zM988 984q0 -39 48 -45q40 8 40 48q-7 35 -29 35q0 -19 -16 -19q-16 6 -16 22q-27 -15 -27 -41z" />
    <glyph glyph-name="uni041E" unicode="&#x41e;" horiz-adv-x="1249" 
d="M579 2206h8q4 0 11 -11v-897q10 -11 10 -21v-8q0 -10 -10 -22v-8h47q227 0 407 -170q94 -104 125 -191q55 -147 55 -265q3 0 3 -16q0 -378 -271 -569q-163 -98 -340 -98q-320 0 -504 244q-82 113 -115 316q0 4 -2 38q0 2 2 16q-5 19 -5 39q0 15 5 30q0 2 -2 16
q0 82 50 241q29 70 93 160q112 120 207 156q38 24 162 48q45 5 53 5v3q-20 0 -24 32q6 26 19 26q0 57 -42 101q-5 -10 -19 -10h-16q-21 11 -21 29v5q0 22 29 29h5q25 0 32 -34q15 0 35 -45h2v820q0 4 11 11zM539 1128q0 -39 48 -45q40 8 40 47q-10 38 -29 38v-14
q0 -4 -11 -10h-8q-4 0 -11 10v14h-2q-27 -15 -27 -40zM274 586q2 -125 47 -236q35 -74 91 -123q97 -66 188 -66h45q78 0 178 66q74 71 107 160q21 62 31 191q-6 96 -29 194q-29 78 -71 133q-93 106 -247 106q-171 0 -269 -146q-48 -83 -63 -189q-3 -52 -8 -90z" />
    <glyph glyph-name="uni041F" unicode="&#x41f;" horiz-adv-x="966" 
d="M443 1092q0 -38 47 -44q39 8 39 46q-10 37 -29 37v-13q0 -4 -10 -10h-8q-4 0 -11 10v13h-2q-26 -15 -26 -39zM471 1194v10q-20 0 -23 31q5 26 18 26q0 56 -42 99q-4 -10 -18 -10h-15q-21 11 -21 29v5q0 21 28 28h6q24 0 31 -33q14 0 34 -45h2v863q0 4 11 11h8q4 0 10 -11
v-938q10 -11 10 -21v-8q0 -9 -10 -21v-15q146 0 207 -1l111 1q38 2 60 -3q6 -1 8 -1q6 -1 10 -5q16 -9 17 -23q-1 -11 -1 -20q6 -32 2 -83v-23q1 -9 1 -21q11 -1036 4 -1036q-21 -19 -43 -20q-221 -7 -222 19q-6 12 -7 35l-1 2q-8 668 -8 951l-52 -1q-254 8 -258 -13
q-9 -15 -10 -21l-1 -5q-7 -185 0 -936l-1 -3q-10 -43 -128 -29q-57 -4 -109 -1q-39 9 -30 96q-7 1088 -2 1108v2q9 38 130 28q35 2 267 3h27z" />
    <glyph glyph-name="uni0420" unicode="&#x420;" horiz-adv-x="1094" 
d="M271 2208h8q4 0 10 -10v-966q11 -11 11 -21v-8q0 -9 -11 -20v-11q451 -46 474 -54q59 -14 143 -54q168 -114 168 -314q0 -249 -194 -360q-87 -44 -223 -44l-290 31q-49 0 -49 -93l-36 -308q-18 -26 -50 -26q-202 22 -202 34q-10 14 -10 23q3 58 124 1145q11 31 44 31
q23 0 65 -5q-15 14 -15 31q5 25 18 25q0 55 -42 99q-4 -10 -18 -10h-15q-21 11 -21 28v5q0 22 28 29h6q23 0 31 -34q14 0 33 -44h3v891q0 4 10 10zM232 1066q0 -37 47 -44q39 8 39 47q-10 36 -29 36v-13q0 -4 -10 -10h-8q-4 0 -10 10v13h-3q-26 -15 -26 -39zM357 621
q0 -47 129 -47q61 -10 166 -10q131 0 160 145q3 15 3 41v5q0 114 -122 156q-150 36 -269 36h-3q-32 0 -36 -57q-28 -222 -28 -269z" />
    <glyph glyph-name="uni0421" unicode="&#x421;" horiz-adv-x="1233" 
d="M550 2203h8q4 0 11 -11v-937q10 -11 10 -21v-9q0 -9 -10 -21v-19q67 3 70 5q250 0 422 -219q49 -84 49 -103v-8q0 -41 -222 -68h-3q-31 0 -62 57q-90 100 -230 100q-143 0 -249 -127q-68 -90 -68 -249v-16q0 -6 3 -11l-3 -6q15 -135 54 -222q33 -80 109 -154
q78 -76 224 -76q85 0 182 63q100 97 100 219q0 73 51 73q163 38 187 38q30 -9 30 -52v-46q0 -215 -162 -376q-189 -157 -423 -157q-297 0 -482 238q-76 103 -124 274q-22 111 -22 176v32q0 281 203 463q123 105 271 136q46 10 65 10v19q-21 0 -25 33q6 27 19 27
q0 57 -43 103q-4 -11 -19 -11h-16q-22 12 -22 30v5q0 22 30 30h5q25 0 33 -35q15 0 35 -46h3v858q0 4 11 11zM509 1077q8 -44 49 -44q31 0 40 44q0 24 -24 40h-5q0 -19 -11 -19h-8q-6 0 -14 19q-27 -15 -27 -40z" />
    <glyph glyph-name="uni0422" unicode="&#x422;" horiz-adv-x="1026" 
d="M495 2212h8q4 0 10 -11v-938q10 -11 10 -21v-8q0 -9 -10 -21v-15h448q52 0 52 -47q3 -19 3 -53v-75q0 -50 -52 -50h-203q-105 0 -105 -18q-10 0 -10 -88v-827q0 -65 -24 -65q0 -5 -31 -5h-156q-58 0 -58 47v860q0 21 -2 49l2 6q-9 39 -49 39q-29 2 -76 2h-104
q-36 0 -94 -2q-44 5 -44 44v128q0 55 42 55h432v10q-20 0 -23 31q5 26 18 26q0 56 -42 99q-4 -10 -18 -10h-15q-21 11 -21 29v5q0 21 28 28h6q24 0 31 -33q14 0 34 -45h2v863q0 4 11 11zM456 1096q0 -38 47 -44q39 8 39 46q-10 37 -29 37v-13q0 -4 -10 -10h-8q-4 0 -11 10
v13h-2q-26 -15 -26 -39z" />
    <glyph glyph-name="uni0423" unicode="&#x423;" horiz-adv-x="1159" 
d="M257 2221h8q4 0 10 -10v-940q11 -12 11 -21v-8q0 -10 -11 -21v-21q131 -20 131 -84l123 -457l16 -11h15q10 1 238 220q132 131 149 131l21 5q202 -53 235 -73l6 -8v-8q0 -23 -186 -186q-183 -175 -408 -395q-43 -52 -225 -240q-182 -209 -199 -209q-9 -5 -16 -5h-3
q-32 0 -209 60q-13 16 -13 26q0 12 375 421v21q-7 55 -115 442q-65 237 -94 363q0 21 29 24q28 -6 102 -27v6q-20 0 -24 31q5 26 18 26q0 54 -41 99q-11 -10 -21 -10h-8q-20 0 -29 29q5 34 32 34h2q22 0 37 -37q22 -15 31 -42h3v865q0 4 10 10zM218 1103q0 -37 47 -44
q39 8 39 47q-10 36 -29 36v-13q0 -4 -10 -10h-8q-4 0 -10 10v13h-3q-26 -14 -26 -39z" />
    <glyph glyph-name="uni0424" unicode="&#x424;" horiz-adv-x="1741" 
d="M995 440q5 -47 134 -32q61 -3 166 9q130 15 142 162q1 76 -2 141v5q-13 114 -139 141q-153 19 -272 5h-3q-31 -4 -29 -61q-2 -323 3 -370zM725 436v51l2 5v351q-6 25 -27 28h-3q-118 14 -271 -5q-126 -27 -139 -141l-1 -5q-3 -65 -2 -141q13 -147 143 -162
q104 -12 166 -9q122 -14 132 28zM364 957q0 -39 49 -46q41 8 41 49q-7 35 -30 35q0 -19 -11 -19h-8q-7 0 -13 22q-28 -15 -28 -41zM1283 964q9 -43 49 -43q32 0 41 43q0 25 -24 41h-6q0 -22 -11 -22h-8q-6 0 -13 22q-28 -15 -28 -41zM1343 1080q60 -7 147 -37
q180 -94 203 -293q28 -347 -152 -480q-81 -53 -217 -69l-291 -2q-31 -4 -38 -42v-102q0 -38 -34 -52q-12 0 -16 -3q-44 3 -68 3h-96q-54 0 -54 52v101q-7 39 -39 43l-291 2q-135 16 -217 69q-180 133 -151 480q23 199 202 293q88 30 149 37q-10 12 -10 27q5 27 19 27
q0 56 -44 103q-11 -11 -21 -11h-9q-20 0 -30 30q6 36 33 36h3q23 0 38 -39q24 -15 33 -43h2v982q0 5 11 11h8q5 0 11 -11v-1061q11 -11 11 -22v-8q0 -9 -8 -19q81 2 300 -1v43q0 21 -3 49q5 55 44 55h185q42 0 42 -70v-77q238 3 313 1q-19 14 -19 29v6q0 15 19 27
q0 55 -44 103h-2q-5 -11 -19 -11h-8q-21 0 -30 30q5 36 32 36q36 -4 36 -36q16 0 38 -46h2v970q0 4 11 11h8q5 0 11 -11v-1049q11 -14 11 -24v-3q0 -16 -11 -27v-7z" />
    <glyph glyph-name="uni0425" unicode="&#x425;" horiz-adv-x="1311" 
d="M661 2220h7q4 0 10 -10v-1068q10 -11 10 -19v-8q0 -9 -10 -20v-2q83 45 102 49h11q14 -10 14 -17l-59 -602q0 -33 138 -92l461 -258q0 -4 6 -12q0 -24 -131 -83q-77 -47 -104 -51q-31 2 -164 85q-216 123 -223 123h-10q-23 0 -28 -135q-18 -163 -27 -295q0 -31 -133 -91
q-73 -44 -93 -44q-22 7 -22 29l66 639q0 42 -78 75q-3 4 -457 247q-14 12 -17 23q0 23 98 65q106 62 122 62h19q27 -11 299 -172q26 -17 41 -17h11q22 0 31 218q14 197 30 197l70 45v10q-18 0 -21 29q4 24 17 24q0 50 -40 93q-10 -10 -19 -10h-7q-19 0 -27 27q4 32 29 32h2
q21 0 34 -34q21 -14 30 -40h2v998q0 5 10 10zM624 985q0 -35 44 -42q38 9 38 45q-10 34 -28 34v-12q0 -4 -10 -10h-7q-4 0 -10 10v12h-2q-25 -14 -25 -37z" />
    <glyph glyph-name="uni0426" unicode="&#x426;" horiz-adv-x="1155" 
d="M163 1027q9 -43 49 -43q31 0 40 43q0 25 -24 41h-5q0 -19 -11 -19h-8q-6 0 -14 19q-27 -15 -27 -41zM865 991q0 -39 48 -45q40 8 40 48q-7 35 -29 35q0 -19 -16 -19q-16 6 -16 22q-27 -15 -27 -41zM894 1096v14q-20 0 -24 32q5 27 19 27q0 56 -43 102q-12 -10 -22 -10h-8
q-20 0 -29 29q5 35 32 35h3q22 0 37 -38q24 -15 33 -43h2v961q0 5 11 11h8q4 0 11 -11v-1039q11 -11 11 -21v-8q0 -10 -11 -22v-20l29 -1q92 0 92 -38q-34 -704 -51 -1000l37 -3q84 -15 79 -82q-17 -225 -21 -270q-21 -18 -43 -19q-221 4 -221 32q-6 12 -6 35v3l4 79
q-452 29 -590 28h-5q-207 5 -207 22q-11 14 -11 29v11q55 1193 65 1193q18 21 35 21q31 -2 79 -3h4v17q-21 0 -24 32q5 27 19 27q0 57 -43 102q-5 -11 -19 -11h-16q-22 12 -22 30v5q0 22 30 30h5q25 0 32 -35q15 0 35 -46h3v915q0 5 11 11h8q4 0 11 -11v-993q10 -11 10 -21
v-9q0 -9 -10 -21v-24q121 0 121 -38q3 0 3 -8q-1 -33 -3 -63q-10 -270 -31 -681q-6 -121 -11 -210q9 -33 51 -33q252 -14 329 -14q27 0 37 39q23 472 37 711q11 247 20 247q13 19 46 19h53l17 -3h2z" />
    <glyph glyph-name="uni0427" unicode="&#x427;" horiz-adv-x="989" 
d="M149 1105q0 -38 46 -44q39 8 39 46q-10 36 -28 36v-13q0 -4 -11 -10h-7q-4 0 -11 10v13h-2q-26 -14 -26 -38zM805 1030q8 -41 46 -41q30 0 39 41q0 23 -23 39h-5q0 -21 -11 -21h-7q-7 0 -13 21q-26 -15 -26 -39zM158 1216q-5 10 -5 21q5 26 18 26q0 55 -41 98
q-4 -10 -18 -10h-16q-20 11 -20 28v5q0 22 28 29h5q24 0 31 -34q15 0 34 -44h2v859q0 4 11 10h7q4 0 11 -10v-933q10 -11 10 -21v-8q0 -9 -10 -20q130 -14 130 -40q2 -13 2 -14l-29 -315l1 -23q-1 -159 117 -208q72 -30 128 -30l60 -6l35 -4l52 482q2 21 2 49q11 54 50 50
l67 -7q-10 14 -10 23v5q0 13 23 31v998q0 4 11 10h7q4 0 11 -10v-908q24 19 33 44q11 10 26 10q28 -4 28 -28v-5q0 -17 -20 -28h-13q-10 0 -23 10q-31 -40 -31 -64v-37q10 -13 10 -23v-13l-10 -15v-5l75 -8q42 -4 34 -74l-119 -1096q-4 -38 -39 -48q-12 1 -16 -2
q-44 8 -68 11l-95 10q-54 6 -48 58l40 367q-15 -1 -30 0q-415 17 -515 260q-41 104 -40 188l-1 13q1 52 37 377q16 23 40 22q22 -1 41 -3z" />
    <glyph glyph-name="uni0428" unicode="&#x428;" horiz-adv-x="1430" 
d="M1143 1076q9 -43 49 -43q32 0 41 43q0 25 -24 41h-6q0 -22 -11 -22h-8q-6 0 -13 22q-28 -15 -28 -41zM136 1076q9 -43 49 -43q32 0 41 43q0 25 -24 41h-6q0 -22 -11 -22h-8q-6 0 -13 22q-28 -15 -28 -41zM1172 1190q-23 17 -23 33v6q0 15 19 27q0 55 -44 103h-2
q-5 -11 -19 -11h-8q-21 0 -30 30q5 36 32 36q36 -4 36 -36q16 0 38 -46h2v880q0 4 11 11h8q5 0 11 -11v-959q11 -14 11 -24v-3q0 -16 -11 -27v-9l38 1q92 5 94 -33q5 -1216 -3 -1216q-20 -19 -42 -21h-500q-103 -4 -159 0q-204 1 -359 1h-3q-207 -6 -208 11q-12 13 -13 28
v11q-8 1194 2 1195q17 22 34 23q31 -1 80 1q-22 16 -22 32v6q0 15 19 27q0 55 -44 103h-2q-5 -11 -19 -11h-8q-21 0 -30 30q5 36 32 36q36 -4 36 -36q16 0 38 -46h2v880q0 4 11 11h8q5 0 11 -11v-959q11 -14 11 -24v-3q0 -16 -11 -27v-7q14 0 30 1q92 4 94 -34q3 0 3 -8
q4 -283 -1 -396q4 -357 3 -557q7 -44 56 -41q97 -1 179 -1l1 642q-7 369 4 370q12 19 45 21l131 2q92 5 94 -33q3 -706 1 -1002q151 0 188 2q36 1 36 85l1 555q-7 369 4 370q12 19 45 21z" />
    <glyph glyph-name="uni0429" unicode="&#x429;" horiz-adv-x="1497" 
d="M1219 1102q9 -43 49 -43q32 0 41 43q0 25 -24 41h-6q0 -22 -11 -22h-8q-6 0 -13 22q-28 -15 -28 -41zM198 1158q9 -43 49 -43q32 0 41 43q0 25 -24 41h-6q0 -22 -11 -22h-8q-6 0 -13 22q-28 -15 -28 -41zM1167 -61l-390 27q-103 3 -158 10q-204 15 -358 25l-3 1
q-207 7 -207 24q-11 14 -11 29v11q72 1192 82 1192q19 21 36 21q19 -2 69 -4q-14 13 -14 26v6q0 15 19 27q0 55 -44 103h-2q-5 -11 -19 -11h-8q-21 0 -30 30q5 36 32 36q36 -4 36 -36q16 0 38 -46h2v810q0 4 11 11h8q5 0 11 -11v-889q11 -14 11 -24v-3q0 -16 -11 -27v-3
q15 -1 33 -1q92 -3 91 -41q3 0 2 -8q-14 -282 -27 -395q-20 -356 -34 -556q4 -44 53 -44q97 -8 179 -13l43 640q18 369 29 369q13 18 46 18l131 -7q92 -1 92 -39q-44 -705 -66 -1000q151 -10 188 -10q36 -2 41 82l38 554q18 368 29 369q13 18 46 18l64 -3q-14 13 -14 25v6
q0 15 19 27q0 55 -44 103h-2q-5 -11 -19 -11h-8q-21 0 -30 30q5 36 32 36q36 -4 36 -36q16 0 38 -46h2v880q0 4 11 11h8q5 0 11 -11v-959q11 -14 11 -24v-3q0 -16 -11 -27v-4l27 -1q92 -1 92 -39q-44 -709 -66 -1004l57 -2q62 -4 58 -84q-13 -251 -23 -251q-13 -18 -46 -18
l-131 7q-92 1 -92 39q3 45 6 88z" />
    <glyph glyph-name="uni042A" unicode="&#x42a;" horiz-adv-x="1043" 
d="M264 1135q8 -42 47 -42q30 0 39 42q0 23 -23 39h-6q0 -18 -10 -18h-8q-6 0 -13 18q-26 -15 -26 -39zM297 263q-19 -54 11 -67l2 -1q110 -47 261 -74q129 -9 174 95l3 4q9 25 13 40q31 145 -90 197q-96 41 -156 56q-118 51 -137 8t-81 -258zM273 1262l-4 21q5 26 18 26
q0 56 -41 99q-5 -10 -19 -10h-15q-21 11 -21 29v5q0 21 29 29h5q24 0 31 -34q15 0 34 -45h3v814q0 4 10 10h8q4 0 10 -10v-889q11 -11 11 -21v-8q0 -9 -11 -21v-9l122 -36q65 -18 87 -25q28 -14 35 -44l-89 -297q-37 -86 8 -105l278 -87q125 -53 187 -128q134 -179 37 -407
q-79 -184 -279 -222q-94 -3 -154 6q-23 3 -456 139q-75 21 -97 30q-30 13 -28 45q181 592 266 867l4 14q0 34 -35 45q-27 10 -38 14q-34 11 -90 26q-40 18 -28 55l38 122q17 53 57 40z" />
    <glyph glyph-name="uni042B" unicode="&#x42b;" horiz-adv-x="1420" 
d="M150 1103q8 -42 47 -42q30 0 39 42q0 23 -23 39h-5q0 -18 -11 -18h-8q-5 0 -13 18q-26 -15 -26 -39zM318 277q-2 -57 30 -60l3 -1q119 -11 271 9q126 30 137 143l1 5q2 26 1 42q-14 147 -145 160q-104 10 -166 6q-128 13 -133 -33q-5 -47 1 -271zM164 1226l-1 2
q-7 10 -7 23q5 26 18 26q0 56 -42 99q-4 -10 -18 -10h-16q-20 11 -20 28v6q0 21 28 28h5q24 0 32 -34q14 0 33 -44h3v853q0 4 10 10h8q4 0 11 -10v-928q10 -11 10 -21v-8q0 -9 -8 -18v-1q23 1 50 1q31 -4 47 -31l5 -310q-9 -93 39 -98l292 2q135 -13 217 -66
q182 -130 158 -377q-20 -199 -199 -296q-88 -31 -148 -40q-23 -5 -477 -6q-78 -3 -101 -1q-33 4 -41 35q-12 1094 -9 1152q1 9 12 22q1 9 109 12zM1219 2213q-10 -6 -10 -10v-853h-3q-19 44 -33 44q-8 34 -32 34h-5q-28 -7 -28 -28v-6q0 -17 20 -28h16q14 0 18 10
q42 -43 42 -99q-13 0 -18 -26q0 -13 7 -23h-70q-39 0 -44 -55q3 -28 3 -49v-1069q0 -52 54 -52h96q24 0 68 -3q4 3 16 3q34 14 34 52v1103q0 70 -42 70h-68q8 9 8 18v8q0 10 -10 21v928q-7 10 -11 10h-8zM1206 1142q8 -18 13 -18h8q11 0 11 18h5q23 -16 23 -39
q-9 -42 -39 -42q-39 0 -47 42q0 24 26 39z" />
    <glyph glyph-name="uni042C" unicode="&#x42c;" horiz-adv-x="1071" 
d="M337 1132q9 -43 48 -43q31 0 41 43q0 24 -24 40h-6q0 -18 -11 -18h-8q-5 0 -13 18q-27 -15 -27 -40zM348 300q-13 -55 18 -65l3 -1q113 -35 267 -46q129 4 163 113l2 5q7 25 9 40q15 147 -110 186q-100 31 -161 40q-123 38 -137 -7q-14 -44 -54 -265zM345 1268v1l-2 16
q5 27 18 27q0 57 -43 102q-4 -11 -18 -11h-16q-22 11 -22 29v6q0 22 30 29h5q25 0 32 -35q15 0 35 -45h3v814q0 4 10 11h8q5 0 11 -11v-892q11 -11 11 -21v-8q0 -10 -10 -21q64 -11 86 -16q29 -10 40 -39l-58 -305q-27 -89 19 -104l286 -57q130 -40 199 -108
q152 -164 79 -401q-59 -191 -254 -250q-93 -13 -153 -9q-24 -1 -469 90q-77 12 -99 19q-31 11 -33 43q208 1074 223 1130q3 8 16 19q3 7 66 -3z" />
    <glyph glyph-name="uni042D" unicode="&#x42d;" horiz-adv-x="1253" 
d="M450 1082q8 -44 49 -44q31 0 40 44q0 24 -24 40h-5q0 -19 -11 -19h-8q-6 0 -14 19q-27 -15 -27 -40zM510 1190q31 4 64 4q97 -2 165 -21q148 -31 271 -136q203 -182 203 -463v-32q0 -65 -22 -176q-48 -171 -124 -274q-185 -238 -482 -238q-234 0 -423 157
q-162 161 -162 376v46q0 43 30 52q24 0 187 -38q51 0 51 -73q0 -122 100 -219q97 -63 182 -63q146 0 224 76q53 52 86 107q10 22 12 41q3 35 -45 45q-413 98 -467 119q-17 13 -15 37q24 158 68 154h8l456 -116q48 -5 59 53q-6 137 -67 218q-106 127 -249 127
q-140 0 -230 -100q-31 -57 -62 -57h-3q-222 27 -222 68v8q0 19 49 103q139 177 328 211v17q-21 0 -25 33q6 27 19 27q0 57 -43 103q-4 -11 -19 -11h-16q-22 12 -22 30v5q0 22 30 30h5q25 0 33 -35q15 0 35 -46h3v858q0 4 11 11h8q4 0 11 -11v-937q10 -11 10 -21v-9
q0 -9 -10 -21v-19z" />
    <glyph glyph-name="uni042E" unicode="&#x42e;" horiz-adv-x="1694" 
d="M958 1128q0 -39 48 -45q40 8 40 47q-10 38 -29 38v-14q0 -4 -11 -10h-8q-4 0 -11 10v14h-2q-27 -15 -27 -40zM693 586q2 -125 47 -236q35 -74 91 -123q97 -66 188 -66h45q78 0 178 66q74 71 107 160q21 62 31 191q-6 96 -29 194q-29 78 -71 133q-93 106 -247 106
q-171 0 -269 -146q-48 -83 -63 -189q-3 -52 -8 -90zM138 1118q0 -39 48 -45q40 8 40 47q-10 38 -29 38v-14q0 -4 -11 -10h-8q-4 0 -11 10v14h-2q-27 -15 -27 -40zM167 1221q-21 0 -24 32q5 27 19 27q0 57 -43 102q-5 -11 -19 -11h-16q-22 12 -22 30v5q0 22 30 30h5
q25 0 32 -35q15 0 35 -46h3v845q0 5 11 11h8q4 0 11 -11v-923q10 -11 10 -21v-9q0 -9 -10 -21v-11q121 6 123 -32q3 0 3 -8q3 -283 -2 -397q2 -54 56 -51q29 -1 57 -1q12 62 38 144q29 70 93 160q112 120 207 156q38 24 162 48q45 5 53 5v3q-20 0 -24 32q6 26 19 26
q0 57 -42 101q-5 -10 -19 -10h-16q-21 11 -21 29v5q0 22 29 29h5q25 0 32 -34q15 0 35 -45h2v820q0 4 11 11h8q4 0 11 -11v-897q10 -11 10 -21v-8q0 -10 -10 -22v-8h47q227 0 407 -170q94 -104 125 -191q55 -147 55 -265q3 0 3 -16q0 -378 -271 -569q-163 -98 -340 -98
q-320 0 -504 244q-82 113 -115 316q-45 0 -62 -1q-46 -2 -42 -88q5 -434 -8 -434q1 -19 -45 -21l-3 -1q-207 -5 -207 12q-12 14 -13 29v11q-4 1194 6 1194q17 22 34 23q49 -1 83 1v6z" />
    <glyph glyph-name="uni042F" unicode="&#x42f;" horiz-adv-x="1241" 
d="M871 1102q-6 -21 -13 -21h-8q-10 0 -10 19q-24 -16 -24 -40q9 -42 40 -42q39 0 47 42q0 28 -32 42zM747 946q-5 19 -323 -50q-16 -4 -44 -17q-94 -66 -61 -189q28 -104 104 -117q7 -26 329 36q43 11 53 30q10 2 -45 285q-3 11 -13 22zM838 1185l-1 2q-8 9 -8 18v8
q0 10 11 21v975q6 11 10 11h8q11 -7 11 -11v-898h2q20 45 35 45q7 34 31 34h6q29 -7 29 -29v-5q0 -18 -21 -29h-16q-14 0 -19 10q-42 -44 -42 -100q13 0 19 -26v-3l-2 -12q85 17 95 -20q4 -14 197 -1089q18 -68 -26 -80q-107 -20 -108 -18q-106 -29 -115 6q-22 81 -75 397
q-4 15 -19 29q-5 18 -283 -41q-44 -12 -77 -37q-35 -10 -60 -118q1 -98 13 -257q8 -84 -33 -95q-40 -11 -124 -25q-85 -23 -93 9l-1 3q-1 5 -2 26q12 56 -16 247q-9 141 34 215q59 74 59 77l-6 14l-93 55q-73 52 -112 197l-6 54q6 271 263 341q35 9 289 55q187 34 246 44z
" />
    <glyph glyph-name="uni0430" unicode="&#x430;" horiz-adv-x="922" 
d="M618 2216h7q4 0 11 -10v-1207q10 -11 10 -21v-8q0 -9 -10 -20v-3q78 -22 127 -106q28 -89 117 -553q41 -121 41 -130q0 -30 -132 -46q-25 -11 -62 -11q-20 0 -60 39h-18q-147 -140 -351 -140h-15q-86 0 -166 70q-75 95 -75 189q0 200 275 278q101 34 179 68q54 38 54 72
q0 82 -70 112q-23 5 -34 5h-23q-81 0 -145 -49q-32 -25 -47 -107q0 -22 -200 -52q-26 0 -31 37q0 186 200 277q159 68 314 68q17 0 72 -5l-2 5v8q5 26 18 26q0 53 -42 98q-10 -10 -20 -10h-8q-20 0 -29 28q6 34 32 34h2q22 0 36 -36q23 -15 32 -42h2v1132q0 4 11 10z
M579 833q0 -38 46 -44q39 8 39 46q-10 37 -28 37v-13q0 -4 -11 -11h-7q-5 0 -11 11v13h-2q-26 -15 -26 -39zM283 306v-15q12 -109 93 -109q0 -3 24 -3h26q77 0 153 70q33 57 33 104q0 84 -26 127q-10 5 -18 5q-168 -59 -233 -96q-52 -48 -52 -83z" />
    <glyph glyph-name="uni0431" unicode="&#x431;" horiz-adv-x="1054" 
d="M480 1234v-3h-6v3h6zM611 1273q0 -40 50 -47q41 8 41 49q-10 39 -30 39v-14q0 -4 -11 -11h-8q-5 0 -11 11v14h-3q-28 -16 -28 -41zM309 402q23 -184 142 -276q67 -36 119 -30l33 4q81 11 143 99q41 70 27 179q-30 241 -191 305q-35 7 -87 6q-69 -9 -136 -70
q-68 -78 -50 -217zM637 1360q-16 17 -16 28v5q6 30 25 30v769q0 4 11 11h8q4 0 11 -11v-670q20 16 39 50q10 8 19 8h5q31 -4 31 -30v-14q-12 -22 -28 -22h-8q-10 0 -25 11q-33 -42 -33 -69v-38q11 -12 11 -22v-8q0 -10 -11 -22v-7q68 10 87 6l7 -2q36 -12 28 -58
q-30 -162 -230 -277q-32 -15 -98 -22q-18 -4 -43 -9q-34 -8 -93 -30q-83 -58 -67 -143v-22q98 63 204 76l30 4q176 22 320 -78q107 -88 150 -189q36 -82 42 -135q10 -49 12 -65q29 -236 -165 -400q-103 -74 -152 -80q-21 -12 -106 -29q-315 -40 -473 228q-55 104 -70 227
l-2 17q0 4 1 8q-25 260 -27 278q-11 124 -5 243q35 158 203 236l9 4q66 33 124 42q104 15 145 64q38 78 62 88q38 7 68 12v7z" />
    <glyph glyph-name="uni0432" unicode="&#x432;" horiz-adv-x="1033" 
d="M364 961q8 -42 47 -42q31 0 40 42q0 24 -24 40q0 -19 -10 -19h-8q-7 0 -13 21q-32 -14 -32 -42zM440 676q-3 -22 17 -33q141 -54 183 -62q65 -11 111 27q22 32 25 61q9 82 -147 131l-98 34q-36 4 -55 -52q-33 -78 -36 -106zM282 286q-6 -31 121 -66q37 -17 84 -26l29 -4
q98 -19 141 56q7 16 9 26l2 15q13 77 -80 123q-26 15 -185 71h-5l-8 3q-33 6 -50 -42q-56 -141 -58 -156zM425 1052l19 -7q334 -120 419 -160q47 -26 107 -79q50 -62 51 -110q4 -39 2 -47q-25 -164 -177 -193q-14 -8 -17 -17q-2 -14 41 -55q60 -82 47 -169l-1 -9
q-23 -143 -160 -201q-102 -29 -194 -11l-33 6q-46 9 -61 19q-5 -2 -7 -2q-401 149 -441 165q-20 14 -17 33v1q2 11 315 848q16 15 37 11q8 -1 21 -5l-2 9v3q6 26 19 26q0 56 -42 100q-5 -10 -19 -10h-16q-21 11 -21 29v5q0 22 29 29h6q24 0 31 -34q15 0 35 -45h2v998
q0 4 11 11h8q4 0 10 -11v-1075q11 -11 11 -21v-8q0 -9 -13 -22v-2z" />
    <glyph glyph-name="uni0433" unicode="&#x433;" horiz-adv-x="877" 
d="M424 833q0 -40 50 -47q41 9 41 50q-10 38 -30 38v-13q0 -5 -11 -12h-9q-4 0 -11 12v13h-3q-27 -15 -27 -41zM490 912h2q48 0 138 -22q137 -44 185 -124q26 -43 39 -147q0 -96 -69 -165q-48 -49 -235 -97q-287 -47 -287 -141v-3q0 -53 44 -88q62 -34 116 -34q69 0 124 28
q59 33 75 86q17 44 52 44h155q39 -5 39 -33v-6q0 -11 -3 -30q-45 -142 -132 -188q-146 -72 -277 -72q-248 0 -373 111q-83 97 -83 210q0 125 105 199q90 52 229 80q258 41 258 130v5l-3 20q-23 66 -155 66q-69 0 -127 -44q-42 -86 -86 -86q-19 3 -30 3h-114q-41 0 -41 36v5
q0 25 22 75q90 182 370 182h18q-11 12 -11 23v5q5 28 19 28v1238q0 5 11 11h9q4 0 11 -11v-1147h2q0 26 89 63q33 -6 33 -30v-8q0 -25 -36 -31q-17 0 -30 28q-58 -35 -58 -105v-6q16 -16 16 -27v-8q0 -10 -11 -23z" />
    <glyph glyph-name="uni0434" unicode="&#x434;" horiz-adv-x="1171" 
d="M447 2220h9q4 0 11 -11v-1059q21 16 39 51q11 9 20 9h6q31 -5 31 -31v-14q-12 -23 -29 -23h-8q-10 0 -25 11q-34 -43 -34 -70v-40q11 -11 11 -22v-9q0 -10 -11 -22v-9q15 6 59 6h31q58 0 172 -48q84 -45 138 -149q11 -8 17 -8q15 0 42 45q12 11 22 11h9q194 -51 194 -79
v-11q0 -31 -228 -701q-52 -185 -107 -265q-115 -152 -301 -152h-9q-178 0 -363 104q-183 129 -183 293q0 47 37 53h8q31 0 186 -59q21 -14 45 -98q39 -68 155 -104q10 0 59 -6q85 0 155 93q50 93 50 155l-11 8h-14q-91 -34 -141 -34q-214 0 -349 181q-59 104 -59 214
q0 151 76 307q84 155 217 216q18 12 62 23v8q-19 0 -26 28v6q7 31 26 31v1160q0 4 11 11zM405 863q0 -40 51 -48q42 9 42 51q-11 39 -31 39v-14q0 -4 -11 -11h-9q-4 0 -11 11v14h-3q-28 -15 -28 -42zM346 432v-5q0 -170 163 -209q35 -5 42 -5q180 0 248 256q6 48 6 65v20
q0 158 -158 208q-38 6 -48 6h-22q-97 0 -181 -136q-50 -106 -50 -200z" />
    <glyph glyph-name="uni0435" unicode="&#x435;" horiz-adv-x="938" 
d="M483 2217h8q4 0 11 -11v-1062q20 15 38 48q9 8 18 8h6q29 -4 29 -29v-14q-11 -21 -26 -21h-9q-9 0 -24 11q-32 -42 -32 -68v-38q11 -11 11 -21v-8q0 -10 -11 -22v-19q91 0 210 -73q107 -90 149 -180q25 -34 51 -143v-6q0 -39 -151 -67q-407 -108 -453 -124
q-14 -15 -14 -33v-8q30 -84 94 -121q43 -22 71 -22h18q159 0 232 132q24 62 79 62q59 19 105 27q35 0 35 -35q0 -80 -70 -194q-83 -112 -235 -156q-82 -30 -181 -30q-103 10 -159 35q-149 69 -218 213q-62 118 -62 265v8q0 6 -3 10q12 135 84 243q88 128 253 178
q76 22 135 22v11q-18 0 -24 27v5q6 30 24 30v1159q0 4 11 11zM442 869q0 -39 49 -46q40 8 40 48q-10 38 -29 38v-13q0 -5 -11 -11h-8q-4 0 -11 11v13h-3q-27 -15 -27 -40zM235 583q0 -29 24 -43h13q34 0 332 86q14 14 14 24v8q0 41 -84 100q-40 22 -81 22q-130 0 -199 -114
q-19 -49 -19 -83z" />
    <glyph glyph-name="uni0436" unicode="&#x436;" horiz-adv-x="1404" 
d="M659 753q0 -38 47 -45q39 8 39 47q-10 37 -28 37v-13q0 -4 -11 -11h-8q-4 0 -10 11v13h-3q-26 -15 -26 -39zM683 851v1q-13 14 -13 24v5q0 11 13 26v1300q0 4 10 10h8q4 0 11 -10v-1224h2q0 16 34 45q8 31 32 31h2q27 0 32 -34q-8 -29 -29 -29h-8q-9 0 -21 11
q-39 -44 -39 -92v-5q16 -16 16 -26v-8q0 -11 -15 -25h7q84 6 91 -25l3 -10q3 -14 2 -110q-5 -123 2 -149q3 -13 16 -17l8 2q22 5 140 136q69 67 110 112q22 15 40 19q217 10 223 -12q6 -26 -81 -99q-172 -164 -188 -186q-7 -13 -5 -22l4 -18q10 -19 309 -473q2 -6 5 -9
q0 -29 -9 -31l-24 -6q-221 -4 -225 14q-12 -3 -118 178q-80 132 -109 171q-10 2 -17 1l-5 -1q-60 -33 -78 -83q0 -216 -3 -246q4 -17 -35 -29q-27 -6 -173 0q-18 11 -21 26q-2 7 -2 250q-18 50 -78 83l-5 1q-7 1 -17 -1q-28 -39 -109 -171q-106 -181 -118 -178
q-4 -18 -225 -14l-24 6q-9 2 -9 31q4 3 5 9q299 454 309 473l4 18q2 9 -5 22q-15 22 -188 186q-87 73 -80 99q5 22 222 12q18 -4 40 -19q42 -45 110 -112q118 -131 141 -136l7 -2q14 4 17 17q2 9 3 29v220q6 35 27 40l11 3l17 1h43z" />
    <glyph glyph-name="uni0437" unicode="&#x437;" horiz-adv-x="863" 
d="M346 934q0 -37 46 -44q39 8 39 47q-10 36 -28 36v-13q0 -4 -11 -10h-7q-4 0 -11 10v13h-2q-26 -15 -26 -39zM405 1017q30 1 42 1q222 0 351 -143q39 -66 39 -117v-4q0 -99 -76 -156q0 -3 -46 -28q-15 -9 -15 -11v-5q0 -13 69 -52q68 -65 68 -127q3 0 6 -24q-3 -13 -6 -13
l3 -10v-1q0 -72 -79 -166q-125 -111 -343 -111h-3q-66 0 -182 30q-233 88 -233 293q0 40 44 40q172 0 172 -33q22 -100 62 -128q60 -27 137 -27h5q125 0 170 73q12 29 12 43v7q0 89 -82 119q-20 14 -130 27q-27 0 -34 36q6 89 25 89q0 5 108 8q89 21 89 34q41 34 41 77
q0 75 -120 101q-22 4 -32 4h-15q-137 -7 -177 -117q-10 -14 -31 -14h-8q-160 3 -160 18q-9 11 -9 22q24 100 90 164q96 81 194 94l14 3q-14 15 -14 29q5 26 18 26q0 54 -41 98q-11 -10 -21 -10h-8q-19 0 -28 28q5 34 31 34h3q21 0 36 -36q22 -15 31 -41h2v1060q0 4 11 10h7
q4 0 11 -10v-1135q10 -11 10 -21v-8q0 -7 -8 -20z" />
    <glyph glyph-name="uni0438" unicode="&#x438;" horiz-adv-x="916" 
d="M653 892q0 -38 47 -44q38 8 38 46q-10 37 -28 37v-13q0 -4 -10 -11h-8q-4 0 -11 11v13h-2q-26 -15 -26 -39zM75 858q0 -36 45 -42q38 8 38 45q-10 35 -28 35v-13q0 -4 -10 -10h-7q-4 0 -10 10v13h-3q-25 -14 -25 -38zM129 952q16 2 70 2h2q44 0 44 -134q36 -496 68 -496
q38 -65 105 -65h31q80 0 140 75q26 41 26 119v10q0 81 -34 483q0 47 73 47q13 2 27 3v3q-12 14 -12 24v5q0 11 12 26v1148q0 4 11 10h8q4 0 10 -10v-1073h2q0 15 34 43q7 31 31 31h3q25 0 31 -33q-9 -29 -29 -29h-8q-9 0 -20 11q-39 -43 -39 -91v-5q16 -15 16 -26v-7
q0 -10 -13 -24q29 3 62 4q47 0 47 -106q0 -15 59 -728q0 -49 -90 -49q-61 -6 -99 -6h-2q-33 0 -41 62q-9 13 -21 13q-11 0 -60 -51q-89 -65 -139 -65q-28 -10 -59 -10v-2l-37 -1q-196 0 -263 165q-31 42 -52 388q-23 237 -23 297q0 36 102 39v1q-17 0 -23 25v5q6 27 23 27
v1195q0 4 10 10h7q4 0 10 -10v-1105q19 14 35 45q10 8 18 8h5q27 -4 27 -28v-12q-10 -20 -25 -20h-7q-9 0 -23 10q-30 -39 -30 -63v-35q10 -10 10 -20v-7q0 -9 -10 -20v-3z" />
    <glyph glyph-name="uni0439" unicode="&#x439;" horiz-adv-x="916" 
d="M653 892q0 -38 47 -44q38 8 38 46q-10 37 -28 37v-13q0 -4 -10 -11h-8q-4 0 -11 11v13h-2q-26 -15 -26 -39zM75 858q0 -36 45 -42q38 8 38 45q-10 35 -28 35v-13q0 -4 -10 -10h-7q-4 0 -10 10v13h-3q-25 -14 -25 -38zM129 952q16 2 70 2h2q44 0 44 -134q36 -496 68 -496
q38 -65 105 -65h31q80 0 140 75q26 41 26 119v10q0 81 -34 483q0 47 73 47q13 2 27 3v3q-12 14 -12 24v5q0 11 12 26v1148q0 4 11 10h8q4 0 10 -10v-1073h2q0 15 34 43q7 31 31 31h3q25 0 31 -33q-9 -29 -29 -29h-8q-9 0 -20 11q-39 -43 -39 -91v-5q16 -15 16 -26v-7
q0 -10 -13 -24q29 3 62 4q47 0 47 -106q0 -15 59 -728q0 -49 -90 -49q-61 -6 -99 -6h-2q-33 0 -41 62q-9 13 -21 13q-11 0 -60 -51q-89 -65 -139 -65q-28 -10 -59 -10v-2l-37 -1q-196 0 -263 165q-31 42 -52 388q-23 237 -23 297q0 36 102 39v1q-17 0 -23 25v5q6 27 23 27
v1195q0 4 10 10h7q4 0 10 -10v-1105q19 14 35 45q10 8 18 8h5q27 -4 27 -28v-12q-10 -20 -25 -20h-7q-9 0 -23 10q-30 -39 -30 -63v-35q10 -10 10 -20v-7q0 -9 -10 -20v-3zM421 2209q-11 -7 -11 -11v-833h-2q-20 45 -34 45q-7 33 -31 33h-6q-28 -7 -28 -28v-5q0 -18 21 -29
h15q14 0 18 10q42 -43 42 -99q-13 0 -18 -26q3 -31 23 -31v-10h-112q-42 0 -42 -55v-78q0 -39 44 -44q58 2 94 2h4h152q52 0 52 50v25q0 34 -3 53q0 47 -52 47h-108v15q10 12 10 21v8q0 10 -10 21v908q-6 11 -10 11h-8zM408 1182h2v-13q7 -10 11 -10h8q10 6 10 10v13
q19 0 29 -37q0 -38 -39 -46q-47 6 -47 44q0 24 26 39z" />
    <glyph glyph-name="uni043A" unicode="&#x43a;" horiz-adv-x="894" 
d="M241 920l-6 11v5q5 27 22 27v1228q0 4 10 10h8q4 0 10 -10v-1137q19 14 35 45q9 8 18 8h5q27 -4 27 -28v-12q-10 -21 -25 -21h-7q-10 0 -23 10q-30 -38 -30 -62v-36q10 -10 10 -20v-7q0 -9 -10 -20l-1 -2q114 -20 114 -52v-10q0 -14 -23 -108q-33 -118 -33 -145
q0 -13 12 -20h8q23 0 168 100q82 49 133 83q25 10 43 10q214 -41 214 -63q0 -27 -101 -78q-206 -120 -226 -138q-10 -11 -10 -20v-18q5 -21 191 -532q0 -6 3 -10q-7 -28 -16 -28h-25q-216 47 -216 65q-12 0 -73 201q-48 147 -67 191q-9 5 -16 5h-5q-66 -18 -95 -62
q-50 -210 -60 -239q0 -17 -41 -20q-28 0 -168 40q-15 15 -15 30q0 13 189 801q14 33 35 33h11l17 -3z" />
    <glyph glyph-name="uni043B" unicode="&#x43b;" horiz-adv-x="796" 
d="M518 792q0 -36 45 -42q38 8 38 45q-10 35 -28 35v-13q0 -4 -10 -10h-7q-4 0 -10 10v13h-3q-25 -14 -25 -38zM572 872q52 -15 147 -47q25 0 25 -140l2 -23l-2 -5q20 -500 22 -696q0 -21 -32 -27q-21 2 -63 17v-2l-27 6v1q0 4 -83 30q-27 17 -27 45v384q0 46 -3 128
q0 8 -17 17q-14 0 -52 -55q-32 -52 -262 -384q-16 -10 -40 -12q-138 40 -165 54q-6 9 -10 20q0 20 190 272q34 54 242 337q27 47 72 90q9 5 20 5h3q7 0 33 -7v8q-13 13 -13 22v5q0 11 13 25v1257q0 4 10 10h7q4 0 10 -10v-1184h3q0 14 32 42q7 30 30 30h3q25 0 30 -32
q-8 -28 -28 -28h-7q-9 0 -20 10q-38 -41 -38 -87v-5q15 -15 15 -25v-8q0 -16 -20 -24v-14z" />
    <glyph glyph-name="uni043C" unicode="&#x43c;" horiz-adv-x="1381" 
d="M387 725q47 7 47 45q0 24 -26 39h-3v-13q-6 -11 -10 -11h-8q-11 7 -11 11v13q-18 0 -28 -37q0 -39 39 -47zM967 725q47 7 47 45q0 24 -26 39h-3v-13q-6 -11 -10 -11h-8q-11 7 -11 11v13q-18 0 -28 -37q0 -39 39 -47zM374 847v3q-13 14 -13 24v5q0 11 13 26v1300
q0 4 10 10h8q4 0 11 -10v-1224h2q0 16 34 45q8 31 32 31h2q27 0 32 -34q-8 -29 -29 -29h-8q-9 0 -21 11q-39 -44 -39 -92v-5q16 -16 16 -26v-8q0 -11 -16 -27q38 2 51 2q52 0 68 -29q90 -340 134 -493q10 -20 19 -24h8q16 0 57 184q13 37 71 283q13 76 66 76h72v4
q-13 14 -13 24v5q0 11 13 26v1300q0 4 10 10h8q4 0 11 -10v-1224h2q0 16 34 45q8 31 32 31h2q27 0 32 -34q-8 -29 -29 -29h-8q-9 0 -21 11q-39 -44 -39 -92v-5q16 -16 16 -26v-8q0 -11 -17 -28h57q48 0 61 -36q241 -762 257 -819v-11q0 -29 -63 -29h-100q-78 0 -78 19
q-12 0 -37 110q-16 47 -110 402q-8 18 -19 23h-8q-17 0 -55 -178q-50 -185 -84 -339q-11 -37 -76 -37h-29l-35 -1q0 1 1 1h-26q-69 0 -84 21q-13 29 -71 266q-50 213 -71 259l-8 6h-2q-26 0 -45 -98q-102 -368 -113 -414q-15 -28 -29 -32q-19 -8 -57 -8h-113q-50 0 -50 37
q34 117 244 782q16 79 71 79q25 0 59 -2z" />
    <glyph glyph-name="uni043D" unicode="&#x43d;" horiz-adv-x="914" 
d="M118 852q8 -45 50 -45q32 0 41 45q0 25 -25 41h-5q0 -14 -9 -14h-11q-2 0 -14 14q-27 -15 -27 -41zM694 852q8 -45 50 -45q32 0 41 45q0 25 -25 41h-5q0 -14 -9 -14h-11q-2 0 -14 14q-27 -15 -27 -41zM298 385v-324q0 -61 -50 -61h-147q-61 0 -61 55v844q0 47 58 47h22
v11q0 16 20 31q0 36 -25 36q-36 0 -36 30v6q0 23 30 30h6q30 -4 30 -30v-6l-2 -14l5 -2v58l-3 1104q0 4 12 11h8q4 0 11 -11l3 -1104v-117q8 -10 8 -19v-14h61q50 0 50 -55v-324h319l-1 332q0 47 58 47h22v11q0 16 20 31q0 36 -25 36q-36 0 -36 30v6q0 23 30 30h6
q30 -4 30 -30v-6l-2 -14l5 -2v58l-3 1104q0 4 12 11h8q4 0 11 -11l3 -1104v-117q8 -10 8 -19v-14h61q50 0 50 -55v-830q0 -61 -50 -61h-147q-61 0 -61 55v330h-318z" />
    <glyph glyph-name="uni043E" unicode="&#x43e;" horiz-adv-x="977" 
d="M485 2216h8q4 0 11 -11v-1158h3q0 16 35 47q8 32 33 32h3q27 0 32 -35q-8 -30 -30 -30h-8q-10 0 -22 11q-40 -45 -40 -96v-5q16 -17 16 -27v-8q0 -19 -22 -28v-27q177 0 308 -117q95 -101 125 -207q25 -85 25 -139q3 -50 3 -66q0 -238 -213 -376q-112 -60 -161 -60
q-23 -10 -109 -16q-318 0 -441 286q-41 110 -41 234v17q0 125 84 253q97 115 129 115q128 76 261 76v30q-13 14 -13 25v5q0 12 13 27v1237q0 4 11 11zM444 791q0 -39 49 -46q41 8 41 49q-10 38 -30 38v-14q0 -4 -11 -11h-8q-4 0 -11 11v14h-3q-27 -15 -27 -41zM253 429
q0 -186 107 -292q62 -44 114 -44h33q82 0 155 80q49 64 49 174q0 243 -152 327q-34 11 -85 16q-70 0 -144 -52q-77 -69 -77 -209z" />
    <glyph glyph-name="uni043F" unicode="&#x43f;" horiz-adv-x="920" 
d="M522 2212h8q4 0 10 -10v-1067h2q0 15 34 43q7 31 31 31h3q25 0 31 -33q-9 -29 -29 -29h-8q-9 0 -20 11q-39 -43 -39 -91v-5q16 -15 16 -26v-7q0 -11 -16 -26h3q196 0 263 -165q31 -42 52 -388q23 -237 23 -297q0 -39 -121 -39q0 -5 -78 -5h-2q-44 0 -44 134
q-36 496 -68 496q-38 65 -105 65h-31q-80 0 -140 -75q-26 -41 -26 -119v-10q0 -81 34 -483q0 -47 -73 -47q-54 -7 -126 -10q-47 0 -47 106q0 15 -59 728q0 49 90 49q61 6 99 6h2q33 0 41 -62q9 -13 21 -13q11 0 60 51q89 65 139 65q28 10 59 10v5q-12 14 -12 24v5
q0 11 12 26v1142q0 4 11 10zM483 892q0 -38 47 -44q38 8 38 46q-10 37 -28 37v-13q0 -4 -10 -11h-8q-4 0 -11 11v13h-2q-26 -15 -26 -39z" />
    <glyph glyph-name="uni0440" unicode="&#x440;" horiz-adv-x="987" 
d="M586 2214h8q4 0 10 -10v-1094h3q0 15 34 45q8 31 32 31h2q27 0 32 -34q-8 -29 -29 -29h-8q-9 0 -21 11q-39 -44 -39 -92v-5q15 -16 15 -27v-8q0 -17 -21 -26v-21q72 0 190 -84q91 -91 126 -184q44 -136 44 -223q-2 -17 -2 -37q0 -6 2 -11q0 -94 -63 -223
q-112 -176 -331 -176q-90 0 -194 63q-5 3 -13 3q-13 -15 -13 -19q0 -2 2 -2l-2 -19v-2l66 -381q0 -49 -107 -49q-60 -11 -90 -11h-2q-39 0 -45 55l-172 1174q0 42 87 47q12 0 105 13q30 0 50 -60l13 -3q16 0 55 45q94 76 168 76q0 8 76 11h22v21q-14 13 -14 23v6q0 11 14 26
v1170q0 4 10 10zM547 863q0 -38 47 -45q39 9 39 48q-10 36 -29 36v-13q0 -4 -10 -10h-8q-4 0 -10 10v13h-3q-26 -14 -26 -39zM284 506q0 -173 102 -274q66 -42 105 -42q154 0 203 116q23 46 23 129q-5 236 -141 310q-41 18 -85 18q-156 0 -197 -155q-10 -39 -10 -102z" />
    <glyph glyph-name="uni0441" unicode="&#x441;" horiz-adv-x="905" 
d="M497 2217h8q4 0 11 -11v-1031q19 15 36 47q10 8 19 8h5q29 -4 29 -29v-13q-11 -21 -26 -21h-8q-10 0 -24 10q-31 -40 -31 -65v-37q10 -11 10 -21v-7q0 -10 -10 -21v-8q76 0 186 -66q89 -68 112 -144v-10q0 -32 -125 -55q-46 -16 -66 -16q-30 0 -52 39q-55 61 -123 61
q-137 0 -191 -121q-19 -49 -19 -89q0 -228 149 -338q49 -20 76 -20q158 0 202 143q5 95 34 95q132 42 168 42h5q26 -15 26 -42q0 -279 -257 -385q-98 -42 -212 -42q-147 0 -275 110q-80 82 -102 144q-52 96 -52 277v11q0 88 76 215q86 118 249 167q79 24 162 24v2
q-18 0 -24 27v5q6 29 24 29v1125q0 4 10 11zM458 908q0 -38 47 -45q40 8 40 47q-10 37 -29 37v-13q0 -4 -11 -11h-8q-4 0 -10 11v13h-3q-26 -15 -26 -39z" />
    <glyph glyph-name="uni0442" unicode="&#x442;" horiz-adv-x="1365" 
d="M1119 2216h8q4 0 10 -10v-1117h2q0 7 25 28q3 27 28 27h2q25 0 30 -32q-8 -28 -27 -28h-8q-9 0 -20 10q-31 -34 -32 -62v-35q10 -14 10 -23v-12l-10 -15v-8l42 -22q145 -70 145 -330q2 -7 37 -437q0 -53 -60 -53q-82 -7 -127 -7h-7q-40 0 -40 85q-39 509 -58 509
q-14 40 -52 63q-22 15 -90 15q-37 -4 -85 -35q-48 -56 -48 -115v-55q0 -61 35 -465q0 -34 -67 -40q-91 -7 -128 -7q-39 0 -39 77q-36 450 -53 517q-38 78 -115 78h-22q-50 0 -103 -50q-42 -46 -42 -117v-25q0 -34 35 -478q0 -42 -118 -42q-42 -5 -77 -5q-38 0 -38 70
q-5 34 -62 737q0 47 90 47v3q-17 0 -23 25v5q6 27 23 27v1285q0 4 10 10h7q4 0 10 -10v-1195q19 14 35 45q10 8 18 8h5q27 -4 27 -28v-12q-10 -20 -25 -20h-7q-9 0 -23 10q-30 -39 -30 -63v-35q10 -10 10 -20v-7q0 -9 -10 -20v-5q38 2 55 2q45 0 45 -37q11 -32 18 -33h5
q19 0 50 38q95 82 217 82h10q124 0 202 -90q15 -7 18 -7q16 0 75 65q92 75 195 75h2q66 0 90 -8h3v3q-12 0 -15 22v5q0 13 22 30v1202q0 4 10 10zM1082 834q7 -40 45 -40q28 0 37 40q0 23 -22 38h-5q0 -20 -10 -20h-8q-6 0 -12 20q-25 -14 -25 -38zM62 749q0 -36 45 -42
q38 8 38 45q-10 35 -28 35v-13q0 -4 -10 -10h-7q-4 0 -10 10v13h-3q-25 -14 -25 -38z" />
    <glyph glyph-name="uni0443" unicode="&#x443;" horiz-adv-x="827" 
d="M663 2217h8q4 0 10 -10v-1199h2q0 15 32 42q7 30 30 30h2q25 0 30 -32q-8 -27 -28 -27h-7q-9 0 -20 10q-36 -41 -36 -86v-5q14 -15 14 -25v-7q0 -17 -19 -25v-7h2q72 22 91 22q20 0 25 -27q-52 -779 -74 -1010q-17 -73 -34 -98q-60 -82 -173 -116q-93 -27 -122 -27
q-41 0 -67 147q0 35 72 42q71 19 95 57q13 31 13 69q0 35 -153 228q-268 356 -356 479v15q0 26 103 47q71 24 84 24h12q27 0 64 -66q18 -24 251 -361q14 -20 27 -20h5q17 0 17 106q10 444 17 444q0 17 74 35v20q-13 12 -13 22v5q0 10 13 24v1270q0 4 9 10zM627 777
q0 -35 44 -41q37 7 37 44q-10 34 -27 34v-12q0 -4 -10 -10h-8q-3 0 -9 10v12h-3q-24 -14 -24 -37z" />
    <glyph glyph-name="uni0444" unicode="&#x444;" horiz-adv-x="1633" 
d="M913 608q-25 -171 61 -286q60 -51 98 -56q153 -22 218 85q29 43 41 125q29 234 -95 327q-38 23 -82 30q-154 22 -217 -125q-15 -38 -24 -100zM679 611q-1 2 -1 4q-9 62 -24 100q-63 147 -218 125q-43 -7 -81 -30q-124 -93 -95 -327q12 -82 41 -125q65 -107 217 -85
q39 5 98 56q50 66 63 150v132zM755 1074q0 -38 47 -45q39 9 39 48q-10 36 -29 36v-13q0 -4 -10 -10h-8q-4 0 -10 10v13h-3q-26 -14 -26 -39zM783 1173v16q-14 13 -14 23v6q0 11 14 26v960q0 4 10 10h8q4 0 10 -10v-884h3q0 15 34 45q8 31 32 31h2q27 0 32 -34
q-8 -29 -29 -29h-8q-9 0 -21 11q-39 -44 -39 -92v-5q15 -16 15 -27v-8q0 -17 -21 -26v-14q26 -1 69 -1q43 -2 41 -69l-3 -167l13 -5q16 -2 61 37q104 61 177 51q1 8 77 0l49 -10q71 -11 176 -111q77 -103 98 -200q24 -141 12 -227q-5 -17 -8 -36q-1 -6 1 -12
q-14 -93 -95 -211q-136 -158 -352 -127q-90 13 -183 90q-5 4 -13 5q-15 -13 -15 -17q-1 -2 1 -2l-4 -19l-1 -2l11 -386q-7 -49 -113 -33q-61 -3 -91 2h-2q-38 6 -36 61l-1 349v16l-5 19q2 0 2 2q0 4 -15 17q-8 -1 -13 -5q-94 -77 -183 -90q-217 -31 -353 127
q-81 118 -94 211q1 6 0 12q-2 19 -7 36q-12 86 12 227q21 97 98 200q105 100 176 111l49 10q76 8 77 0q73 10 177 -51q45 -39 61 -37l12 5q2 12 5 192v5q6 42 93 34h11z" />
    <glyph glyph-name="uni0445" unicode="&#x445;" horiz-adv-x="943" 
d="M345 2214h7q4 0 10 -10v-1234h2q0 14 32 41q7 30 30 30h2q25 0 29 -32q-7 -27 -27 -27h-7q-9 0 -19 10q-37 -41 -37 -86v-5q14 -15 14 -24v-8q0 -16 -19 -24v-15q74 -16 93 -44l61 -196q15 -15 17 -15h10q21 0 140 106q35 29 64 29h2q21 0 181 -54q13 -8 13 -19v-10
q-29 -32 -192 -155q-126 -96 -137 -110q-10 -13 -10 -27q8 -38 140 -451l3 -12q0 -14 -22 -22q-216 53 -216 81q-9 16 -76 242q-14 20 -27 20q-15 0 -152 -115q-65 -56 -91 -56q-18 0 -191 56q-12 13 -12 19q0 23 108 99q0 2 252 205q10 11 20 30q-7 39 -108 355
q-10 23 -17 61v3q8 17 27 17q14 -3 93 -27v7q-12 13 -12 22v5q0 11 12 25v1305q0 4 10 10zM308 739q0 -35 44 -41q37 8 37 44q-10 34 -27 34v-12q0 -4 -10 -10h-7q-4 0 -10 10v12h-3q-24 -14 -24 -37z" />
    <glyph glyph-name="uni0446" unicode="&#x446;" horiz-adv-x="993" 
d="M779 706q0 -38 47 -44q38 8 38 46q-10 37 -28 37v-13q0 -4 -10 -11h-8q-4 0 -11 11v13h-2q-26 -15 -26 -39zM194 867q0 -36 45 -42q38 8 38 45q-10 35 -28 35v-13q0 -4 -10 -10h-7q-4 0 -10 10v13h-3q-25 -14 -25 -38zM1876 1521v-3h-6v3h6zM800 839q-12 14 -12 24v5
q0 11 12 26v1308q0 4 11 10h8q4 0 10 -10v-1233h2q0 15 34 43q7 31 31 31h3q25 0 31 -33q-9 -29 -29 -29h-8q-9 0 -20 11q-39 -43 -39 -91v-5q16 -15 16 -26v-7q0 -9 -15 -24v-11l20 -6q28 -5 60 -14q45 -13 15 -115q-4 -13 -121 -574l48 -13q64 -21 55 -67q-8 -45 -28 -166
q-12 -36 -31 -38l-19 -3q-198 25 -202 54l-2 8q4 24 12 71q-35 8 -59 15h-2q-32 9 -22 71q-5 15 -16 19q-11 3 -72 -32q-104 -37 -152 -23q-30 -2 -59 7l-1 -2l-36 10q-188 56 -205 233q-18 49 60 387q46 233 63 291q7 25 78 15v2q-20 13 -21 27v5q6 27 23 27v1205
q0 4 10 10h7q4 0 10 -10v-1115q19 14 35 45q10 8 18 8h5q27 -4 27 -28v-12q-10 -20 -25 -20h-7q-9 0 -23 10q-30 -39 -30 -63v-35q10 -10 10 -20v-7q0 -9 -10 -20v-14q14 -3 29 -7q15 -2 67 -18h2q42 -13 4 -141q-106 -486 -76 -495q18 -73 82 -92l30 -9q77 -23 156 32
q36 32 59 107l2 9q23 78 105 473q14 45 84 24l8 -1v6z" />
    <glyph glyph-name="uni0447" unicode="&#x447;" horiz-adv-x="921" 
d="M186 900q0 -40 50 -47q41 8 41 49q-10 39 -30 39v-14q0 -4 -11 -11h-8q-5 0 -11 11v14h-3q-28 -16 -28 -41zM241 1015q122 -37 122 -56q6 -14 6 -22q-49 -160 -68 -243q-8 -20 -8 -56v-8q-8 -108 105 -129h22q117 0 171 141q27 55 62 186q17 33 36 33h19q193 -54 193 -83
v-8q-23 -89 -194 -613l-62 -185q-16 -17 -35 -17q-14 0 -33 6l-3 1v2h-6v-1l-30 7v5q-129 37 -129 58q-3 4 -3 11v11q0 13 88 281v14q-74 -37 -132 -42q-134 0 -267 113q-75 73 -75 195q0 94 89 336q4 28 17 65q20 19 34 22q27 -8 51 -15v7l-5 1l-8 3q-12 9 -12 20v5
q6 30 25 30v1112q0 4 11 11h8q4 0 11 -11v-1013q20 16 39 50q10 8 19 8h5q31 -4 31 -30v-14q-12 -22 -28 -22h-8q-10 0 -25 11q-33 -42 -33 -69v-38q11 -12 11 -22v-8q0 -10 -11 -22v-18z" />
    <glyph glyph-name="uni0448" unicode="&#x448;" horiz-adv-x="1401" 
d="M1218 753q7 -40 45 -40q28 0 37 40q0 23 -22 38h-5q0 -20 -10 -20h-8q-6 0 -12 20q-25 -14 -25 -38zM145 829q0 -36 45 -42q38 8 38 45q-10 35 -28 35v-13q0 -4 -10 -10h-7q-4 0 -10 10v13h-3q-25 -14 -25 -38zM1244 849v4q-16 2 -19 24v5q0 13 22 30v1282q0 4 10 10h8
q4 0 10 -10v-1197h2q0 7 25 28q3 27 28 27h2q25 0 30 -32q-8 -28 -27 -28h-8q-9 0 -20 10q-31 -34 -32 -62v-35q10 -14 10 -23v-12l-13 -17v-7q39 -1 72 -7q37 -6 26 -75q0 -35 -57 -738q-7 -46 -96 -32l-27 2q-38 4 -55 7q-44 7 -38 43q-6 34 -13 36l-5 1q-19 3 -55 -30
q-107 -66 -228 -46l-9 1q-123 20 -185 122q-14 9 -17 9q-16 3 -85 -52q-102 -59 -204 -43l-2 1q-65 10 -88 22l-2 1l-1 -1l-33 10v1l-38 28q-132 93 -90 349q-1 8 33 438q8 52 68 42q16 -1 30 -2v3q-17 0 -23 25v5q6 27 23 27v1206q0 4 10 10h7q4 0 10 -10v-1116
q19 14 35 45q10 8 18 8h5q27 -4 27 -28v-12q-10 -20 -25 -20h-7q-9 0 -23 10q-30 -39 -30 -63v-35q10 -10 10 -20v-7q0 -9 -10 -20v-11q42 -4 69 -8l7 -1q40 -6 26 -90q-43 -509 -24 -512q7 -42 41 -71q19 -18 86 -29q38 -2 90 21q56 48 66 106l8 54q10 60 40 465
q6 33 73 29q91 -8 127 -14q39 -6 27 -82q-37 -450 -31 -519q25 -83 101 -95l22 -4q49 -8 110 33q48 39 60 109l4 24q5 34 42 478q5 37 100 25z" />
    <glyph glyph-name="uni0449" unicode="&#x449;" horiz-adv-x="1502" 
d="M1274 613q7 -40 45 -40q28 0 37 40q0 23 -22 38h-5q0 -20 -10 -20h-8q-6 0 -12 20q-25 -14 -25 -38zM211 829q0 -36 45 -42q38 8 38 45q-10 35 -28 35v-13q0 -4 -10 -10h-7q-4 0 -10 10v13h-3q-25 -14 -25 -38zM3646 1602v-3h6v3h-6zM1312 28l47 -13q64 -21 55 -67
q-8 -46 -28 -166q-12 -36 -31 -38l-19 -3q-198 25 -202 54l-2 8q4 24 12 71q-27 7 -41 11q-43 12 -32 47q-2 35 -9 37l-5 2q-18 5 -58 -23q-114 -53 -232 -19l-9 2q-119 35 -169 143q-13 11 -16 11q-15 5 -90 -41q-108 -47 -208 -19l-2 1q-63 18 -85 33l-1 1l-1 -1l-32 14v1
l-34 32q-120 108 -48 357q0 8 84 431q14 51 73 34l10 -2v2q-17 0 -23 25v5q6 27 23 27v1214q0 4 10 10h7q4 0 10 -10v-1116q19 14 35 45q10 8 18 8h5q27 -4 27 -28v-12q-10 -20 -25 -20h-7q-9 0 -23 10q-30 -39 -30 -63v-43q10 -10 10 -20v-7q0 -9 -10 -20v-13l19 -4
q41 -9 67 -16l7 -2q39 -10 15 -92q-103 -500 -84 -506q2 -42 32 -75q17 -20 82 -39q38 -7 92 10q61 41 78 98l14 52q17 59 95 457q10 32 76 20q90 -18 125 -29q38 -10 17 -84q-90 -443 -93 -512q15 -85 89 -106l22 -7q47 -14 113 20q52 33 72 101l7 23q9 34 99 470
q9 36 101 13v3q-16 2 -19 24v5q0 13 22 30l-1 1420q0 4 10 10h8q4 0 10 -10l1 -1335h2q0 7 25 28q3 27 28 27h2q25 0 30 -32q-8 -28 -27 -28h-8q-9 0 -20 10q-31 -34 -32 -62v-35q10 -14 10 -23v-12l-13 -17v-9q39 -6 71 -16q36 -10 17 -77q-4 -31 -115 -585z" />
    <glyph glyph-name="uni044A" unicode="&#x44a;" horiz-adv-x="934" 
d="M147 878q8 -42 47 -42q31 0 40 42q0 24 -24 40q0 -19 -10 -19h-8q-7 0 -13 21q-32 -14 -32 -42zM344 185q-2 -28 147 -50q-9 -4 40 -8l29 -2q99 -9 129 59q4 14 4 24v12q-1 67 -100 102q-29 11 -164 41l-5 -1l-8 2q-33 2 -42 -40q-32 -126 -30 -139zM179 962v3
q-18 0 -25 28v6q7 30 25 30v1164q0 4 12 11h8q4 0 11 -11v-1064q21 16 39 50q10 8 19 8h6q30 -4 30 -30v-14q-11 -22 -27 -22h-9q-10 0 -25 11q-33 -43 -33 -70v-38q11 -12 11 -23v-8q0 -10 -11 -22v-16q51 -11 112 -24l86 -16l62 -12q49 -9 39 -64l-26 -113q-3 -14 -7 -31
q-24 -90 -24 -121q-1 -24 20 -33q53 -6 112 -25q92 -23 146 -49.5t128 -95.5q76 -82 74 -170v-9q-4 -145 -132 -220q-98 -42 -191 -36l-33 1q-47 3 -70 8q-369 89 -411 100q-21 11 -21 30l-1 1q2 10 149 652q1 7 1 8q-10 36 -42 43q-84 18 -119 21q-62 15 -44 86q9 35 8 44
q16 63 66 53l3 -1q37 -9 84 -20z" />
    <glyph glyph-name="uni044B" unicode="&#x44b;" horiz-adv-x="1210" 
d="M106 852q8 -42 47 -42q31 0 40 42q0 24 -24 40q0 -19 -10 -19h-8q-7 0 -13 21q-32 -14 -32 -42zM279 207q5 -23 96 -15q37 -3 82 2l26 4q90 10 101 70q1 13 -1 20l-4 11q-15 54 -111 64q-28 5 -154 3l-4 -1h-8q-30 -4 -28 -40q1 -108 5 -118zM165 947l63 2q50 3 52 -53
v-116q1 -14 1 -32q-4 -123 3 -153q5 -24 27 -28q102 10 113 5q95 -2 153.5 -16t146.5 -64q92 -63 110 -149l2 -9q29 -142 -79 -244q-86 -63 -178 -78l-33 -6q-46 -8 -64 -3q-4 -4 -6 -5q-378 0 -421 1q-23 6 -27 25l-1 1q-1 10 -1 748l-4 123q-2 46 56 48l56 2v10
q-18 0 -25 28v6q7 30 25 30v1174q0 4 12 11h8q4 0 11 -11v-1074q21 16 39 50q10 8 19 8h6q30 -4 30 -30v-14q-11 -22 -27 -22h-9q-10 0 -25 11q-33 -43 -33 -70v-38q11 -12 11 -23v-8q0 -10 -11 -22v-15zM1029 2211q-12 -7 -12 -11l3 -1104v-58l-5 2l2 14v6q0 26 -30 30h-6
q-30 -7 -30 -30v-6q0 -30 36 -30q25 0 25 -36q-20 -15 -20 -31v-11h-22q-58 0 -58 -47v-844q0 -55 61 -55h147q50 0 50 61v830q0 55 -50 55h-61v14q0 9 -8 19v117l-3 1104q-7 11 -11 11h-8zM1017 893q12 -14 14 -14h11q9 0 9 14h5q25 -16 25 -41q-9 -45 -41 -45
q-42 0 -50 45q0 26 27 41z" />
    <glyph glyph-name="uni044C" unicode="&#x44c;" horiz-adv-x="853" 
d="M266 822q8 -42 47 -42q31 0 40 42q0 24 -24 40q0 -19 -10 -19h-8q-7 0 -13 21q-32 -14 -32 -42zM269 190q-1 -26 92 -43q40 -12 89 -15l29 -2q99 -8 127 54q4 13 4 22l-1 11q-2 62 -102 94q-29 10 -157 42h-5l-8 2q-33 1 -41 -37q-28 -116 -27 -128zM294 923v3
q-18 0 -25 28v6q7 30 25 30v1204q0 4 12 11h8q4 0 11 -11v-1104q21 16 39 50q10 8 19 8h6q30 -4 30 -30v-14q-11 -22 -27 -22h-9q-10 0 -25 11q-33 -43 -33 -70v-38q11 -12 11 -23v-8q0 -10 -11 -22v-15l10 -2l62 -12q49 -9 39 -64l-26 -113q-3 -14 -7 -31q-24 -90 -24 -121
q-1 -24 20 -33q45 -10 104 -29q92 -23 146 -49.5t128 -95.5q76 -82 74 -170v-9q-4 -145 -132 -220q-98 -42 -191 -36l-33 1q-47 3 -70 8q-361 93 -403 104q-21 11 -21 30l-1 1q2 10 160 700l24 121q8 45 65 34z" />
    <glyph glyph-name="uni044D" unicode="&#x44d;" horiz-adv-x="918" 
d="M458 908q0 -38 47 -45q40 8 40 47q-10 37 -29 37v-13q0 -4 -11 -11h-8q-4 0 -10 11v13h-3q-26 -15 -26 -39zM591 728q-33 47 -80 82q-49 20 -76 20q-158 0 -202 -143q-5 -95 -34 -95q-132 -42 -168 -42h-5q-26 15 -26 42q0 279 257 385q98 42 212 42h18v1q-18 0 -24 27v5
q6 29 24 29v1125q0 4 10 11h8q4 0 11 -11v-1031q19 15 36 47q10 8 19 8h5q29 -4 29 -29v-13q-11 -21 -26 -21h-8q-10 0 -24 10q-31 -40 -31 -65v-37q10 -11 10 -21v-7q0 -10 -10 -21v-10q121 -15 228 -107q80 -82 102 -144q52 -96 52 -277v-11q0 -88 -76 -215
q-86 -118 -249 -167q-79 -24 -162 -24l-29 -1v1q-76 0 -186 66q-89 68 -112 144v10q0 32 125 55q46 16 66 16q30 0 52 -39q55 -61 123 -61q137 0 191 121q19 49 19 89v21q-3 3 -6 5q-4 11 -210 -61q-34 7 -40 22q-13 33 -18 53q-33 82 16 102l6 -1q29 11 149 57q23 11 25 16
q13 6 9 42z" />
    <glyph glyph-name="uni044E" unicode="&#x44e;" horiz-adv-x="1418" 
d="M854 791q0 -39 49 -46q41 8 41 49q-10 38 -30 38v-14q0 -4 -11 -11h-8q-4 0 -11 11v14h-3q-27 -15 -27 -41zM670 458q-24 -185 69 -303q56 -52 107 -59l33 -4q81 -10 164 60q57 57 71 166q30 241 -110 344q-32 15 -82 27q-70 9 -150 -34q-85 -58 -102 -197zM115 717
q8 -45 50 -45q32 0 41 45q0 25 -25 41h-5q0 -14 -9 -14h-11q-2 0 -14 14q-27 -15 -27 -41zM420 289h-122v-324q0 -61 -50 -61h-147q-61 0 -61 55v844q0 47 58 47h22v11q0 16 20 31q0 36 -25 36q-36 0 -36 30v6q0 23 30 30h6q30 -4 30 -30v-6l-2 -14l5 -2v58l-3 1194
q0 4 12 11h8q4 0 11 -11l3 -1194v-117q8 -10 8 -19v-14h61q50 0 50 -55v-324h118q0 5 1 10l3 17q15 124 115 240q111 102 143 98q104 45 206 46v29q-13 14 -13 25v5q0 12 13 27v1237q0 4 11 11h8q4 0 11 -11v-1158h3q0 16 35 47q8 32 33 32h3q27 0 32 -35q-8 -30 -30 -30h-8
q-10 0 -22 11q-40 -45 -40 -96v-5q16 -17 16 -27v-8q0 -19 -22 -28l-1 -27q17 -1 33 -3l30 -2q175 -24 291 -157q81 -112 97 -221q14 -87 7 -141q-3 -50 -5 -66q-30 -236 -259 -346q-119 -45 -167 -39q-24 -7 -110 -2q-316 40 -401 340q-5 22 -9 45z" />
    <glyph glyph-name="uni044F" unicode="&#x44f;" horiz-adv-x="931" 
d="M687 982q-6 -21 -13 -21h-8q-10 0 -10 19q-24 -16 -24 -40q9 -42 40 -42q39 0 47 42q0 28 -32 42zM551 858q-3 8 -220 -33q-11 -2 -30 -10q-67 -33 -48 -89q16 -46 67 -49q5 -12 224 27q29 6 37 15q7 1 -21 129q-2 5 -9 10zM653 1057q-8 9 -8 18v8q0 10 11 21v1105
q6 11 10 11h8q11 -7 11 -11v-1028h2q20 45 35 45q7 34 31 34h6q29 -7 29 -29v-5q0 -18 -21 -29h-16q-14 0 -19 10q-42 -44 -42 -100q13 0 19 -26v-3l-3 -13q47 4 53 -18q3 -10 158 -773q14 -48 -21 -57q-104 -17 -105 -16q-85 -20 -92 5q-18 57 -60 282q-3 10 -15 20
q-4 13 -178 -22q-36 -8 -62 -26q-28 -7 -48 -84q1 -70 10 -183q7 -59 -26 -67q-32 -8 -131 -22q-68 -16 -74 7l-1 2q-1 3 -2 18q10 40 -13 176q-7 100 28 152q47 53 47 55l-5 10l-74 39q-59 37 -90 140l-5 38q5 193 211 242q28 7 232 40q150 24 196 32z" />
    <glyph glyph-name="uni0451" unicode="&#x451;" horiz-adv-x="938" 
d="M567 852q0 -39 49 -46q40 8 40 48q-10 38 -29 38v-13q0 -5 -11 -11h-8q-4 0 -11 11v13h-3q-27 -15 -27 -40zM235 583q0 -29 24 -43h13q34 0 332 86q14 14 14 24v8q0 41 -84 100q-40 22 -81 22q-130 0 -199 -114q-19 -49 -19 -83zM396 1146q6 -19 12 -19h7q10 0 10 19h5
q22 -14 22 -37q-8 -39 -37 -39q-36 0 -44 39q0 24 25 37zM424 1209q8 9 8 22v2q0 3 -8 25v940q-6 10 -10 10h-7q-10 -6 -10 -10v-876h-2q0 19 -35 46q-7 32 -29 32h-5q-27 -6 -27 -27v-5q0 -23 27 -27h12q12 7 13 10q39 -42 39 -93q-17 -11 -17 -25v-5q5 -27 24 -27v-5
l-41 5q-30 -7 -36 -44l-13 -78q-3 -21 -2 -25q-5 -37 61 -47l40 -4q49 -5 50 -1q22 -3 29 42l15 98q6 38 -37 45l-39 5v17zM597 954v3q-18 0 -24 27v5q6 30 24 30v1179q0 4 11 11h8q4 0 11 -11v-1082q20 15 38 48q9 8 18 8h6q29 -4 29 -29v-14q-11 -21 -26 -21h-9
q-9 0 -24 11q-32 -42 -32 -68v-38q11 -11 11 -21v-8q0 -10 -11 -22v-20q41 -17 85 -44q107 -90 149 -180q25 -34 51 -143v-6q0 -39 -151 -67q-407 -108 -453 -124q-14 -15 -14 -33v-8q30 -84 94 -121q43 -22 71 -22h18q159 0 232 132q24 62 79 62q59 19 105 27q35 0 35 -35
q0 -80 -70 -194q-83 -112 -235 -156q-82 -30 -181 -30q-103 10 -159 35q-149 69 -218 213q-62 118 -62 265v8q0 6 -3 10q12 135 84 243q88 128 253 178q76 22 165 19q44 0 95 -17zM95 1069q6 -19 12 -19h7q10 0 10 19h5q22 -14 22 -37q-8 -39 -37 -39q-36 0 -44 39
q0 24 25 37zM123 1132q8 9 8 22v2q0 3 -8 25v1010q-6 10 -10 10h-7q-10 -6 -10 -10v-946h-2q0 19 -35 46q-7 32 -29 32h-5q-27 -6 -27 -27v-5q0 -23 27 -27h12q12 7 13 10q39 -42 39 -93q-17 -11 -17 -25v-5q5 -27 24 -27v-5l-41 5q-30 -7 -36 -44l-13 -78q-3 -21 -2 -25
q-5 -37 61 -47l40 -4q49 -5 50 -1q22 -3 29 42l15 98q6 38 -37 45l-39 5v17z" />
    </font>
</defs>
</svg>
